<?xml version="1.0" encoding="UTF-8" standalone="no"?>
<!-- Created with Inkscape (http://www.inkscape.org/) -->

<svg
   width="13.376755"
   height="27.133272"
   viewBox="0 0 3.5392663 7.1790116"
   version="1.1"
   id="svg1"
   xml:space="preserve"
   xmlns="http://www.w3.org/2000/svg"
   xmlns:svg="http://www.w3.org/2000/svg"><defs
     id="defs1" /><g
     id="layer1"
     transform="translate(51.179822,0.48111728)"><path
       style="fill:#ffffff;fill-opacity:1;stroke-width:0.0439062"
       d="m -50.999009,6.5207396 c -0.137435,-0.4388603 -0.19207,-0.934752 -0.178911,-1.6234229 0.0093,-0.4867563 0.04015,-0.7814975 0.140414,-1.3417512 0.128939,-0.7205534 0.382318,-1.4561231 0.654854,-1.9010933 0.155179,-0.2533524 0.233949,-0.3548737 0.309895,-0.3993807 0.112079,-0.065676 0.389154,-0.046156 0.677447,0.047722 0.119068,0.038772 0.361094,0.1675458 0.474009,0.2522026 0.121492,0.091099 0.293782,0.2612381 0.40242,0.3974216 0.208118,0.2608857 0.368887,0.6243208 0.416251,0.9409666 0.0075,0.051114 0.02108,0.1233624 0.02986,0.1605514 0.01113,0.047826 0.01244,0.074141 0.0039,0.089901 -0.0065,0.012261 -0.02446,0.065468 -0.03978,0.118252 -0.04264,0.1468849 -0.174831,0.4929211 -0.258541,0.6768129 -0.04682,0.1028225 -0.19209,0.3794085 -0.256277,0.4879085 -0.201826,0.3411662 -0.337591,0.5433997 -0.553662,0.8247189 -0.192369,0.2504723 -0.635648,0.7282462 -0.65641,0.7075006 -0.0075,-0.00761 -0.02454,-2.7859735 -0.01801,-2.9669022 0.0056,-0.1585543 -7.14e-4,-0.1257916 -0.02896,0.1510181 -0.01277,0.1245917 -0.03623,0.3206254 -0.05212,0.4356329 -0.01604,0.115006 -0.03969,0.29536 -0.05284,0.4007822 -0.07019,0.5625675 -0.117219,0.9242223 -0.133441,1.0263409 -0.01,0.062929 -0.03362,0.235439 -0.0525,0.3833571 -0.01879,0.1479194 -0.04172,0.3264426 -0.05078,0.3967267 -0.009,0.070282 -0.0257,0.2178757 -0.03701,0.3279874 l -0.02056,0.2002029 -0.128972,0.080398 c -0.145014,0.090393 -0.515091,0.303355 -0.527068,0.3033005 -0.0043,-1.93e-5 -0.03276,-0.07974 -0.06325,-0.1771553 z m 3.327065,-4.5253986 c -0.0029,-0.055503 -0.08322,-0.3521222 -0.129692,-0.4796018 -0.06369,-0.1747392 -0.196911,-0.4304059 -0.285883,-0.54871222 -0.1247,-0.16579377 -0.375555,-0.40580225 -0.555893,-0.53185119 -0.12637,-0.0883293 -0.308026,-0.19097452 -0.423893,-0.23952609 -0.103616,-0.0434223 -0.395528,-0.13079893 -0.437348,-0.13091515 -0.0082,-2.373e-5 -0.01506,0.0308312 -0.01779,0.08090755 -0.0056,0.0975746 -0.02778,0.13367498 -0.106874,0.17332536 -0.09196,0.0460954 -0.17907,0.0452655 -0.402306,-0.003847 -0.105417,-0.0231836 -0.22676,-0.052589 -0.269636,-0.065334 -0.07456,-0.0221589 -0.253123,-0.10079273 -0.253123,-0.1114572 0,-0.0133572 0.04321,-0.08656307 0.08967,-0.15188068 0.116008,-0.16310826 0.325339,-0.31679102 0.530295,-0.38931726 0.289643,-0.10249676 0.736701,-0.10454944 1.023817,-0.004682 0.259913,0.0903918 0.506923,0.25018416 0.698502,0.45187029 0.252189,0.26548879 0.462787,0.69520204 0.545163,1.11236719 0.02783,0.1408398 0.03588,0.6048175 0.01326,0.7550966 -0.0092,0.0607 -0.0174,0.098301 -0.0182,0.083564 z m -3.183138,-0.6465017 c -0.115435,-0.1202097 -0.18751,-0.2991849 -0.18703,-0.46438281 2.21e-4,-0.0698028 0.02698,-0.19034447 0.05382,-0.24224172 0.07088,-0.13708138 0.320265,-0.32066836 0.436946,-0.32167261 0.0502,-4.7617e-4 0.133113,0.0445125 0.177251,0.0960719 0.0521,0.0608587 0.08995,0.16171196 0.08486,0.22602337 -0.0034,0.0428461 -9.52e-4,0.0494461 0.0194,0.049929 0.01277,2.3784e-4 0.08106,0.0173987 0.15161,0.0379829 0.224514,0.0654879 0.414191,0.19834012 0.492229,0.34474847 0.02092,0.039276 0.03626,0.07318 0.03403,0.075349 -0.0065,0.00638 -0.156587,-0.046238 -0.294444,-0.1031925 -0.19151,-0.0791233 -0.307053,-0.10396829 -0.487909,-0.10490133 -0.139988,-7.1402e-4 -0.155817,0.001428 -0.216717,0.0300193 -0.158829,0.0744614 -0.242231,0.23142383 -0.202757,0.38158393 0.0092,0.035133 0.01539,0.065213 0.01375,0.066845 -0.0016,0.00167 -0.03544,-0.030838 -0.07512,-0.07216 z"
       id="path1" /></g></svg>
