<?xml version="1.0" encoding="UTF-8" standalone="no"?>
<!-- Created with Inkscape (http://www.inkscape.org/) -->

<svg
   width="24"
   height="24"
   viewBox="0 0 6.3499997 6.3500002"
   version="1.1"
   id="svg5"
   xml:space="preserve"
   inkscape:version="1.3 (0e150ed6c4, 2023-07-21)"
   sodipodi:docname="contacts.svg"
   xmlns:inkscape="http://www.inkscape.org/namespaces/inkscape"
   xmlns:sodipodi="http://sodipodi.sourceforge.net/DTD/sodipodi-0.dtd"
   xmlns="http://www.w3.org/2000/svg"
   xmlns:svg="http://www.w3.org/2000/svg"><sodipodi:namedview
     id="namedview7"
     pagecolor="#ffffff"
     bordercolor="#000000"
     borderopacity="0.25"
     inkscape:showpageshadow="2"
     inkscape:pageopacity="0.0"
     inkscape:pagecheckerboard="0"
     inkscape:deskcolor="#d1d1d1"
     inkscape:document-units="mm"
     showgrid="false"
     inkscape:zoom="10.83858"
     inkscape:cx="7.7962242"
     inkscape:cy="12.409375"
     inkscape:current-layer="layer1"
     inkscape:window-width="1366"
     inkscape:window-height="715"
     inkscape:window-x="-8"
     inkscape:window-y="-8"
     inkscape:window-maximized="1" /><defs
     id="defs2" /><g
     inkscape:label="Camada 1"
     inkscape:groupmode="layer"
     id="layer1"
     transform="translate(-190.49996,26.479877)"><path
       id="path3"
       style="color:#000000;fill:#ffffff;stroke-width:0.96252;stroke-linecap:round;stroke-linejoin:round;-inkscape-stroke:none;paint-order:stroke fill markers"
       d="M 191.61462 -26.479877 A 0.48130829 0.48130829 0 0 0 191.13351 -25.998769 L 191.13351 -20.610985 A 0.48130829 0.48130829 0 0 0 191.61462 -20.129877 L 195.7353 -20.129877 A 0.48130829 0.48130829 0 0 0 196.21641 -20.610985 L 196.21641 -25.055158 A 0.48130829 0.48130829 0 0 0 196.07585 -25.395189 L 195.13017 -26.339317 A 0.48130829 0.48130829 0 0 0 194.78962 -26.479877 L 191.61462 -26.479877 z M 193.67548 -25.214838 C 194.15868 -25.214838 194.54777 -24.826253 194.54777 -24.343057 C 194.54777 -23.859859 194.15867 -23.470758 193.67548 -23.470758 C 193.19228 -23.470758 192.8037 -23.859859 192.8037 -24.343057 C 192.8037 -24.826253 193.19228 -25.214838 193.67548 -25.214838 z M 192.71688 -23.582379 C 192.93894 -23.298043 193.28513 -23.115741 193.67548 -23.115741 C 194.06583 -23.115741 194.41201 -23.298043 194.63407 -23.582379 C 195.00659 -23.313342 195.26042 -22.891035 195.30432 -22.406224 L 195.3038 -22.405707 C 195.2853 -22.368373 195.26569 -22.331456 195.24489 -22.295636 C 195.23439 -22.277656 195.22395 -22.25999 195.21285 -22.24241 C 195.19075 -22.207293 195.16749 -22.173013 195.14309 -22.139573 L 195.14257 -22.139573 C 195.11837 -22.106433 195.09342 -22.073802 195.06712 -22.042422 C 195.06612 -22.041622 195.06558 -22.041133 195.06506 -22.040355 C 195.05216 -22.024975 195.03928 -22.009809 195.02578 -21.994879 C 195.01188 -21.979519 194.99771 -21.964284 194.98341 -21.949404 C 194.96911 -21.934544 194.95428 -21.920356 194.93948 -21.905996 L 194.93948 -21.905479 C 194.91048 -21.877349 194.88037 -21.850487 194.84957 -21.824347 C 194.84757 -21.823247 194.84643 -21.82173 194.84543 -21.82073 C 194.83023 -21.80793 194.81504 -21.795306 194.79944 -21.783006 C 194.78374 -21.770646 194.768 -21.758663 194.7519 -21.746833 C 194.7509 -21.745633 194.74873 -21.744515 194.74673 -21.743215 C 194.73263 -21.732935 194.71824 -21.723143 194.70384 -21.713243 C 194.70184 -21.711643 194.69912 -21.709675 194.69712 -21.708075 C 194.68112 -21.697165 194.66494 -21.686426 194.64854 -21.676036 C 194.64754 -21.675136 194.64641 -21.674452 194.64441 -21.673452 C 194.62921 -21.663862 194.61392 -21.654747 194.59842 -21.645547 C 194.59642 -21.644147 194.59318 -21.642713 194.59118 -21.641413 C 194.57408 -21.631473 194.55681 -21.621874 194.53951 -21.612474 C 194.52271 -21.603404 194.50596 -21.594619 194.48886 -21.586119 C 194.48566 -21.584419 194.48253 -21.582551 194.47853 -21.580951 C 194.46263 -21.573071 194.44677 -21.565614 194.43047 -21.558214 C 194.42847 -21.557714 194.42734 -21.556663 194.42634 -21.556147 C 194.40904 -21.548307 194.39174 -21.540709 194.37414 -21.533409 C 194.37014 -21.531709 194.36574 -21.530358 194.36174 -21.528758 C 194.34664 -21.522628 194.33156 -21.516371 194.31626 -21.510671 C 194.31326 -21.509571 194.31151 -21.508571 194.30851 -21.507571 C 194.29011 -21.500761 194.2714 -21.494134 194.2527 -21.487934 C 194.2517 -21.487434 194.24953 -21.486383 194.24753 -21.485867 C 194.23123 -21.480457 194.21453 -21.47588 194.19793 -21.47088 C 194.19413 -21.46978 194.18901 -21.468046 194.18501 -21.466746 C 194.16651 -21.461376 194.148 -21.45656 194.1292 -21.45176 C 194.1105 -21.44704 194.09167 -21.442524 194.07287 -21.438324 C 194.06817 -21.437224 194.06443 -21.436224 194.05943 -21.435224 C 194.04323 -21.431724 194.02684 -21.428505 194.01034 -21.425405 C 194.00734 -21.424605 194.00404 -21.424371 194.00104 -21.423855 C 193.98244 -21.420455 193.96403 -21.417353 193.94523 -21.414553 L 193.92921 -21.411969 C 193.91421 -21.409869 193.89883 -21.408602 193.88373 -21.406802 C 193.87883 -21.406002 193.87375 -21.405251 193.86875 -21.404735 C 193.84955 -21.402735 193.83069 -21.400867 193.81139 -21.399567 C 193.80779 -21.399309 193.80453 -21.399282 193.80053 -21.39905 C 193.78453 -21.39795 193.76857 -21.397244 193.75247 -21.396466 C 193.74647 -21.39623 193.74039 -21.395614 193.73439 -21.395433 C 193.71479 -21.394892 193.69518 -21.394399 193.67548 -21.394399 C 193.65578 -21.394399 193.63607 -21.394918 193.61657 -21.395433 C 193.61057 -21.39567 193.60448 -21.396208 193.59848 -21.396466 C 193.58238 -21.397066 193.56642 -21.39805 193.55042 -21.39905 C 193.54682 -21.399307 193.54408 -21.399309 193.54008 -21.399567 C 193.52078 -21.400967 193.50131 -21.402735 193.48221 -21.404735 C 193.47721 -21.405235 193.47222 -21.406286 193.46722 -21.406802 C 193.45222 -21.408502 193.43726 -21.409969 193.42226 -21.411969 L 193.40624 -21.414553 C 193.38744 -21.417353 193.36852 -21.420455 193.34992 -21.423855 C 193.34692 -21.424355 193.34413 -21.42489 193.34113 -21.425405 C 193.32473 -21.428405 193.30834 -21.431724 193.29204 -21.435224 C 193.28734 -21.436124 193.28308 -21.437324 193.27808 -21.438324 C 193.25919 -21.442544 193.24036 -21.44696 193.22176 -21.45176 C 193.20296 -21.45656 193.18455 -21.461346 193.16595 -21.466746 C 193.16125 -21.467846 193.15703 -21.46958 193.15303 -21.47088 C 193.13663 -21.47575 193.12055 -21.480567 193.10445 -21.485867 L 193.09722 -21.48845 C 193.07862 -21.49464 193.06022 -21.500771 193.04192 -21.507571 C 193.03892 -21.508671 193.03717 -21.509671 193.03417 -21.510671 C 193.01887 -21.516421 193.0038 -21.522558 192.9887 -21.528758 C 192.9846 -21.530358 192.98029 -21.531809 192.97629 -21.533409 C 192.95869 -21.540699 192.9414 -21.548347 192.9241 -21.556147 C 192.9221 -21.556647 192.92097 -21.557698 192.91997 -21.558214 C 192.90367 -21.565634 192.88739 -21.573051 192.87139 -21.580951 C 192.86829 -21.582651 192.86557 -21.584319 192.86157 -21.586119 C 192.84447 -21.594669 192.82721 -21.603374 192.81041 -21.612474 C 192.79301 -21.621864 192.77574 -21.631513 192.75874 -21.641413 C 192.75674 -21.642813 192.75402 -21.644247 192.75202 -21.645547 C 192.73652 -21.654707 192.72123 -21.663852 192.70603 -21.673452 C 192.70503 -21.674352 192.70389 -21.675553 192.70189 -21.676553 C 192.68549 -21.686973 192.66932 -21.697165 192.65332 -21.708075 C 192.65132 -21.709675 192.64808 -21.711643 192.64608 -21.713243 C 192.63178 -21.723133 192.61781 -21.733442 192.60371 -21.743732 C 192.60271 -21.744932 192.60054 -21.745533 192.59854 -21.746833 C 192.58244 -21.758673 192.5667 -21.770656 192.551 -21.783006 C 192.5354 -21.795296 192.52021 -21.80795 192.50501 -21.82073 C 192.50401 -21.82183 192.50187 -21.823347 192.50087 -21.824347 C 192.46997 -21.850497 192.43995 -21.877866 192.41095 -21.905996 C 192.39615 -21.920366 192.38143 -21.935041 192.36703 -21.949921 C 192.35293 -21.964651 192.33939 -21.979669 192.32569 -21.994879 C 192.32569 -21.995322 192.32515 -21.995397 192.32465 -21.995913 C 192.31155 -22.010493 192.2985 -22.025355 192.2859 -22.040355 C 192.2849 -22.041155 192.28434 -22.041644 192.28383 -22.042422 C 192.25763 -22.073582 192.23248 -22.10563 192.20838 -22.13854 C 192.20798 -22.13904 192.20787 -22.140092 192.20735 -22.140607 C 192.18325 -22.173775 192.16052 -22.20758 192.13862 -22.24241 C 192.12752 -22.25999 192.11656 -22.277666 192.10606 -22.295636 C 192.09556 -22.313626 192.08557 -22.332023 192.07557 -22.350413 C 192.06577 -22.368633 192.05615 -22.387117 192.04715 -22.405707 L 192.04715 -22.406224 C 192.09105 -22.890958 192.34445 -23.313339 192.71688 -23.582379 z " /></g></svg>
