<?xml version="1.0" encoding="UTF-8" standalone="no"?>
<!-- Created with Inkscape (http://www.inkscape.org/) -->

<svg
   width="24"
   height="24"
   viewBox="0 0 6.3499999 6.35"
   version="1.1"
   id="svg1"
   xml:space="preserve"
   inkscape:export-filename="close-icon.svg"
   inkscape:export-xdpi="96"
   inkscape:export-ydpi="96"
   xmlns:inkscape="http://www.inkscape.org/namespaces/inkscape"
   xmlns:sodipodi="http://sodipodi.sourceforge.net/DTD/sodipodi-0.dtd"
   xmlns="http://www.w3.org/2000/svg"
   xmlns:svg="http://www.w3.org/2000/svg"><sodipodi:namedview
     id="namedview1"
     pagecolor="#505050"
     bordercolor="#ffffff"
     borderopacity="1"
     inkscape:showpageshadow="0"
     inkscape:pageopacity="0"
     inkscape:pagecheckerboard="1"
     inkscape:deskcolor="#505050"
     inkscape:document-units="mm"
     inkscape:zoom="21.791632"
     inkscape:cx="11.977074"
     inkscape:cy="12.000019"
     inkscape:window-width="1366"
     inkscape:window-height="715"
     inkscape:window-x="-8"
     inkscape:window-y="-8"
     inkscape:window-maximized="1"
     inkscape:current-layer="layer1" /><defs
     id="defs1" /><g
     inkscape:label="Camada 1"
     inkscape:groupmode="layer"
     id="layer1"><path
       style="fill:#ffffff;stroke-width:0.050633"
       d="m 2.893565,6.336615 c 0,-0.0074 -0.0233,-0.0134 -0.0518,-0.0134 -0.17881,0 -0.61474,-0.109925 -0.88506,-0.223178 -0.99269,-0.415902 -1.71476,-1.309078 -1.90356,-2.354666 -0.0145,-0.0805 -0.0264,-0.163388 -0.0264,-0.184204 0,-0.02082 -0.006,-0.03785 -0.0134,-0.03785 -0.009,0 -0.0134,-0.125035 -0.0134,-0.348312 0,-0.191572 0.005,-0.348312 0.0107,-0.348312 0.006,0 0.0178,-0.05665 0.0266,-0.125879 0.0353,-0.279627 0.14408,-0.6253 0.29128,-0.925756 0.39283,-0.801848 1.15459,-1.430266 2.00637,-1.655179 0.17286,-0.04564 0.43119,-0.09308 0.5069,-0.09308 0.0285,0 0.0519,-0.006 0.0519,-0.0134 0,-0.0085 0.1052,-0.0134 0.28882,-0.0134 0.18913,0 0.28596,0.0046 0.28054,0.0134 -0.005,0.008 0.0121,0.01342 0.0428,0.01345 0.0782,8.1e-5 0.28844,0.0367 0.46095,0.08028 0.56204,0.141982 1.06641,0.434966 1.47958,0.859482 0.18715,0.192288 0.23585,0.252092 0.37506,0.46055 0.25074,0.375456 0.43407,0.850118 0.49011,1.268911 0.01,0.07184 0.0222,0.130617 0.028,0.130617 0.006,0 0.0105,0.15674 0.0105,0.348312 0,0.191572 -0.005,0.348312 -0.0105,0.348312 -0.006,0 -0.0183,0.05878 -0.0279,0.130617 -0.0491,0.368577 -0.20956,0.812202 -0.41812,1.156102 -0.24554,0.404885 -0.62198,0.788265 -1.03045,1.049463 -0.14376,0.09192 -0.47853,0.252194 -0.64304,0.307854 -0.1935,0.06546 -0.44726,0.125685 -0.61218,0.145272 -0.0759,0.009 -0.13803,0.02112 -0.13803,0.02689 0,0.0058 -0.12962,0.01049 -0.28803,0.01049 -0.18309,0 -0.28803,-0.0049 -0.28803,-0.0134 z m 0.59881,-0.730512 c 1.09361,-0.141737 1.95455,-0.991391 2.1153,-2.087571 0.0307,-0.209607 0.0206,-0.614149 -0.0204,-0.817474 -0.059,-0.292401 -0.20197,-0.642217 -0.3565,-0.872408 -0.38652,-0.575747 -0.95482,-0.946862 -1.64312,-1.073004 -0.17914,-0.03283 -0.52399,-0.03909 -0.72056,-0.01308 -1.06112,0.140421 -1.89411,0.917838 -2.1063,1.965789 -0.0269,0.132737 -0.0307,0.191433 -0.0308,0.466655 -10e-6,0.275824 0.004,0.333726 0.0309,0.467444 0.10804,0.53341 0.39583,1.029275 0.79966,1.377826 0.39366,0.33977 0.87329,0.546407 1.38657,0.597369 0.12707,0.01262 0.40404,0.0068 0.54522,-0.01155 z M 3.101985,4.950169 c -0.12144,-0.04326 -0.197,-0.139334 -0.20585,-0.261732 -0.008,-0.109119 0.0221,-0.184587 0.10079,-0.253885 0.0713,-0.06277 0.14301,-0.08574 0.24197,-0.07754 0.13138,0.0109 0.25522,0.132964 0.26781,0.263988 0.0134,0.139601 -0.0488,0.25223 -0.17366,0.314457 -0.0782,0.03897 -0.15011,0.04354 -0.23106,0.01471 z M 2.909625,3.680734 c 0.004,-0.427986 0.004,-0.43267 0.037,-0.499025 0.0519,-0.105465 0.12319,-0.171374 0.36132,-0.334013 0.25615,-0.174942 0.28808,-0.203628 0.33164,-0.297943 0.0446,-0.09643 0.0525,-0.183847 0.0254,-0.277331 -0.0299,-0.102908 -0.0938,-0.170636 -0.21969,-0.232845 -0.0996,-0.04921 -0.10447,-0.05017 -0.25626,-0.05017 -0.23194,0 -0.37071,0.05919 -0.46176,0.19694 -0.0622,0.0941 -0.0876,0.197387 -0.0975,0.39586 l -0.008,0.164109 h -0.30071 -0.30071 l 0.009,-0.15741 c 0.0225,-0.392612 0.0802,-0.574774 0.24996,-0.788977 0.23802,-0.300377 0.54491,-0.436326 0.94003,-0.416424 0.19001,0.0096 0.32178,0.03924 0.46068,0.103706 0.31114,0.144421 0.53057,0.398059 0.61476,0.710618 0.0312,0.115979 0.0312,0.338023 -10e-5,0.454711 -0.0586,0.218589 -0.21838,0.41577 -0.46178,0.569979 -0.16132,0.102201 -0.24974,0.18269 -0.29337,0.267044 -0.0335,0.06475 -0.035,0.0776 -0.0404,0.345229 l -0.006,0.27798 h -0.2939 -0.29389 z"
       id="path2"
       inkscape:export-filename="help-icon.svg"
       inkscape:export-xdpi="96"
       inkscape:export-ydpi="96" /></g></svg>
