<?xml version="1.0" encoding="UTF-8" standalone="no"?>
<!-- Created with Inkscape (http://www.inkscape.org/) -->

<svg
   width="7.9375mm"
   height="7.9374924mm"
   viewBox="0 0 7.9375 7.9374924"
   version="1.1"
   id="svg5"
   xml:space="preserve"
   inkscape:version="1.2.1 (9c6d41e410, 2022-07-14)"
   sodipodi:docname="desenho.svg"
   xmlns:inkscape="http://www.inkscape.org/namespaces/inkscape"
   xmlns:sodipodi="http://sodipodi.sourceforge.net/DTD/sodipodi-0.dtd"
   xmlns="http://www.w3.org/2000/svg"
   xmlns:svg="http://www.w3.org/2000/svg"><sodipodi:namedview
     id="namedview7"
     pagecolor="#83838e"
     bordercolor="#000000"
     borderopacity="0.25"
     inkscape:showpageshadow="2"
     inkscape:pageopacity="0"
     inkscape:pagecheckerboard="0"
     inkscape:deskcolor="#d1d1d1"
     inkscape:document-units="mm"
     showgrid="false"
     inkscape:zoom="1.2771877"
     inkscape:cx="1025.2996"
     inkscape:cy="583.31285"
     inkscape:current-layer="layer1" /><defs
     id="defs2" /><g
     inkscape:label="Camada 1"
     inkscape:groupmode="layer"
     id="layer1"
     transform="translate(-113.99366,-89.78124)"><path
       id="path1126"
       style="fill:#ffffff;fill-opacity:1;stroke:none;stroke-width:0.0853452;stroke-linecap:round;stroke-linejoin:round;paint-order:markers stroke fill"
       d="m 116.22422,89.78124 c -0.20774,0 -0.37486,0.167424 -0.37486,0.375167 0,0.207744 0.16712,0.374862 0.37486,0.374862 h 3.47607 c 0.20774,0 0.37517,-0.167118 0.37517,-0.374862 0,-0.207743 -0.16743,-0.375167 -0.37517,-0.375167 z m -0.27316,1.385957 c -0.34282,0 -0.61857,0.27606 -0.61857,0.618874 v 4.022393 c 0,0.342822 0.27575,0.618564 0.61857,0.618564 h 4.02239 c 0.34282,0 0.61888,-0.275742 0.61888,-0.618564 v -4.022393 c 0,-0.342814 -0.27606,-0.618874 -0.61888,-0.618874 z m 0.38013,0.497028 h 3.26212 c 0.27804,0 0.50199,0.223942 0.50199,0.501982 v 3.213755 c -0.54442,-0.573636 -1.13791,-1.198553 -1.2331,-1.299455 -0.15145,-0.160524 -0.29192,-0.0318 -0.32804,0 -0.0361,0.03186 -0.0382,0.03078 -0.12496,0.102942 -0.0868,0.07216 -0.26019,0.115596 -0.36897,0 0,0 -0.38929,-0.442326 -0.54073,-0.593766 -0.0757,-0.07573 -0.15029,-0.116718 -0.22666,-0.118134 -0.0764,-0.0012 -0.15445,0.03696 -0.23689,0.119376 -0.1237,0.123708 -0.85116,1.000344 -1.20674,1.430609 v -2.855327 c 0,-0.27804 0.22394,-0.501982 0.50198,-0.501982 z m -1.89105,0.23533 c -0.24737,0 -0.44648,0.199116 -0.44648,0.446484 v 2.902457 c 0,0.247374 0.19911,0.446484 0.44648,0.446484 h 0.3944 v -1.594631 c -0.17042,0.203496 -0.35795,0.42978 -0.48245,0.580434 v -2.06034 c 0,-0.200628 0.16152,-0.362148 0.36215,-0.362148 h 0.1203 v -0.35874 z m 6.64983,0 v 0.35874 h 0.1203 c 0.20062,0 0.36215,0.16152 0.36215,0.362148 v 2.318927 c -0.21301,-0.22443 -0.3116,-0.328463 -0.48245,-0.508499 v 1.264109 h 0.39471 c 0.24736,0 0.44648,-0.19911 0.44648,-0.446484 v -2.902457 c 0,-0.247368 -0.19912,-0.446484 -0.44648,-0.446484 z m -2.03399,0.63066 a 0.55007714,0.55007714 0 0 0 -0.55004,0.550044 0.55007714,0.55007714 0 0 0 0.55004,0.550044 0.55007714,0.55007714 0 0 0 0.55005,-0.550044 0.55007714,0.55007714 0 0 0 -0.55005,-0.550044 z m 2.03399,0.456714 v 0.584772 a 0.39692586,0.39692586 0 0 0 0.1296,-0.291768 0.39692586,0.39692586 0 0 0 -0.1296,-0.293004 z m -4.86575,3.982085 c -0.20774,0 -0.37486,0.167112 -0.37486,0.374856 0,0.20775 0.16712,0.374862 0.37486,0.374862 h 3.47607 c 0.20774,0 0.37517,-0.167112 0.37517,-0.374862 0,-0.207744 -0.16743,-0.374856 -0.37517,-0.374856 z" /></g></svg>
