<?xml version="1.0" encoding="UTF-8" standalone="no"?>
<!-- Created with Inkscape (http://www.inkscape.org/) -->

<svg
   width="6.3499999mm"
   height="6.3500004mm"
   viewBox="0 0 6.3499999 6.3500004"
   version="1.1"
   id="svg1"
   xml:space="preserve"
   xmlns:inkscape="http://www.inkscape.org/namespaces/inkscape"
   xmlns:sodipodi="http://sodipodi.sourceforge.net/DTD/sodipodi-0.dtd"
   xmlns="http://www.w3.org/2000/svg"
   xmlns:svg="http://www.w3.org/2000/svg"><sodipodi:namedview
     id="namedview1"
     pagecolor="#ffffff"
     bordercolor="#000000"
     borderopacity="0.25"
     inkscape:showpageshadow="2"
     inkscape:pageopacity="0.0"
     inkscape:pagecheckerboard="0"
     inkscape:deskcolor="#d1d1d1"
     inkscape:document-units="mm" /><defs
     id="defs1" /><g
     inkscape:label="Camada 1"
     inkscape:groupmode="layer"
     id="layer1"
     transform="translate(-240.72846,-126.01711)"><path
       id="path2"
       style="fill:#ffffff;stroke-width:0.050633"
       d="m 243.91121,126.01711 c -0.18362,0 -0.28887,0.005 -0.28887,0.0134 0,0.007 -0.0237,0.0134 -0.0522,0.0134 -0.0757,0 -0.33409,0.0474 -0.50695,0.093 -0.85178,0.22491 -1.61325,0.85335 -2.00608,1.6552 -0.1472,0.30045 -0.25615,0.64642 -0.29145,0.92604 -0.009,0.0693 -0.0204,0.12558 -0.0264,0.12558 -0.006,0 -0.0108,0.15671 -0.0108,0.34829 0,0.22327 0.004,0.3483 0.0134,0.3483 0.007,0 0.0134,0.0169 0.0134,0.0377 0,0.0208 0.0119,0.10398 0.0264,0.18448 0.1888,1.04559 0.91055,1.93848 1.90324,2.35438 0.27032,0.11325 0.70641,0.22324 0.88522,0.22324 0.0285,0 0.0517,0.006 0.0517,0.0134 h 5.2e-4 c 0,0.008 0.10475,0.0134 0.28784,0.0134 0.15841,0 0.28835,-0.004 0.28835,-0.0103 0,-0.006 0.0621,-0.0179 0.13798,-0.0269 0.16492,-0.0196 0.41835,-0.0797 0.61185,-0.14521 0.16451,-0.0557 0.49961,-0.2161 0.64337,-0.308 0.40847,-0.26119 0.78489,-0.64465 1.03043,-1.04954 0.20856,-0.3439 0.36896,-0.78743 0.41806,-1.15601 0.01,-0.0718 0.0219,-0.13074 0.0279,-0.13074 0.006,0 0.0103,-0.15673 0.0103,-0.3483 0,-0.19157 -0.004,-0.34829 -0.0103,-0.34829 -0.006,0 -0.0179,-0.0589 -0.0279,-0.13075 -0.056,-0.41879 -0.23967,-0.89319 -0.49041,-1.26865 -0.13921,-0.20846 -0.18802,-0.26815 -0.37517,-0.46044 -0.41317,-0.42452 -0.91746,-0.7174 -1.4795,-0.85938 -0.17251,-0.0436 -0.38275,-0.0805 -0.46095,-0.0806 -0.0307,-10e-5 -0.0479,-0.005 -0.0429,-0.0134 0.005,-0.008 -0.091,-0.0134 -0.28009,-0.0134 z m 0.0512,0.72709 c 0.13318,0.002 0.26441,0.012 0.35398,0.0284 0.6883,0.12614 1.25628,0.49757 1.6428,1.07332 0.15453,0.23019 0.29756,0.5799 0.35656,0.8723 0.041,0.20332 0.0509,0.60791 0.0202,0.81752 -0.16075,1.09618 -1.02151,1.946 -2.11512,2.08773 -0.14118,0.0185 -0.41811,0.024 -0.54518,0.0114 -0.51328,-0.051 -0.99282,-0.25761 -1.38648,-0.59738 -0.40383,-0.34855 -0.69191,-0.84428 -0.79995,-1.37769 -0.0269,-0.13371 -0.0305,-0.19186 -0.0305,-0.46768 1e-4,-0.27522 0.004,-0.3339 0.0305,-0.46663 0.21219,-1.04796 1.04521,-1.82536 2.10633,-1.96578 0.0983,-0.013 0.23372,-0.0179 0.3669,-0.0155 z m -0.0589,0.62012 c -0.12903,0 -0.23452,0.0364 -0.31678,0.10904 -0.0823,0.0726 -0.1235,0.16608 -0.1235,0.2806 0,0.11129 0.0412,0.20576 0.1235,0.28319 0.0823,0.0758 0.18775,0.11368 0.31678,0.11368 0.13065,0 0.23613,-0.0374 0.31678,-0.11162 0.0823,-0.0742 0.1235,-0.16912 0.1235,-0.28525 0,-0.11452 -0.0412,-0.20802 -0.1235,-0.2806 -0.0806,-0.0726 -0.18613,-0.10904 -0.31678,-0.10904 z m -0.38706,1.17822 v 2.47737 h 0.7643 v -2.47737 z" /></g></svg>
