<?xml version="1.0" encoding="UTF-8" standalone="no"?>
<!-- Created with Inkscape (http://www.inkscape.org/) -->

<svg
   width="50.000019"
   height="50.000004"
   viewBox="0 0 13.229171 13.229168"
   version="1.1"
   id="svg5"
   xml:space="preserve"
   inkscape:version="1.2.1 (9c6d41e410, 2022-07-14)"
   sodipodi:docname="App Design.svg"
   xmlns:inkscape="http://www.inkscape.org/namespaces/inkscape"
   xmlns:sodipodi="http://sodipodi.sourceforge.net/DTD/sodipodi-0.dtd"
   xmlns="http://www.w3.org/2000/svg"
   xmlns:svg="http://www.w3.org/2000/svg"><sodipodi:namedview
     id="namedview7"
     pagecolor="#ffffff"
     bordercolor="#000000"
     borderopacity="0.25"
     inkscape:showpageshadow="2"
     inkscape:pageopacity="0.0"
     inkscape:pagecheckerboard="0"
     inkscape:deskcolor="#d1d1d1"
     inkscape:document-units="mm"
     showgrid="false"
     inkscape:zoom="1.3788772"
     inkscape:cx="118.21212"
     inkscape:cy="89.928241"
     inkscape:current-layer="layer1" /><defs
     id="defs2" /><g
     inkscape:label="Camada 1"
     inkscape:groupmode="layer"
     id="layer1"
     transform="translate(-190.49996,26.479877)"><rect
       style="opacity:0.378223;fill:none;stroke-width:0.4375;stroke-linecap:round;stroke-linejoin:round;paint-order:stroke markers fill"
       id="rect3223"
       width="13.229167"
       height="13.229167"
       x="190.49997"
       y="-26.479877" /><path
       id="path2517"
       style="fill:#ffffff;fill-opacity:1;stroke-width:0.628362;stroke-linecap:round;stroke-linejoin:round;paint-order:stroke markers fill"
       d="m 197.11455,-23.886672 a 1.0265466,1.0265466 0 0 0 -1.02657,1.026568 1.0265466,1.0265466 0 0 0 1.02657,1.026567 1.0265466,1.0265466 0 0 0 1.02657,-1.026567 1.0265466,1.0265466 0 0 0 -1.02657,-1.026568 z m 0,3.005484 a 1.0265466,1.0265466 0 0 0 -1.02657,1.026568 1.0265466,1.0265466 0 0 0 1.02657,1.026562 1.0265466,1.0265466 0 0 0 1.02657,-1.026562 1.0265466,1.0265466 0 0 0 -1.02657,-1.026568 z m 0,2.984141 a 1.0265466,1.0265466 0 0 0 -1.02657,1.026568 1.0265466,1.0265466 0 0 0 1.02657,1.026561 1.0265466,1.0265466 0 0 0 1.02657,-1.026561 1.0265466,1.0265466 0 0 0 -1.02657,-1.026568 z"
       inkscape:export-filename="menumini.svg"
       inkscape:export-xdpi="96"
       inkscape:export-ydpi="96" /></g></svg>
