<!DOCTYPE svg PUBLIC "-//W3C//DTD SVG 1.1//EN" "http://www.w3.org/Graphics/SVG/1.1/DTD/svg11.dtd">
<!-- Uploaded to: SVG Repo, www.svgrepo.com, Transformed by: SVG Repo Mixer Tools -->
<svg fill="#ffffff" width="64px" height="64px" viewBox="0 0 256 256" id="Flat" xmlns="http://www.w3.org/2000/svg">
<g id="SVGRepo_bgCarrier" stroke-width="0"/>
<g id="SVGRepo_tracerCarrier" stroke-linecap="round" stroke-linejoin="round"/>
<g id="SVGRepo_iconCarrier"> <path d="M132,23.99219a100.113,100.113,0,0,0-100,100v84.33349a15.68449,15.68449,0,0,0,15.667,15.66651H132a100,100,0,0,0,0-200Zm-48.00195,116.001a12,12,0,1,1,12-12A12,12,0,0,1,83.99805,139.99316Zm48,0a12,12,0,1,1,12-12A12,12,0,0,1,131.99805,139.99316Zm48,0a12,12,0,1,1,12-12A12,12,0,0,1,179.99805,139.99316Z"/> </g>
</svg>