<?xml version="1.0" encoding="UTF-8" standalone="no"?>
<!-- Created with Inkscape (http://www.inkscape.org/) -->

<svg
   width="6.3499999mm"
   height="6.3499999mm"
   viewBox="0 0 6.3499998 6.3499999"
   version="1.1"
   id="svg1"
   xml:space="preserve"
   inkscape:version="1.2.2 (b0a8486541, 2022-12-01)"
   sodipodi:docname="private message.svg"
   xmlns:inkscape="http://www.inkscape.org/namespaces/inkscape"
   xmlns:sodipodi="http://sodipodi.sourceforge.net/DTD/sodipodi-0.dtd"
   xmlns="http://www.w3.org/2000/svg"
   xmlns:svg="http://www.w3.org/2000/svg"><sodipodi:namedview
     id="namedview1"
     pagecolor="#ffffff"
     bordercolor="#000000"
     borderopacity="0.25"
     inkscape:showpageshadow="2"
     inkscape:pageopacity="0.0"
     inkscape:pagecheckerboard="0"
     inkscape:deskcolor="#d1d1d1"
     inkscape:document-units="mm"
     inkscape:export-bgcolor="#ffffff00"
     inkscape:zoom="16.440233"
     inkscape:cx="15.206598"
     inkscape:cy="19.89023"
     inkscape:window-width="1327"
     inkscape:window-height="739"
     inkscape:window-x="0"
     inkscape:window-y="0"
     inkscape:window-maximized="1"
     inkscape:current-layer="layer1"
     showgrid="false" /><defs
     id="defs1" /><g
     inkscape:label="Camada 1"
     inkscape:groupmode="layer"
     id="layer1"
     transform="translate(-85.460422,-0.79374999)"><path
       id="path1-3"
       style="fill:#ffffff;stroke-width:0.352778"
       d="M 86.165805 0.79374999 C 85.776273 0.79384525 85.460517 1.1096008 85.460422 1.4991333 L 85.460422 5.0270833 C 85.460517 5.4166158 85.776273 5.7323713 86.165805 5.7324666 L 86.871705 5.7324666 L 86.871705 6.7908 C 86.87161 6.9855667 87.029372 7.1435602 87.224139 7.14375 C 87.317759 7.1437815 87.407546 7.106601 87.473736 7.0403971 L 88.781666 5.7324666 L 88.781666 5.0270833 L 88.635422 5.0270833 C 88.541802 5.0270518 88.452015 5.0642324 88.385825 5.1304362 L 87.577089 5.9391724 L 87.577089 5.3800334 C 87.577184 5.1850652 87.419106 5.0269881 87.224139 5.0270833 L 86.165805 5.0270833 L 86.165805 1.4991333 L 91.105039 1.4991333 L 91.105039 5.7324666 C 91.494571 5.7323713 91.810327 5.4166158 91.810422 5.0270833 L 91.810422 1.4991333 C 91.810327 1.1096008 91.494571 0.79384525 91.105039 0.79374999 L 86.165805 0.79374999 z M 87.224139 2.9104167 C 87.029372 2.9106065 86.87161 3.0686 86.871705 3.2633667 C 86.871895 3.4579316 87.029574 3.6156105 87.224139 3.6158 C 87.418905 3.6158952 87.576899 3.458133 87.577089 3.2633667 C 87.577184 3.0683986 87.419106 2.9103215 87.224139 2.9104167 z M 88.635422 2.9104167 C 88.440454 2.9103215 88.282377 3.0683986 88.282472 3.2633667 C 88.282662 3.458133 88.440655 3.6158952 88.635422 3.6158 C 88.830189 3.6158952 88.988182 3.458133 88.988372 3.2633667 C 88.988467 3.0683986 88.83039 2.9103215 88.635422 2.9104167 z M 90.046705 2.9104167 C 89.851738 2.9103215 89.69366 3.0683986 89.693755 3.2633667 C 89.693945 3.458133 89.851939 3.6158952 90.046705 3.6158 C 90.24127 3.6156105 90.398949 3.4579316 90.399139 3.2633667 C 90.399234 3.0686 90.241472 2.9106065 90.046705 2.9104167 z M 89.966607 4.1837239 C 89.958232 4.1837081 89.949657 4.1839696 89.941285 4.1842407 C 89.823104 4.1880707 89.705769 4.2206732 89.599704 4.2819092 C 89.373435 4.4125477 89.231251 4.6547028 89.231251 4.915979 A 0.22448302 0.22448302 0 0 0 89.456561 5.1407715 A 0.22448302 0.22448302 0 0 0 89.681353 4.915979 C 89.681353 4.8143825 89.733419 4.7213134 89.821396 4.6705159 C 89.909376 4.619719 90.017118 4.619719 90.1051 4.6705159 C 90.19308 4.7213149 90.248243 4.8143835 90.248243 4.915979 L 90.248243 5.2942505 L 89.587302 5.2942505 C 89.370417 5.2942505 89.195078 5.4685568 89.195078 5.6854411 L 89.195078 6.2574992 C 89.195078 6.4743834 89.370417 6.6492065 89.587302 6.6492065 L 90.506626 6.6492065 C 90.723511 6.6492065 90.897816 6.4743834 90.897816 6.2574992 L 90.897816 5.6854411 C 90.897816 5.5373048 90.815997 5.40935 90.695245 5.3428263 L 90.695245 4.9257975 A 0.22448302 0.22448302 0 0 0 90.695245 4.9252808 A 0.22448302 0.22448302 0 0 0 90.695245 4.924764 A 0.22448302 0.22448302 0 0 0 90.695245 4.9242472 A 0.22448302 0.22448302 0 0 0 90.695245 4.9237305 A 0.22448302 0.22448302 0 0 0 90.695245 4.9232137 A 0.22448302 0.22448302 0 0 0 90.695245 4.9226969 A 0.22448302 0.22448302 0 0 0 90.695245 4.9221802 A 0.22448302 0.22448302 0 0 0 90.695245 4.9216634 A 0.22448302 0.22448302 0 0 0 90.695245 4.9211466 A 0.22448302 0.22448302 0 0 0 90.695245 4.9206299 A 0.22448302 0.22448302 0 0 0 90.695245 4.9201131 A 0.22448302 0.22448302 0 0 0 90.695245 4.9195963 A 0.22448302 0.22448302 0 0 0 90.695245 4.9190796 A 0.22448302 0.22448302 0 0 0 90.695245 4.9185628 A 0.22448302 0.22448302 0 0 0 90.695245 4.9180461 A 0.22448302 0.22448302 0 0 0 90.695245 4.9175293 A 0.22448302 0.22448302 0 0 0 90.695245 4.9170125 A 0.22448302 0.22448302 0 0 0 90.695245 4.9164958 A 0.22448302 0.22448302 0 0 0 90.695245 4.915979 A 0.22448302 0.22448302 0 0 0 90.695245 4.9154622 A 0.22448302 0.22448302 0 0 0 90.695245 4.9149455 A 0.22448302 0.22448302 0 0 0 90.695245 4.9144287 A 0.22448302 0.22448302 0 0 0 90.695245 4.9139119 A 0.22448302 0.22448302 0 0 0 90.695245 4.9133952 A 0.22448302 0.22448302 0 0 0 90.695245 4.9128784 A 0.22448302 0.22448302 0 0 0 90.695245 4.9123616 A 0.22448302 0.22448302 0 0 0 90.695245 4.9118449 A 0.22448302 0.22448302 0 0 0 90.695245 4.9113281 A 0.22448302 0.22448302 0 0 0 90.695245 4.9108114 A 0.22448302 0.22448302 0 0 0 90.695245 4.9102946 A 0.22448302 0.22448302 0 0 0 90.695245 4.9097778 A 0.22448302 0.22448302 0 0 0 90.695245 4.9092611 A 0.22448302 0.22448302 0 0 0 90.695245 4.9087443 A 0.22448302 0.22448302 0 0 0 90.695245 4.9082275 A 0.22448302 0.22448302 0 0 0 90.695245 4.9077108 A 0.22448302 0.22448302 0 0 0 90.695245 4.907194 A 0.22448302 0.22448302 0 0 0 90.695245 4.9066772 A 0.22448302 0.22448302 0 0 0 90.695245 4.9061605 A 0.22448302 0.22448302 0 0 0 90.695245 4.9056437 A 0.22448302 0.22448302 0 0 0 90.695245 4.9051269 A 0.22448302 0.22448302 0 0 0 90.695245 4.9046102 A 0.22448302 0.22448302 0 0 0 90.695245 4.9040934 A 0.22448302 0.22448302 0 0 0 90.695245 4.9035767 A 0.22448302 0.22448302 0 0 0 90.695245 4.9030599 A 0.22448302 0.22448302 0 0 0 90.695245 4.9025431 A 0.22448302 0.22448302 0 0 0 90.695245 4.9020264 A 0.22448302 0.22448302 0 0 0 90.695245 4.9015096 A 0.22448302 0.22448302 0 0 0 90.695245 4.9009928 A 0.22448302 0.22448302 0 0 0 90.695245 4.9004761 A 0.22448302 0.22448302 0 0 0 90.695245 4.8999593 A 0.22448302 0.22448302 0 0 0 90.695245 4.8994425 C 90.689558 4.6445206 90.551887 4.4097819 90.330409 4.2819092 C 90.217719 4.2168455 90.092229 4.183961 89.966607 4.1837239 z " /></g></svg>
