<?xml version="1.0" encoding="UTF-8" standalone="no"?>
<!-- Created with Inkscape (http://www.inkscape.org/) -->

<svg
   width="32"
   height="32"
   viewBox="0 0 8.4666667 8.4666667"
   version="1.1"
   id="svg1"
   xml:space="preserve"
   xmlns="http://www.w3.org/2000/svg"
   xmlns:svg="http://www.w3.org/2000/svg"><defs
     id="defs1" /><path
     id="path2"
     style="fill:#ffffff;stroke-width:0.0675107"
     d="M 4.2436683,0 C 3.9988418,0 3.8585066,0.00671451 3.8585066,0.01791449 c 0,0.0093333 -0.031591,0.01791449 -0.069591,0.01791449 -0.1009333,0 -0.4454479,0.0632235 -0.6759277,0.12402343 C 1.9772826,0.45973209 0.96198887,1.2976482 0.43821611,2.3667803 0.24194966,2.7673799 0.09667599,3.2286762 0.04960937,3.6015025 0.03760938,3.6939023 0.0224694,3.768934 0.0144694,3.768934 0.00646941,3.768934 0,3.9778932 0,4.2333329 0,4.531026 0.00538117,4.6977318 0.01791449,4.6977318 c 0.0093333,0 0.01791449,0.022565 0.01791449,0.050299 0,0.027733 0.01580667,0.1386466 0.03513997,0.2459798 0.25173307,1.3941186 1.21407185,2.5846381 2.53765705,3.1391708 0.3604264,0.1509999 0.9418766,0.2976562 1.1802896,0.2976562 0.038,0 0.068901,0.00805 0.068901,0.017915 h 6.89e-4 c 0,0.010667 0.1396639,0.017915 0.3837836,0.017915 0.2112132,0 0.3844726,-0.00539 0.3844726,-0.01378 0,-0.008 0.082795,-0.023829 0.1839681,-0.035829 C 5.0306234,8.390924 5.3685292,8.3107893 5.6265289,8.223443 5.8458758,8.1491755 6.2926783,7.9353201 6.4843581,7.8127869 7.0289841,7.4645338 7.5308757,6.9532419 7.8582621,6.4133891 8.1363418,5.9548564 8.3502119,5.3634931 8.4156784,4.8720535 c 0.013333,-0.095733 0.029207,-0.1743217 0.037207,-0.1743217 0.008,0 0.01378,-0.2089725 0.01378,-0.4643989 0,-0.2554263 -0.00539,-0.4643989 -0.01378,-0.4643989 -0.008,0 -0.023873,-0.078521 -0.037207,-0.1743217 C 8.3410119,3.0362262 8.096119,2.4036834 7.7617994,1.9030706 7.5761862,1.6251242 7.5111046,1.5455411 7.2615716,1.2891546 6.7106788,0.72312856 6.038296,0.33262242 5.28891,0.14331596 5.058897,0.08518269 4.7785717,0.03596233 4.6743052,0.03582898 4.6333718,0.03569566 4.6104498,0.02911448 4.6171165,0.01791449 4.6237832,0.00724784 4.495788,0 4.2436683,0 Z m 0.068213,0.96944978 c 0.1775732,0.002667 0.3525516,0.0160295 0.4719781,0.037896 0.9177323,0.1681864 1.6750321,0.6634267 2.1903915,1.4310925 0.2060397,0.3069197 0.3967565,0.7731979 0.4754232,1.1630642 0.054667,0.271093 0.067805,0.8105484 0.026872,1.0900281 C 7.2622124,6.1531024 6.1145357,7.2861944 4.6563906,7.4751674 4.4681508,7.4998341 4.098902,7.5071258 3.9294755,7.490326 3.2451029,7.422326 2.605717,7.1468461 2.0808375,6.6938199 1.5423981,6.229087 1.1582892,5.5681077 1.014236,4.8568951 0.97836939,4.6786153 0.97358389,4.6010925 0.97358389,4.2333329 0.97371723,3.8663734 0.97890256,3.7881219 1.014236,3.6111487 1.2971557,2.2138703 2.4078524,1.1773468 3.8226776,0.99012035 3.9537443,0.97278701 4.134308,0.96624982 4.3118813,0.96944978 Z M 4.2333329,1.5861219 C 3.9511699,1.592581 3.7237135,1.8200364 3.7172576,2.102197 V 2.124245 C 3.104962,2.2409317 2.6520343,2.7943283 2.6520343,3.4423385 c 0,0.7304562 0.5759227,1.3070691 1.30638,1.3070691 h 0.5498373 c 0.1144173,0 0.2411566,0.1598226 0.2411566,0.2742295 0,0.1144173 -0.126716,0.2756076 -0.2411566,0.2756076 H 4.2333329 3.7172576 C 3.4220711,5.2872187 3.1747029,5.5199624 3.1681096,5.8153207 3.1751496,6.1103625 3.4223769,6.3420429 3.7172576,6.3300178 3.704791,6.6255124 3.9376467,6.8739612 4.2333329,6.880544 4.5290192,6.8739574 4.7618966,6.6255124 4.7494082,6.3300178 v -0.02136 c 0.6122452,-0.110608 1.0652234,-0.6363617 1.0652234,-1.2843315 0,-0.7304584 -0.575924,-1.34152 -1.30638,-1.34152 H 3.9584143 c -0.1144173,0 -0.2411567,-0.1253573 -0.2411567,-0.2397786 0,-0.1144173 0.126716,-0.2756076 0.2411567,-0.2756076 H 4.2333329 4.7494082 C 5.0446006,3.1794498 5.2919711,2.9467035 5.2985563,2.6513452 5.3113739,2.3427862 5.0579707,2.0894383 4.7494082,2.102197 4.7429488,1.8200364 4.5154961,1.5925812 4.2333329,1.5861219 Z" /><style
     type="text/css"
     id="style1">
	.st0{fill:none;stroke:#000000;stroke-width:2;stroke-linecap:round;stroke-linejoin:round;stroke-miterlimit:10;}
</style><style
     type="text/css"
     id="style1-3">
	.st0{fill:none;stroke:#000000;stroke-width:2;stroke-linecap:round;stroke-linejoin:round;stroke-miterlimit:10;}
</style></svg>
