<svg
   width="6.3503265mm"
   height="6.3499985mm"
   viewBox="0 0 6.3503265 6.3499985"
   version="1.1"
   id="svg1"
   xml:space="preserve"
   xmlns="http://www.w3.org/2000/svg"><defs
     id="defs1" />
     <g
     id="layer1"
     transform="translate(-129.11666,-76.199997)"><path
       d="m 132.74649,78.942499 c -0.007,-0.0083 -0.0127,-0.01714 -0.0206,-0.02508 h -0.001 c -0.24797,-0.243683 -0.6731,-0.220918 -0.89758,-2.7e-4 -0.22447,0.2206 -0.22383,0.661197 6.4e-4,0.88183 0.003,0.0032 0.006,0.0048 0.009,0.0076 0.008,0.0076 0.013,0.01714 0.0209,0.02508 h 9.5e-4 c 0.24797,0.243682 0.6731,0.221203 0.89758,3e-4 0.22447,-0.220601 0.22384,-0.661198 -6.4e-4,-0.88183 -0.003,-0.0032 -0.006,-0.0044 -0.009,-0.0073 m -1.36934,-0.466222 -0.44895,-0.441518 c -0.67342,0.662151 -0.64199,2.018265 0.0314,2.680097 l 0.44895,-0.441201 c -0.44895,-0.441232 -0.48038,-1.356145 -0.0314,-1.797378 m -0.8979,-0.88275 -0.44895,-0.441233 c -1.34716,1.323983 -1.09125,3.341962 0.0314,4.445027 l 0.44895,-0.441233 c -0.89789,-0.882433 -0.92932,-2.679811 -0.0314,-3.562561 m 3.14454,0.441232 -0.44894,0.441518 c 0.44894,0.441233 0.48038,1.356146 0.0314,1.797378 l 0.44894,0.441201 c 0.67343,-0.661832 0.64199,-2.017946 -0.0314,-2.680097 m 0.92933,3.562562 -0.44895,-0.441233 c 0.89822,-0.882433 0.86678,-2.679811 -0.0314,-3.562561 l 0.44895,-0.44155 c 1.12269,1.103382 1.37859,3.121361 0.0314,4.445026"
       id="path518"
       style="fill:#ffffff;fill-rule:evenodd;stroke:none;stroke-width:0.317501;"/>
    <animate
      attributeName="fill-opacity"
      values="0.1;1;0.1"
      dur="1s"
      type="rotate"
      repeatCount="indefinite" />
       </g>
       </svg>
