<?xml version="1.0" encoding="UTF-8" standalone="no"?>
<!-- Created with Inkscape (http://www.inkscape.org/) -->

<svg
   width="7.9375mm"
   height="7.9375mm"
   viewBox="0 0 7.9375 7.9375"
   version="1.1"
   id="svg5"
   xml:space="preserve"
   inkscape:version="1.2.1 (9c6d41e410, 2022-07-14)"
   sodipodi:docname="desenho.svg"
   xmlns:inkscape="http://www.inkscape.org/namespaces/inkscape"
   xmlns:sodipodi="http://sodipodi.sourceforge.net/DTD/sodipodi-0.dtd"
   xmlns="http://www.w3.org/2000/svg"
   xmlns:svg="http://www.w3.org/2000/svg"><sodipodi:namedview
     id="namedview7"
     pagecolor="#83838e"
     bordercolor="#000000"
     borderopacity="0.25"
     inkscape:showpageshadow="2"
     inkscape:pageopacity="0"
     inkscape:pagecheckerboard="0"
     inkscape:deskcolor="#d1d1d1"
     inkscape:document-units="mm"
     showgrid="false"
     inkscape:zoom="1.2771877"
     inkscape:cx="1025.2996"
     inkscape:cy="583.31285"
     inkscape:current-layer="layer1" /><defs
     id="defs2" /><g
     inkscape:label="Camada 1"
     inkscape:groupmode="layer"
     id="layer1"
     transform="translate(-113.99366,-79.233335)"><path
       id="path633"
       style="fill:#ffffff;stroke:none;stroke-width:0.106004;stroke-linecap:round;stroke-linejoin:round;paint-order:markers stroke fill"
       d="m 114.92748,79.233331 c -0.51734,0 -0.93382,0.416484 -0.93382,0.933822 v 6.069856 c 0,0.517338 0.41648,0.933822 0.93382,0.933822 h 6.06986 c 0.51734,0 0.93382,-0.416484 0.93382,-0.933822 v -6.069856 c 0,-0.517338 -0.41648,-0.933822 -0.93382,-0.933822 z m 0.57354,0.749982 h 4.92289 c 0.41958,0 0.75732,0.337746 0.75732,0.75732 v 4.922896 c 0,0.419574 -0.33774,0.757374 -0.75732,0.757374 h -4.92289 c -0.41958,0 -0.75738,-0.3378 -0.75738,-0.757374 v -4.922896 c 0,-0.419574 0.3378,-0.75732 0.75738,-0.75732 z m 0.16581,0.646668 v 0.663755 c 0,0.08187 0.0155,0.140496 0.0464,0.175896 0.0321,0.03432 0.073,0.05148 0.12282,0.05148 0.0509,0 0.0918,-0.01722 0.12282,-0.05148 0.0321,-0.0354 0.0481,-0.09403 0.0481,-0.175896 v -0.321935 h 0.36838 v 1.330913 h -0.22733 c -0.0819,0 -0.1405,0.01602 -0.1759,0.04812 -0.0343,0.03096 -0.0514,0.07139 -0.0514,0.121176 0,0.05088 0.0172,0.09238 0.0514,0.124458 0.0354,0.03096 0.094,0.04644 0.1759,0.04644 h 0.79654 c 0.0819,0 0.13996,-0.01548 0.17426,-0.04644 0.0354,-0.0321 0.0531,-0.07303 0.0531,-0.122814 0,-0.05088 -0.0177,-0.09184 -0.0531,-0.12282 -0.0343,-0.0321 -0.0924,-0.04812 -0.17426,-0.04812 h -0.22897 v -1.330913 h 0.37332 v 0.321935 c 0,0.08187 0.0155,0.140496 0.0465,0.175896 0.0321,0.03432 0.073,0.05148 0.12276,0.05148 0.0509,0 0.0918,-0.01722 0.12281,-0.05148 0.0321,-0.0354 0.0482,-0.09403 0.0482,-0.175896 v -0.662111 z m 2.31826,0.0276 c -0.1399,0 -0.25254,0.112626 -0.25254,0.252534 0,0.139908 0.11264,0.252534 0.25254,0.252534 h 2.0203 c 0.13991,0 0.25254,-0.112626 0.25254,-0.252534 0,-0.139908 -0.11263,-0.252534 -0.25254,-0.252534 z m 0,1.152881 c -0.1399,0 -0.25254,0.112632 -0.25254,0.252534 0,0.139908 0.11264,0.252534 0.25254,0.252534 h 2.0203 c 0.13991,0 0.25254,-0.112626 0.25254,-0.252534 0,-0.139902 -0.11263,-0.252534 -0.25254,-0.252534 z m -2.06572,1.152882 c -0.13991,0 -0.25254,0.112686 -0.25254,0.252588 0,0.139908 0.11263,0.252534 0.25254,0.252534 h 4.08602 c 0.13991,0 0.25254,-0.112626 0.25254,-0.252534 0,-0.139902 -0.11263,-0.252588 -0.25254,-0.252588 z m 0,1.152942 c -0.13991,0 -0.25254,0.11262 -0.25254,0.252528 0,0.139908 0.11263,0.252534 0.25254,0.252534 h 4.08602 c 0.13991,0 0.25254,-0.112626 0.25254,-0.252534 0,-0.139908 -0.11263,-0.252528 -0.25254,-0.252528 z m 0,1.152881 c -0.13991,0 -0.25254,0.112626 -0.25254,0.252528 0,0.139908 0.11263,0.252534 0.25254,0.252534 h 4.08602 c 0.13991,0 0.25254,-0.112626 0.25254,-0.252534 0,-0.139902 -0.11263,-0.252528 -0.25254,-0.252528 z" /></g></svg>
