<?xml version="1.0" encoding="UTF-8" standalone="no"?>
<!-- Created with Inkscape (http://www.inkscape.org/) -->

<svg
   width="7.9375mm"
   height="7.9375mm"
   viewBox="0 0 7.9375 7.9375"
   version="1.1"
   id="svg5"
   xml:space="preserve"
   inkscape:version="1.2.1 (9c6d41e410, 2022-07-14)"
   sodipodi:docname="desenho.svg"
   xmlns:inkscape="http://www.inkscape.org/namespaces/inkscape"
   xmlns:sodipodi="http://sodipodi.sourceforge.net/DTD/sodipodi-0.dtd"
   xmlns="http://www.w3.org/2000/svg"
   xmlns:svg="http://www.w3.org/2000/svg"><sodipodi:namedview
     id="namedview7"
     pagecolor="#83838e"
     bordercolor="#000000"
     borderopacity="0.25"
     inkscape:showpageshadow="2"
     inkscape:pageopacity="0"
     inkscape:pagecheckerboard="0"
     inkscape:deskcolor="#d1d1d1"
     inkscape:document-units="mm"
     showgrid="false"
     inkscape:zoom="5.1087508"
     inkscape:cx="427.69751"
     inkscape:cy="492.09681"
     inkscape:current-layer="layer1" /><defs
     id="defs2" /><g
     inkscape:label="Camada 1"
     inkscape:groupmode="layer"
     id="layer1"
     transform="translate(-114.01165,-130.6654)"><path
       id="path2812"
       style="fill:#ffffff;stroke:none;stroke-width:0.0510235;stroke-linecap:round;stroke-linejoin:round;paint-order:markers stroke fill"
       d="m 116.22443,130.66541 c -0.20774,0 -0.37517,0.16742 -0.37517,0.37517 0,0.20774 0.16743,0.37465 0.37517,0.37465 h 3.47576 c 0.20774,0 0.37517,-0.16691 0.37517,-0.37465 0,-0.20775 -0.16743,-0.37517 -0.37517,-0.37517 z m -0.22066,1.39681 c -0.33693,0 -0.60823,0.27132 -0.60823,0.60823 v 3.95325 c 0,0.33693 0.2713,0.60772 0.60823,0.60772 h 3.95325 c 0.33693,0 0.60771,-0.27079 0.60771,-0.60772 v -3.95325 c 0,-0.33691 -0.27078,-0.60823 -0.60771,-0.60823 z m 0.37362,0.48835 h 3.20601 c 0.27327,0 0.49299,0.22025 0.49299,0.49351 v 3.206 c 0,0.27325 -0.21972,0.49299 -0.49299,0.49299 h -3.20601 c -0.27326,0 -0.49351,-0.21974 -0.49351,-0.49299 v -3.206 c 0,-0.27326 0.22025,-0.49351 0.49351,-0.49351 z m -1.91513,0.14624 c -0.24967,0 -0.45061,0.20095 -0.45061,0.45062 v 2.92902 c 0,0.24966 0.20094,0.45062 0.45061,0.45062 h 0.63717 v -0.36174 h -0.36018 c -0.20249,0 -0.36587,-0.16339 -0.36587,-0.36587 v -2.37556 c 0,-0.20249 0.16338,-0.36536 0.36587,-0.36536 h 0.36018 v -0.36173 z m 6.39858,0 v 0.36173 h 0.3607 c 0.20249,0 0.36587,0.16287 0.36587,0.36536 v 2.37556 c 0,0.20248 -0.16338,0.36587 -0.36587,0.36587 h -0.3607 v 0.36174 h 0.63769 c 0.24967,0 0.45062,-0.20096 0.45062,-0.45062 v -2.92902 c 0,-0.24967 -0.20095,-0.45062 -0.45062,-0.45062 z m -1.29243,0.46767 c -0.0104,-1.2e-4 -0.021,5.8e-4 -0.0315,0.001 -0.26995,0.009 -0.53952,0.10768 -0.73329,0.29972 -0.16594,0.17028 -0.26385,0.39171 -0.3576,0.60668 -0.11675,0.27708 -0.21716,0.56151 -0.31419,0.84543 -0.0191,0.0518 -0.0855,0.0502 -0.12919,0.0517 -0.32918,0.0284 -0.66101,0.0418 -0.99064,0.0129 -0.0522,-0.008 -0.11027,-0.009 -0.15503,-0.0393 -0.0494,-0.06 -0.0643,-0.13915 -0.0879,-0.21136 -0.039,-0.14016 -0.0691,-0.28368 -0.0842,-0.4284 0.003,-0.0501 0.0589,-0.0758 0.10335,-0.0677 0.41082,-1.2e-4 0.82173,0.003 1.23248,-0.002 0.12496,-0.0136 0.22412,-0.14157 0.20257,-0.26614 -0.0145,-0.10723 -0.11102,-0.1969 -0.22014,-0.19895 -0.0831,-0.004 -0.1669,0.001 -0.25011,-5.2e-4 -0.46039,5.6e-4 -0.92049,-0.003 -1.3808,0.003 -0.12134,0.0145 -0.21863,0.13697 -0.19998,0.2589 0.0149,0.16037 0.0406,0.32018 0.0677,0.47956 0.0389,0.21205 0.0877,0.4241 0.17312,0.6227 0.0617,0.12675 0.17114,0.23857 0.31212,0.27078 0.19608,0.0559 0.40014,0.0587 0.60307,0.0625 0.3202,0.001 0.63894,-0.0174 0.95756,-0.046 0.069,-0.004 0.13842,-0.0306 0.18139,-0.0868 0.052,-0.0656 0.0631,-0.15141 0.0935,-0.22737 0.13972,-0.41077 0.28888,-0.8205 0.49351,-1.20406 0.0631,-0.10965 0.17044,-0.18843 0.28991,-0.22686 0.0925,-0.0329 0.191,-0.0392 0.28783,-0.047 0.1256,-0.0267 0.21226,-0.16974 0.17209,-0.293 -0.0261,-0.0912 -0.11336,-0.16401 -0.20464,-0.16743 -0.0103,-0.001 -0.0205,-0.001 -0.031,-0.002 z m 1.64228,0.3483 v 0.001 c -0.008,-9e-5 -0.0155,-3.4e-4 -0.0233,0 -0.11212,0.004 -0.2244,0.0285 -0.32659,0.0744 v 0.4253 c 0.0472,-0.0578 0.11245,-0.10015 0.18345,-0.12299 0.0686,-0.0243 0.14219,-0.0289 0.21394,-0.0346 0.0931,-0.0197 0.15689,-0.1257 0.12713,-0.21704 -0.0194,-0.0676 -0.0844,-0.12149 -0.15193,-0.12402 -0.008,-7.4e-4 -0.0149,-8.8e-4 -0.0227,-0.002 z m -6.21978,0.44752 c -0.0853,3.4e-4 -0.17052,0.001 -0.25579,0.002 -0.09,0.0107 -0.16161,0.10137 -0.1478,0.19172 0.011,0.11883 0.03,0.23743 0.0501,0.35553 0.0288,0.15712 0.0649,0.31431 0.12815,0.46147 0.0458,0.0939 0.12704,0.17664 0.23152,0.2005 0.0339,0.01 0.0679,0.0168 0.10231,0.0227 v -0.3607 c -0.001,-9.1e-4 -0.003,-0.002 -0.005,-0.003 -0.0366,-0.0445 -0.0476,-0.10308 -0.0651,-0.15658 -0.0289,-0.10386 -0.0513,-0.20954 -0.0625,-0.31678 0.002,-0.0371 0.0435,-0.0561 0.0765,-0.0501 h 0.0558 v -0.34726 c -0.0362,6e-5 -0.0723,-1.5e-4 -0.10852,0 z m 0.10852,1.32757 c -0.0646,0.0171 -0.12281,0.0662 -0.14624,0.1297 -0.0395,0.0956 0.004,0.21556 0.094,0.2651 0.0165,0.01 0.0339,0.0171 0.0522,0.0217 z m 1.83814,0.26148 c -0.006,3e-5 -0.0112,1.9e-4 -0.0171,5.2e-4 -0.10818,0.004 -0.21541,0.0806 -0.25373,0.18448 -0.0533,0.12901 0.005,0.29022 0.12661,0.35708 0.11523,0.0674 0.27525,0.0428 0.36173,-0.0599 0.0912,-0.10105 0.0965,-0.26709 0.009,-0.37207 -0.0542,-0.0681 -0.13919,-0.11053 -0.22634,-0.11007 z m 1.0697,0 c -0.006,3e-5 -0.0112,1.9e-4 -0.0171,5.2e-4 -0.10849,0.004 -0.21622,0.0811 -0.25424,0.18551 -0.0546,0.13281 0.009,0.29927 0.13797,0.36226 0.1167,0.0615 0.2733,0.0314 0.35605,-0.0724 0.0872,-0.10222 0.0895,-0.26497 0.003,-0.36794 -0.0546,-0.067 -0.13828,-0.10848 -0.22479,-0.108 z m -1.78284,2.30322 c -0.20774,0 -0.37517,0.16743 -0.37517,0.37517 0,0.20775 0.16743,0.37517 0.37517,0.37517 h 3.47576 c 0.20774,0 0.37517,-0.16742 0.37517,-0.37517 0,-0.20774 -0.16743,-0.37517 -0.37517,-0.37517 z" /></g></svg>
