<?xml version="1.0" encoding="UTF-8" standalone="no"?>
<!-- Created with Inkscape (http://www.inkscape.org/) -->

<svg
   width="7.9374924mm"
   height="7.9375534mm"
   viewBox="0 0 7.9374924 7.9375534"
   version="1.1"
   id="svg5"
   xml:space="preserve"
   inkscape:version="1.2.1 (9c6d41e410, 2022-07-14)"
   sodipodi:docname="desenho.svg"
   xmlns:inkscape="http://www.inkscape.org/namespaces/inkscape"
   xmlns:sodipodi="http://sodipodi.sourceforge.net/DTD/sodipodi-0.dtd"
   xmlns="http://www.w3.org/2000/svg"
   xmlns:svg="http://www.w3.org/2000/svg"><sodipodi:namedview
     id="namedview7"
     pagecolor="#83838e"
     bordercolor="#000000"
     borderopacity="0.25"
     inkscape:showpageshadow="2"
     inkscape:pageopacity="0"
     inkscape:pagecheckerboard="0"
     inkscape:deskcolor="#d1d1d1"
     inkscape:document-units="mm"
     showgrid="false"
     inkscape:zoom="1.2771877"
     inkscape:cx="1025.2996"
     inkscape:cy="583.31285"
     inkscape:current-layer="layer1" /><defs
     id="defs2" /><g
     inkscape:label="Camada 1"
     inkscape:groupmode="layer"
     id="layer1"
     transform="translate(-113.99367,-100.26153)"><path
       id="path1314"
       style="fill:#ffffff;stroke:none;stroke-width:0.069963;stroke-linecap:round;stroke-linejoin:round;paint-order:markers stroke fill"
       d="m 116.22423,100.26153 c -0.20775,0 -0.37486,0.16742 -0.37486,0.37516 0,0.20775 0.16711,0.37486 0.37486,0.37486 h 3.47606 c 0.20775,0 0.37518,-0.16711 0.37518,-0.37486 0,-0.20774 -0.16743,-0.37516 -0.37518,-0.37516 z m -0.26479,1.34936 c -0.34145,0 -0.6164,0.27497 -0.6164,0.6164 v 4.00596 c 0,0.34145 0.27495,0.61639 0.6164,0.61639 h 4.00596 c 0.34144,0 0.61638,-0.27495 0.61638,-0.61639 v -4.00596 c 0,-0.34144 -0.27494,-0.6164 -0.61638,-0.6164 z m 0.37858,0.49517 h 3.2491 c 0.27691,0 0.4995,0.2226 0.4995,0.4995 v 3.24942 c 0,0.27691 -0.22259,0.4995 -0.4995,0.4995 h -3.2491 c -0.27693,0 -0.49981,-0.22259 -0.49981,-0.4995 v -3.24942 c 0,-0.27691 0.22288,-0.4995 0.49981,-0.4995 z m -1.95182,0.33982 c -0.21745,0 -0.39253,0.1751 -0.39253,0.39254 v 2.55116 c 0,0.21745 0.17508,0.39254 0.39253,0.39254 h 0.8105 v -0.31533 h -0.56959 c -0.17635,0 -0.31843,-0.14176 -0.31843,-0.31812 v -2.06934 c 0,-0.17635 0.14208,-0.31812 0.31843,-0.31812 h 0.56959 v -0.31533 z m 6.34194,0 v 0.31533 h 0.56926 c 0.17636,0 0.31843,0.14178 0.31843,0.31812 v 2.06934 c 0,0.17636 -0.14207,0.31812 -0.31843,0.31812 h -0.56926 v 0.31533 h 0.81049 c 0.21744,0 0.39253,-0.17509 0.39253,-0.39254 v -2.55116 c 0,-0.21745 -0.17509,-0.39254 -0.39253,-0.39254 z m -2.76355,0.58353 c -0.0491,-3e-5 -0.0523,6e-4 -0.10914,0.0263 -0.0322,0.0144 -0.26312,0.12894 -0.51315,0.25456 l -0.45455,0.2282 -0.23998,0.005 c -0.29043,0.006 -0.31413,0.008 -0.35346,0.0353 -0.0367,0.0252 -0.047,0.0476 -0.0542,0.11937 -0.004,0.0355 -0.005,0.23702 -0.004,0.56834 0.002,0.54256 0.002,0.54433 0.027,0.58105 0.0148,0.0219 0.0548,0.0469 0.0843,0.0527 0.0125,0.002 0.13896,0.007 0.28092,0.0109 l 0.25827,0.006 0.51066,0.25704 0.51098,0.25704 0.0505,-0.002 c 0.032,-0.002 0.0585,-0.006 0.0719,-0.0121 0.0117,-0.005 0.0323,-0.0214 0.0459,-0.0359 0.0314,-0.0338 0.0352,-0.0518 0.0422,-0.19068 0.008,-0.15944 0.003,-2.01975 -0.005,-2.05135 -0.0102,-0.0377 -0.0424,-0.0799 -0.0729,-0.0955 -0.0225,-0.0115 -0.0335,-0.0133 -0.0769,-0.0133 z m 1.56114,0.2527 c -0.0334,1e-5 -0.0617,0.009 -0.0998,0.0338 -0.0258,0.0166 -0.0301,0.0222 -0.0375,0.0472 -0.005,0.0155 -0.0108,0.0613 -0.0136,0.10232 -0.006,0.0871 -0.006,0.94909 -6e-4,1.33883 0.005,0.30637 0.003,0.29464 0.0505,0.33052 0.0535,0.0401 0.11291,0.0496 0.16495,0.0266 0.0296,-0.0131 0.0619,-0.0422 0.0828,-0.0747 l 0.0164,-0.0254 -3.1e-4,-0.83499 -3.1e-4,-0.8353 -0.0223,-0.0319 c -0.0365,-0.0517 -0.0825,-0.0768 -0.13983,-0.0769 z m 1.73261,0.2282 c -0.0212,10e-6 -0.0389,0.006 -0.0633,0.0214 -0.0164,0.0106 -0.0191,0.0142 -0.0239,0.0301 -0.003,0.01 -0.007,0.039 -0.009,0.0651 -0.004,0.0554 -0.004,0.60445 -3e-4,0.85266 0.003,0.19511 0.002,0.18767 0.0322,0.21052 0.034,0.0256 0.072,0.0317 0.10511,0.017 0.0188,-0.008 0.0392,-0.0268 0.0524,-0.0475 l 0.0106,-0.0164 v -0.53175 l -3.1e-4,-0.53206 -0.0146,-0.0202 c -0.0233,-0.0329 -0.0522,-0.049 -0.0887,-0.049 z m -2.2439,0.0332 c -0.0577,-0.002 -0.1166,0.0281 -0.14882,0.0831 -0.0127,0.0215 -0.0142,0.0316 -0.0186,0.10697 -0.008,0.12856 -0.002,1.04127 0.006,1.06784 0.0131,0.0415 0.0551,0.0843 0.0998,0.10139 0.0299,0.0115 0.0992,0.008 0.12776,-0.007 0.0278,-0.0143 0.0589,-0.0458 0.0697,-0.0704 0.0125,-0.0282 0.0201,-0.51948 0.0136,-0.89049 -0.006,-0.32781 -0.003,-0.31004 -0.053,-0.35408 -0.0275,-0.0242 -0.0615,-0.0364 -0.0961,-0.0372 z m -3.81774,0.0202 -0.21953,0.10976 -0.15255,0.004 c -0.18496,0.004 -0.20035,0.005 -0.22541,0.0223 -0.0233,0.016 -0.0295,0.0306 -0.0341,0.0763 -0.002,0.0226 -0.004,0.15053 -0.002,0.36153 0.001,0.34553 0.001,0.34682 0.017,0.37022 0.009,0.014 0.0351,0.0298 0.0539,0.0335 0.008,0.002 0.0885,0.005 0.1789,0.007 l 0.16432,0.004 0.21953,0.11069 z m 5.73608,0.11286 c -0.0367,-0.001 -0.0738,0.0182 -0.0943,0.053 -0.008,0.0137 -0.01,0.0202 -0.0124,0.0682 -0.005,0.0819 -0.001,0.66304 0.004,0.67996 0.008,0.0264 0.0351,0.0539 0.0636,0.0648 0.019,0.007 0.0631,0.005 0.0812,-0.005 0.0176,-0.009 0.0374,-0.0293 0.0443,-0.0449 0.008,-0.0179 0.0125,-0.3305 0.008,-0.56678 -0.004,-0.20876 -0.002,-0.19768 -0.0335,-0.22573 -0.0174,-0.0153 -0.0391,-0.023 -0.0611,-0.0236 z m -2.43552,0.12775 c -0.005,-4e-5 -0.0115,-1e-5 -0.0176,6e-4 -0.0652,0.004 -0.1177,0.0406 -0.14418,0.0995 -0.01,0.0222 -0.0113,0.0389 -0.0149,0.17332 -0.002,0.082 -0.002,0.21636 -3e-4,0.29859 l 0.004,0.14975 0.017,0.035 c 0.0243,0.0493 0.0619,0.078 0.11441,0.0884 0.0259,0.005 0.049,0.003 0.0846,-0.008 0.0323,-0.0102 0.0749,-0.0484 0.0868,-0.0778 0.0155,-0.0385 0.0197,-0.16509 0.0143,-0.41982 -0.005,-0.26124 -0.004,-0.25358 -0.0484,-0.29673 -0.0312,-0.0304 -0.0566,-0.0419 -0.0958,-0.0422 z m -2.27303,3.64505 c -0.20775,0 -0.37486,0.16712 -0.37486,0.37486 0,0.20774 0.16711,0.37486 0.37486,0.37486 h 3.47606 c 0.20775,0 0.37518,-0.16712 0.37518,-0.37486 0,-0.20774 -0.16743,-0.37486 -0.37518,-0.37486 z" /></g></svg>
