<?xml version="1.0" encoding="UTF-8" standalone="no"?>
<!-- Created with Inkscape (http://www.inkscape.org/) -->

<svg
   width="7.9375mm"
   height="7.9375mm"
   viewBox="0 0 7.9375 7.9375"
   version="1.1"
   id="svg5"
   xml:space="preserve"
   inkscape:version="1.2.1 (9c6d41e410, 2022-07-14)"
   sodipodi:docname="desenho.svg"
   xmlns:inkscape="http://www.inkscape.org/namespaces/inkscape"
   xmlns:sodipodi="http://sodipodi.sourceforge.net/DTD/sodipodi-0.dtd"
   xmlns="http://www.w3.org/2000/svg"
   xmlns:svg="http://www.w3.org/2000/svg"><sodipodi:namedview
     id="namedview7"
     pagecolor="#83838e"
     bordercolor="#000000"
     borderopacity="0.25"
     inkscape:showpageshadow="2"
     inkscape:pageopacity="0"
     inkscape:pagecheckerboard="0"
     inkscape:deskcolor="#d1d1d1"
     inkscape:document-units="mm"
     showgrid="false"
     inkscape:zoom="1.2771877"
     inkscape:cx="1025.2996"
     inkscape:cy="583.31285"
     inkscape:current-layer="layer1" /><defs
     id="defs2" /><g
     inkscape:label="Camada 1"
     inkscape:groupmode="layer"
     id="layer1"
     transform="translate(-102.60565,-100.36511)"><path
       id="path1286"
       style="fill:#ffffff;stroke:none;stroke-width:0.106004;stroke-linecap:round;stroke-linejoin:round;paint-order:markers stroke fill"
       d="m 103.53955,100.36511 c -0.51734,0 -0.9339,0.41656 -0.9339,0.93389 v 6.06971 c 0,0.51734 0.41656,0.9339 0.9339,0.9339 h 6.06971 c 0.51734,0 0.93389,-0.41656 0.93389,-0.9339 V 101.299 c 0,-0.51733 -0.41655,-0.93389 -0.93389,-0.93389 z m 0.57361,0.75003 h 4.92279 c 0.41958,0 0.75717,0.33759 0.75717,0.75716 v 4.92311 c 0,0.41958 -0.33759,0.75717 -0.75717,0.75717 h -4.92279 c -0.41958,0 -0.75748,-0.33759 -0.75748,-0.75717 v -4.92311 c 0,-0.41957 0.3379,-0.75716 0.75748,-0.75716 z m 2.46465,1.3993 c -0.0743,-5e-5 -0.0792,0.001 -0.16525,0.0397 -0.0488,0.0218 -0.3988,0.19538 -0.77764,0.38571 l -0.68895,0.34603 -0.36338,0.007 c -0.44004,0.009 -0.47618,0.0126 -0.53579,0.0536 -0.0556,0.0382 -0.0709,0.0721 -0.0819,0.18077 -0.005,0.0538 -0.007,0.35932 -0.005,0.86134 0.003,0.82205 0.003,0.82461 0.0409,0.88025 0.0224,0.0332 0.0833,0.0713 0.12806,0.08 0.019,0.004 0.21032,0.011 0.4254,0.0161 l 0.39129,0.009 0.77391,0.38944 0.77423,0.38912 0.0766,-0.004 c 0.0484,-0.002 0.0884,-0.009 0.10883,-0.0183 0.0178,-0.008 0.0489,-0.0322 0.0695,-0.0542 0.0476,-0.0512 0.0536,-0.0786 0.0642,-0.28898 0.0122,-0.24157 0.005,-3.06045 -0.008,-3.10833 -0.0154,-0.0571 -0.0642,-0.12093 -0.11039,-0.14449 -0.0341,-0.0174 -0.0505,-0.0204 -0.11627,-0.0205 z m 2.36513,0.3826 c -0.0506,10e-6 -0.0933,0.0145 -0.151,0.0515 -0.0391,0.0251 -0.0458,0.0335 -0.0571,0.0713 -0.007,0.0235 -0.0162,0.0933 -0.0205,0.15534 -0.009,0.13192 -0.01,1.43789 -0.001,2.02841 0.007,0.46419 0.004,0.44636 0.0766,0.50074 0.081,0.0608 0.17106,0.0752 0.24991,0.0403 0.0449,-0.0199 0.0937,-0.0639 0.12527,-0.11317 l 0.0248,-0.0388 -3.1e-4,-1.26504 -3.2e-4,-1.26534 -0.0341,-0.0484 c -0.0554,-0.0783 -0.12493,-0.11671 -0.21177,-0.1169 z m -0.77452,0.39626 c -0.0874,-0.002 -0.17659,0.0426 -0.22542,0.12589 -0.0191,0.0326 -0.0218,0.0479 -0.0285,0.16215 -0.0113,0.19481 -0.003,1.57764 0.009,1.61789 0.0198,0.0628 0.0835,0.12754 0.15131,0.15348 0.0453,0.0173 0.15024,0.0115 0.19348,-0.0109 0.0421,-0.0217 0.0892,-0.0692 0.10573,-0.10635 0.019,-0.0427 0.0303,-0.78725 0.0205,-1.34937 -0.009,-0.49668 -0.005,-0.46998 -0.0803,-0.53672 -0.0416,-0.0367 -0.0933,-0.0548 -0.14573,-0.0561 z m -0.78383,0.39502 c -0.008,-6e-5 -0.0173,-4e-5 -0.0266,10e-4 -0.0987,0.006 -0.17817,0.0614 -0.21828,0.15068 -0.0151,0.0336 -0.0172,0.0594 -0.0226,0.26293 -0.003,0.12417 -0.003,0.32778 -3.2e-4,0.45238 l 0.006,0.22665 0.026,0.0533 c 0.0368,0.0746 0.0934,0.11828 0.17302,0.13394 0.0392,0.008 0.0746,0.004 0.12868,-0.0127 0.049,-0.0154 0.11313,-0.0732 0.13115,-0.11782 0.0236,-0.0583 0.03,-0.25029 0.0217,-0.63624 -0.008,-0.39581 -0.006,-0.3842 -0.0735,-0.44958 -0.0473,-0.046 -0.0858,-0.0638 -0.14511,-0.0642 z" /></g></svg>
