<?xml version="1.0" encoding="UTF-8" standalone="no"?>
<!-- Created with Inkscape (http://www.inkscape.org/) -->

<svg
   width="24"
   height="24"
   viewBox="0 0 6.3499997 6.3500002"
   version="1.1"
   id="svg5"
   xml:space="preserve"
   inkscape:version="1.3 (0e150ed6c4, 2023-07-21)"
   sodipodi:docname="tools.svg"
   xmlns:inkscape="http://www.inkscape.org/namespaces/inkscape"
   xmlns:sodipodi="http://sodipodi.sourceforge.net/DTD/sodipodi-0.dtd"
   xmlns="http://www.w3.org/2000/svg"
   xmlns:svg="http://www.w3.org/2000/svg"><sodipodi:namedview
     id="namedview7"
     pagecolor="#ffffff"
     bordercolor="#000000"
     borderopacity="0.25"
     inkscape:showpageshadow="2"
     inkscape:pageopacity="0.0"
     inkscape:pagecheckerboard="0"
     inkscape:deskcolor="#d1d1d1"
     inkscape:document-units="mm"
     showgrid="false"
     inkscape:zoom="15.409035"
     inkscape:cx="12.233083"
     inkscape:cy="10.156379"
     inkscape:current-layer="layer1"
     inkscape:window-width="1366"
     inkscape:window-height="715"
     inkscape:window-x="-8"
     inkscape:window-y="-8"
     inkscape:window-maximized="1" /><defs
     id="defs2" /><g
     inkscape:label="Camada 1"
     inkscape:groupmode="layer"
     id="layer1"
     transform="translate(-190.49996,26.479877)"><path
       id="rect7"
       style="fill:#ffffff;stroke:none;stroke-width:1.09866;stroke-linecap:round;stroke-linejoin:round;stroke-dasharray:none;paint-order:stroke fill markers"
       d="m 191.07529,-26.195057 c -0.31876,0 -0.57534,0.256581 -0.57534,0.575337 v 2.023622 c 0,0.318758 0.25658,0.575338 0.57534,0.575338 h 2.02433 c 0.31875,0 0.57533,-0.25658 0.57533,-0.575338 v -2.023622 c 0,-0.318756 -0.25658,-0.575337 -0.57533,-0.575337 z m 3.63882,0.867267 c -0.26188,0 -0.47305,0.21117 -0.47305,0.473055 v 1.662794 c 0,0.261886 0.21117,0.472345 0.47305,0.472345 h 1.6628 c 0.26189,0 0.47305,-0.210459 0.47305,-0.472345 v -1.662794 c 0,-0.261885 -0.21116,-0.473055 -0.47305,-0.473055 z m -2.10602,2.918592 c -0.20027,0 -0.36154,0.161263 -0.36154,0.361539 v 1.271423 c 0,0.200276 0.16127,0.361539 0.36154,0.361539 h 1.27142 c 0.20028,0 0.36155,-0.161263 0.36155,-0.361539 v -1.271423 c 0,-0.200276 -0.16127,-0.361539 -0.36155,-0.361539 z" /></g></svg>
