<?xml version="1.0" encoding="UTF-8" standalone="no"?>
<svg
   height="64px"
   width="64px"
   version="1.1"
   id="Icons"
   viewBox="0 0 32 32"
   xml:space="preserve"
   fill="#ffffff"
   stroke="none"
   xmlns="http://www.w3.org/2000/svg"
   xmlns:svg="http://www.w3.org/2000/svg"><defs
   id="defs2" />
    <g
   id="SVGRepo_bgCarrier"
   stroke-width="0" />
    <g
   id="SVGRepo_tracerCarrier"
   stroke="none"
   stroke-color="none"
   stroke-linecap="round"
   stroke-linejoin="round" />
    
<path
   id="path3456"
   style="color:#000000;fill:#ffffff;fill-opacity:1;stroke-width:1.39627;-inkscape-stroke:none"
   d="m 18.498682,4.9888409 v 6.5314681 l 1.399776,-1.015926 1.400506,1.015926 V 4.1346175 Z M 9.200949,5.0069894 C 7.385488,5.0109068 5.316813,5.3771755 2.935834,6.2105218 L 2,6.5380919 v 0.989957 19.3077251 l 1.71293,-0.398283 c 6.50454,-1.500785 8.482891,-0.365106 11.20259,0.916359 L 16,27.864691 v 6.92e-4 l 1.084466,-0.510855 c 2.719725,-1.281427 4.698063,-2.417133 11.202604,-0.916359 L 30,26.836478 V 7.52878 6.538823 L 29.064152,6.2112397 C 26.683133,5.3778934 24.614511,5.0119114 22.799051,5.0077203 c -0.361672,-8.36e-4 -0.712167,0.014101 -1.054177,0.040997 v 0.7020519 c 0.34056,-0.028593 0.690769,-0.044783 1.054177,-0.044 1.723375,0.00392 3.711074,0.3516199 6.033497,1.1645593 l 0.468994,0.1630735 V 7.5286497 25.958272 L 28.445077,25.759123 C 21.826476,24.232081 19.49225,25.447104 16.787201,26.72165 L 16,27.092528 v -7.6e-4 L 15.212798,26.720931 C 12.507697,25.446385 10.173484,24.23135 3.554923,25.758392 L 2.698445,25.95754 V 7.5279314 7.033684 L 3.167439,6.8706105 c 2.322383,-0.8129524 4.310135,-1.1608122 6.03351,-1.1645724 0.574462,-0.00125 1.119549,0.035383 1.637882,0.106148 2.073635,0.2828915 3.718699,1.1046438 5.09983,2.1732652 l 0.06137,0.047655 v 7.324e-4 l 0.06123,-0.047655 c 0.609035,-0.4712303 1.269289,-0.8937592 1.995061,-1.24393 V 5.9752466 C 17.309439,6.3086922 16.626439,6.7124069 15.999947,7.1629025 14.614952,6.1668874 12.957014,5.3954803 10.934011,5.1194956 10.382959,5.0442911 9.806042,5.0055138 9.200896,5.0069501 Z M 9.44988,7.0655547 C 7.963985,7.0616347 6.199757,7.3766085 4.09463,8.0677584 V 24.269253 c 5.506389,-1.108156 8.344952,-0.214203 10.717706,0.850698 V 8.9213551 C 13.633642,8.053775 12.32701,7.3701326 10.633912,7.1434747 10.260191,7.093469 9.865931,7.0668341 9.44988,7.0655284 Z m 13.100226,7.186e-4 c -0.278307,8.359e-4 -0.546052,0.01397 -0.805232,0.036819 v 5.3509397 l -1.846416,-1.187655 -1.842071,1.187655 V 8.3369277 C 17.757255,8.5191809 17.468699,8.7152218 17.187649,8.9220862 V 25.120682 c 2.372716,-1.064888 5.211305,-1.95884 10.717721,-0.850684 V 8.0685026 C 25.800203,7.3773527 24.036001,7.0621076 22.550106,7.0662987 Z" /></svg>
