<?xml version="1.0" encoding="UTF-8" standalone="no"?>
<!-- Created with Inkscape (http://www.inkscape.org/) -->

<svg
   width="64.000015"
   height="58.677429"
   viewBox="0 0 16.933337 15.52507"
   version="1.1"
   id="svg1"
   xml:space="preserve"
   xmlns:xlink="http://www.w3.org/1999/xlink"
   xmlns="http://www.w3.org/2000/svg"
   xmlns:svg="http://www.w3.org/2000/svg"><defs
     id="defs1"><linearGradient
       id="linearGradient11"><stop
         style="stop-color:#dd2080;stop-opacity:1;"
         offset="0"
         id="stop10" /><stop
         style="stop-color:#00dd88;stop-opacity:1;"
         offset="1"
         id="stop11" /></linearGradient><linearGradient
       id="linearGradient101"><stop
         style="stop-color:#ff00ff;stop-opacity:1"
         offset="0"
         id="stop101" /><stop
         style="stop-color:#00ffff;stop-opacity:1"
         offset="1"
         id="stop102" /></linearGradient><linearGradient
       xlink:href="#linearGradient101"
       id="linearGradient26"
       gradientUnits="userSpaceOnUse"
       x1="0.072134003"
       y1="22.339701"
       x2="23.991274"
       y2="1" /><linearGradient
       xlink:href="#linearGradient101"
       id="linearGradient27"
       gradientUnits="userSpaceOnUse"
       x1="0.072134003"
       y1="22.339701"
       x2="23.991274"
       y2="1" /><linearGradient
       xlink:href="#linearGradient11"
       id="linearGradient28"
       gradientUnits="userSpaceOnUse"
       gradientTransform="translate(-48.67785,-71.848531)"
       x1="0.072134003"
       y1="22.339701"
       x2="23.991274"
       y2="1" /><linearGradient
       xlink:href="#linearGradient101"
       id="linearGradient29"
       gradientUnits="userSpaceOnUse"
       x1="0.072134003"
       y1="22.339701"
       x2="23.991274"
       y2="1" /><linearGradient
       xlink:href="#linearGradient11"
       id="linearGradient30"
       gradientUnits="userSpaceOnUse"
       x1="0.60995334"
       y1="23.569002"
       x2="23.991274"
       y2="1" /></defs><g
     id="layer1"
     transform="translate(-62.285695,-204.67821)"><g
       style="opacity:1;fill:url(#linearGradient30);fill-opacity:1"
       id="g26"
       transform="matrix(0.70581351,0,0,0.70581351,96.64315,254.68405)"><g
         id="g23"
         stroke-width="0"
         style="fill:url(#linearGradient26);fill-opacity:1" /><g
         id="g24"
         stroke-linecap="round"
         stroke-linejoin="round"
         style="fill:url(#linearGradient27);fill-opacity:1" /><g
         id="g25"
         style="fill:url(#linearGradient29);fill-opacity:1"><path
           fill-rule="evenodd"
           clip-rule="evenodd"
           d="m -24.87845,-53.478131 0.0019,0.0026 c 0.3294,0.4302 0.4875,1.8586 -1.7755,1.6049 -0.6662,-0.0746 -1.5976,-0.2064 -2.717,-0.6308 -0.7537,-0.2858 -1.4102,-0.6445 -1.9504,-0.9949 -0.8885,0.3576 -1.8466,0.5774 -2.8471,0.6335 -1.3677,1.8298 -3.5511,3.0143 -6.01129,3.0143 -0.80849,0 -1.58866,-0.1283 -2.32028,-0.3661 -0.43957,0.2552 -0.93939,0.5037 -1.49184,0.7132 -1.11938,0.4244 -2.0484,0.5826 -2.71697,0.6308 -0.50064,0.0361 -0.85269,0.0104 -1.026822,-0.0098 -0.381657,-0.0442 -0.724574,-0.2617 -0.871964,-0.6284 -0.129323,-0.3218 -0.08254,-0.6878 0.123403,-0.9669 0.252655,-0.3445 0.484902,-0.7055 0.704435,-1.0717 0.428118,-0.7143 0.847948,-1.4844 0.954208,-2.3222 -0.5457,-1.0406 -0.85417,-2.225 -0.85417,-3.4789 0,-2.9942 1.75455,-5.57853 4.29158,-6.78104 1.00985,-3.866 4.52596,-6.71896 8.70841,-6.71896 4.9706,0 9,4.02944 9,9 0,1.3736 -0.3084,2.6778 -0.8605,3.8448 -0.1903,1.7239 0.6762,3.1756 1.6599,4.5256 z m -16.79939,-8.3704 c 0,-3.86599 3.13399,-7 6.99999,-7 3.866,0 7,3.13401 7,7 0,1.1198 -0.2622,2.1756 -0.7277,3.1118 -0.0481,0.0967 -0.0802,0.2006 -0.0951,0.3076 -0.2188,1.5749 0.1506,3.0106 0.905,4.3889 -1.092,-0.2632 -2.1211,-0.7452 -3.03,-1.4048 -0.2976,-0.216 -0.6897,-0.2512 -1.021,-0.0918 -0.916,0.4408 -1.9433,0.6883 -3.0312,0.6883 -3.866,0 -6.99999,-3.134 -6.99999,-7 z m -1.99648,0.2543 c 0.11536,4.1586 3.05176,7.6121 6.96387,8.5152 -0.9461,0.7694 -2.1529,1.2305 -3.46739,1.2305 -0.72931,0 -1.42312,-0.1414 -2.0573,-0.3974 -0.30124,-0.1216 -0.64278,-0.0893 -0.91587,0.0866 -0.43887,0.2828 -0.96068,0.5651 -1.54804,0.7878 -0.38988,0.1478 -0.74617,0.2546 -1.06434,0.3313 0.33232,-0.6071 0.66886,-1.3304 0.82398,-2.0112 0.07659,-0.3361 0.11876,-0.6632 0.13781,-0.9705 0.01223,-0.1973 -0.03433,-0.3939 -0.1338,-0.5648 -0.47187,-0.8108 -0.74244,-1.7532 -0.74244,-2.7618 0,-1.7096 0.77999,-3.237 2.00352,-4.2457 z"
           fill="#ffffff"
           id="path24"
           style="fill:url(#linearGradient28);fill-opacity:1" /></g></g></g></svg>
