<?xml version="1.0" encoding="UTF-8" standalone="no"?>
<!-- Created with Inkscape (http://www.inkscape.org/) -->

<svg
   width="6.3768716mm"
   height="6.324162mm"
   viewBox="0 0 6.3768715 6.324162"
   version="1.1"
   id="svg1"
   xml:space="preserve"
   xmlns:inkscape="http://www.inkscape.org/namespaces/inkscape"
   xmlns:sodipodi="http://sodipodi.sourceforge.net/DTD/sodipodi-0.dtd"
   xmlns="http://www.w3.org/2000/svg"
   xmlns:svg="http://www.w3.org/2000/svg"><sodipodi:namedview
     id="namedview1"
     pagecolor="#ffffff"
     bordercolor="#000000"
     borderopacity="0.25"
     inkscape:showpageshadow="2"
     inkscape:pageopacity="0.0"
     inkscape:pagecheckerboard="0"
     inkscape:deskcolor="#d1d1d1"
     inkscape:document-units="mm"
     inkscape:export-bgcolor="#ffffff00" /><defs
     id="defs1" /><g
     inkscape:label="Camada 1"
     inkscape:groupmode="layer"
     id="layer1"
     transform="translate(-241.55116,-0.80666912)"><path
       id="path1-5"
       style="color:#000000;clip-rule:evenodd;fill:#00DD88;fill-rule:evenodd;stroke-linecap:round;stroke-linejoin:round;-inkscape-stroke:none"
       d="m 244.74063,0.80666911 c -1.75549,0 -3.18947,1.41823659 -3.18947,3.16208089 0,1.7438479 1.43398,3.1620809 3.18947,3.1620809 1.75548,0 3.1874,-1.4182304 3.1874,-3.1620809 0,-0.8390856 -0.33729,-1.6440526 -0.93534,-2.236556 -0.59806,-0.5925069 -1.4074,-0.9255249 -2.25206,-0.92552489 z m 0,0.62321779 c 0.68159,0 1.33324,0.2674828 1.81436,0.7441406 0.48113,0.4766692 0.75241,1.1217883 0.75241,1.7947225 0,1.4047994 -1.14406,2.5388631 -2.56677,2.5388631 -1.42272,0 -2.56625,-1.134061 -2.56625,-2.5388631 0,-1.4047976 1.14353,-2.5388631 2.56625,-2.5388631 z m -5.2e-4,0.197404 c -0.17462,0 -0.31626,0.1367316 -0.31626,0.3054077 v 0.298173 c -0.10901,0.016966 -0.22729,0.046782 -0.34003,0.1018026 -0.1291,0.06301 -0.25489,0.15998 -0.34623,0.3054077 -0.0894,0.1423873 -0.13383,0.3126691 -0.13539,0.5059122 -3e-5,0.00349 -5.2e-4,0.00683 -5.2e-4,0.010335 h 5.2e-4 c -0.005,0.2483309 0.11028,0.4859987 0.31419,0.638204 0.34925,0.3288997 0.76942,0.4914354 1.00976,0.6144327 0.13407,0.068617 0.21052,0.1212639 0.25631,0.1736329 0.0358,0.041007 0.0636,0.09338 0.0636,0.1948201 0,0.1308002 -0.0582,0.2016223 -0.15193,0.2547648 -0.10829,0.061409 -0.25154,0.086101 -0.34934,0.086816 -0.14833,-0.00842 -0.28917,-0.076505 -0.38757,-0.1927531 -0.10059,-0.1188683 -0.1469,-0.2755599 -0.12557,-0.4320149 0.0228,-0.167206 -0.0992,-0.3211007 -0.27234,-0.3431316 -0.17313,-0.022031 -0.3317,0.095787 -0.3545,0.2630331 -0.0439,0.3216657 0.0508,0.6478036 0.26304,0.8986531 0.1466,0.173197 0.34004,0.2996342 0.55603,0.3658692 v 0.3281453 c 0,0.168672 0.14164,0.3054077 0.31626,0.3054077 0.17462,0 0.31626,-0.1367357 0.31626,-0.3054077 V 5.692159 c 0.11723,-0.026397 0.24145,-0.069511 0.3576,-0.1353922 0.24878,-0.1411029 0.46458,-0.3941599 0.46458,-0.7813477 0,-0.2373705 -0.0754,-0.4316789 -0.21291,-0.5891113 -0.12766,-0.1460711 -0.29486,-0.2433317 -0.44339,-0.3193604 -0.3212,-0.1643552 -0.6111,-0.2676211 -0.87539,-0.5219319 -0.0121,-0.011687 -0.0254,-0.022387 -0.0393,-0.032039 -0.046,-0.031763 -0.0755,-0.086861 -0.0734,-0.1483114 1.2e-4,-0.00342 0,-0.00691 0,-0.010335 0,-0.1078286 0.0237,-0.1672107 0.0439,-0.199471 0.0199,-0.031792 0.0487,-0.056425 0.0909,-0.076998 0.0979,-0.047808 0.2349,-0.057878 0.37103,-0.057878 0.004,0 0.007,-3.99e-4 0.0109,-5.168e-4 0.002,-8.25e-5 0.005,1.374e-4 0.007,0 0.13756,-0.00768 0.27341,0.045987 0.36949,0.1498617 0.0965,0.1043062 0.1423,0.2479294 0.12144,0.3911906 -0.0243,0.1670429 0.0964,0.3217018 0.26923,0.3451986 0.17294,0.023497 0.33276,-0.092931 0.35708,-0.2599325 0.0465,-0.3190757 -0.0538,-0.643617 -0.27595,-0.883667 -0.14637,-0.1582223 -0.33577,-0.2684465 -0.54312,-0.3203939 v -0.309025 c 0,-0.1686761 -0.14164,-0.3054077 -0.31626,-0.3054077 z" /></g></svg>
