<?xml version="1.0" encoding="UTF-8" standalone="no"?>
<!-- Created with Inkscape (http://www.inkscape.org/) -->

<svg
   width="112.3348"
   height="32.000004"
   viewBox="0 0 29.721915 8.4666677"
   version="1.1"
   id="svg1"
   xml:space="preserve"
   xmlns="http://www.w3.org/2000/svg"
   xmlns:svg="http://www.w3.org/2000/svg"><defs
     id="defs1" /><g
     id="layer1"
     transform="translate(131.24253,-14.025711)"><path
       id="path5"
       style="color:#000000;fill:#ffffff;fill-opacity:1;stroke-width:0.0504815;stroke-linecap:round;stroke-linejoin:round;-inkscape-stroke:none"
       d="m -126.03344,14.025953 c -0.13339,0.0032 -0.2675,0.03869 -0.39034,0.109604 l -4.40657,2.543718 c -0.39308,0.226946 -0.52928,0.736373 -0.30233,1.129454 l 2.54371,4.406583 c 0.0669,0.115813 0.15873,0.208525 0.26443,0.277067 -0.0667,-0.371276 -0.0931,-0.793416 -0.0831,-1.318104 0.0103,-0.537661 0.0441,-0.863057 0.15483,-1.481899 0.14243,-0.795913 0.4226,-1.608498 0.72364,-2.100004 0.17139,-0.279844 0.25837,-0.392107 0.34226,-0.441269 0.12379,-0.07254 0.42964,-0.05114 0.74808,0.05256 0.13152,0.04283 0.39884,0.185185 0.52357,0.278697 0.13422,0.100625 0.32453,0.288804 0.44453,0.439232 0.22988,0.288168 0.4077,0.689239 0.46001,1.039 0.008,0.05646 0.0233,0.136571 0.033,0.177649 0.0124,0.05282 0.0138,0.0816 0.004,0.09901 -0.007,0.01354 -0.0271,0.07249 -0.044,0.130791 -0.0471,0.162247 -0.19315,0.544551 -0.28562,0.747673 -0.0517,0.113578 -0.21228,0.419209 -0.28318,0.539058 -0.22293,0.376844 -0.37292,0.599913 -0.61158,0.910653 -0.094,0.122403 -0.24166,0.291634 -0.37975,0.442899 l 3.52445,-2.034403 c 0.39308,-0.226944 0.52928,-0.736374 0.30233,-1.129455 l -2.54372,-4.406583 c -0.15601,-0.270244 -0.44566,-0.418989 -0.73911,-0.411933 z m -0.43434,1.207277 c 0.20308,-0.001 0.40575,0.02633 0.56432,0.08149 0.28709,0.09984 0.56009,0.27635 0.77171,0.499127 0.27856,0.293254 0.51122,0.767677 0.60221,1.228466 0.0307,0.155568 0.0395,0.668058 0.0143,0.834052 -0.0101,0.06704 -0.0191,0.108768 -0.02,0.09249 -0.003,-0.0613 -0.0917,-0.388876 -0.14301,-0.529686 -0.0704,-0.193015 -0.21749,-0.475608 -0.31578,-0.606287 -0.13773,-0.183131 -0.41483,-0.448314 -0.61403,-0.587545 -0.13959,-0.09757 -0.34058,-0.210808 -0.46857,-0.264436 -0.11445,-0.04796 -0.43663,-0.144516 -0.48283,-0.144645 -0.009,-2.4e-5 -0.0165,0.03392 -0.0196,0.08923 -0.006,0.107778 -0.0308,0.147702 -0.11816,0.191502 -0.10158,0.05092 -0.19793,0.05012 -0.44453,-0.0041 -0.11644,-0.02561 -0.25048,-0.05804 -0.29784,-0.07212 -0.0824,-0.02448 -0.27952,-0.111269 -0.27952,-0.123051 0,-0.01477 0.0477,-0.09572 0.099,-0.16787 0.12813,-0.180165 0.35952,-0.349746 0.58591,-0.42986 0.15997,-0.05661 0.36327,-0.08545 0.56636,-0.08638 z m 16.38075,0.529687 c 0.027,0.398217 0.0428,0.796429 0.0481,1.194647 0.005,0.392837 0.0188,0.763779 0.0403,1.113563 -0.13991,0.02153 -0.26079,0.03536 -0.36304,0.04075 -0.0969,0 -0.20195,0.0024 -0.31495,0.0077 v 0.411933 h 0.13731 0.20168 c 0.07,-0.0054 0.13476,-0.0081 0.19395,-0.0081 h 0.13731 c 0,0.36593 0.002,0.707649 0.008,1.025147 0.005,0.317497 0.0216,0.659218 0.0485,1.025147 0,0.03767 0.008,0.06453 0.0245,0.08067 0.0108,0.01077 0.0617,0.01866 0.1532,0.02404 0.0915,0.0054 0.19381,0.01092 0.30682,0.0163 h 0.3227 c 0.10224,-0.0054 0.17216,-0.01092 0.20983,-0.0163 0.005,-0.03229 0.003,-0.10734 -0.008,-0.225728 -0.005,-0.118389 -0.0137,-0.255874 -0.0245,-0.411933 -0.0108,-0.156057 -0.0242,-0.322766 -0.0403,-0.50035 -0.0161,-0.177583 -0.0296,-0.341523 -0.0403,-0.492201 -0.005,-0.150676 -0.008,-0.277499 -0.008,-0.379744 0,-0.102254 0.008,-0.158745 0.024,-0.1695 0.0269,-0.02153 0.0779,-0.03732 0.1532,-0.04808 0.0807,-0.01075 0.16448,-0.0163 0.25059,-0.0163 0.0915,-0.0054 0.1776,-0.0081 0.25832,-0.0081 0.0807,-0.0054 0.13722,-0.0081 0.1695,-0.0081 0.0108,-0.01614 0.0159,-0.07263 0.0159,-0.1695 0.005,-0.102243 0.008,-0.199029 0.008,-0.290512 -0.0753,0 -0.1429,0.0028 -0.2021,0.0081 -0.0592,0 -0.12358,0.0028 -0.19353,0.0081 -0.0646,0.0054 -0.13727,0.01328 -0.21799,0.02404 -0.0807,0.01076 -0.17751,0.01906 -0.29051,0.02445 -0.005,-0.365928 -0.0161,-0.740047 -0.0322,-1.12212 -0.0108,-0.387455 -0.0163,-0.7667 -0.0163,-1.138011 z m -9.88802,0.314552 c -0.1722,0 -0.33378,0.0083 -0.48446,0.02445 -0.15068,0.01075 -0.31185,0.01589 -0.48405,0.01589 v 2.260131 c 0.005,0.726478 0.008,1.46641 0.008,2.219794 v 0.05663 c 0.005,0.01614 0.008,0.03234 0.008,0.04849 0.1722,0 0.34957,-0.0055 0.53254,-0.0163 0.18296,-0.01076 0.35797,-0.03486 0.52479,-0.07253 0.0106,-0.03229 0.0135,-0.09944 0.008,-0.201689 -0.005,-0.102245 -0.0137,-0.212868 -0.0245,-0.331257 -0.0108,-0.118388 -0.0214,-0.231372 -0.0322,-0.339 -0.0108,-0.107626 -0.0163,-0.182678 -0.0163,-0.225727 0.0538,-0.02153 0.0918,-0.03773 0.11328,-0.04849 0.0807,0.0861 0.1613,0.182887 0.24202,0.290513 0.0807,0.107627 0.16131,0.217844 0.24203,0.33085 0.0807,0.107627 0.16171,0.215482 0.24243,0.323108 0.0807,0.102245 0.15854,0.193495 0.23388,0.274215 0.20449,0.0054 0.40359,0.01091 0.59732,0.0163 0.19373,0.01076 0.38494,0.0025 0.57328,-0.02445 -0.07,-0.16682 -0.16161,-0.322865 -0.27462,-0.468161 -0.10762,-0.145297 -0.22338,-0.285143 -0.34715,-0.419675 -0.12376,-0.134533 -0.25295,-0.263717 -0.38748,-0.387486 -0.12915,-0.129151 -0.25003,-0.263463 -0.36304,-0.403377 -0.07,-0.07534 -0.11538,-0.14526 -0.1369,-0.209837 -0.0161,-0.06996 0.002,-0.150952 0.0562,-0.242433 0.13991,-0.231397 0.27739,-0.454597 0.41193,-0.66985 0.13453,-0.215253 0.26608,-0.430557 0.39523,-0.64581 h -0.91188 c -0.10224,0.123771 -0.1939,0.266385 -0.27462,0.427823 -0.0753,0.16144 -0.16936,0.304054 -0.28236,0.427824 l -0.0725,-0.02404 c -0.0161,-0.322879 -0.0323,-0.6484 -0.0485,-0.97666 -0.0161,-0.328261 -0.0323,-0.664852 -0.0485,-1.009257 z m -7.74076,0.04156 h 4.1e-4 c 0.0555,-2.01e-4 0.14694,0.0491 0.19558,0.105937 0.0575,0.06722 0.0994,0.178731 0.0937,0.249768 -0.004,0.04733 -8.5e-4,0.05448 0.0216,0.05501 0.0141,2.06e-4 0.0895,0.01924 0.16746,0.04197 0.24799,0.07234 0.45734,0.219244 0.54354,0.380966 0.0231,0.04338 0.0399,0.08072 0.0375,0.08312 -0.007,0.0071 -0.17289,-0.05118 -0.32515,-0.114086 -0.21153,-0.0874 -0.33929,-0.114686 -0.53905,-0.115716 -0.15464,-7.89e-4 -0.17191,0.0014 -0.23918,0.033 -0.17544,0.08225 -0.26769,0.255848 -0.22409,0.421712 0.0102,0.0388 0.0172,0.07195 0.0155,0.07375 -0.002,0.0018 -0.0393,-0.03423 -0.0831,-0.07986 -0.12751,-0.132782 -0.20711,-0.330508 -0.20658,-0.512982 2e-4,-0.07711 0.0299,-0.209963 0.0595,-0.267288 0.0782,-0.151279 0.35339,-0.353824 0.48242,-0.355297 z m 25.10918,1.711295 c -0.12512,0.002 -0.25637,0.0311 -0.3936,0.0876 -0.17758,0.06996 -0.35495,0.180174 -0.53254,0.33085 -0.0108,-0.05381 -0.0214,-0.102002 -0.0322,-0.145052 -0.0108,-0.04305 -0.0218,-0.09442 -0.0326,-0.15361 -0.15606,0.0269 -0.32277,0.04864 -0.50035,0.06479 -0.1722,0.01614 -0.33614,0.03747 -0.4922,0.06438 -0.0108,0.188346 -0.0163,0.398523 -0.0163,0.629919 v 0.693889 c 0.005,0.231397 0.008,0.457366 0.008,0.677999 0.005,0.215253 0.008,0.403695 0.008,0.565134 0,0.03767 0.0593,0.0594 0.17765,0.06479 0.11839,0.0054 0.25034,0.0054 0.39563,0 0.1453,-0.0054 0.27684,-0.01091 0.39523,-0.0163 l 0.1638,-0.01507 c -8.8e-4,-0.0048 -10e-4,-0.0032 -0.002,-0.009 -0.005,-0.06458 -0.0137,-0.161769 -0.0245,-0.290921 -0.005,-0.134532 -0.008,-0.28781 -0.008,-0.460012 0.005,-0.172202 0.0161,-0.33891 0.0322,-0.50035 0.0215,-0.166822 0.0539,-0.312204 0.097,-0.435972 0.0484,-0.123775 0.11005,-0.201592 0.18539,-0.233878 0.18834,-0.07533 0.33649,-0.09154 0.44412,-0.04849 0.11301,0.04305 0.19913,0.123636 0.25832,0.242026 0.0592,0.113007 0.0967,0.252853 0.11287,0.419674 0.0161,0.166821 0.0216,0.336297 0.0163,0.508499 0,0.172203 -0.005,0.333784 -0.0163,0.48446 -0.0106,0.145295 -0.0131,0.258278 -0.008,0.338999 0.0861,0.0054 0.17458,0.0081 0.26606,0.0081 0.0915,0.0054 0.17484,0.0054 0.25018,0 0.0753,0 0.14013,-0.0028 0.19394,-0.0081 0.0538,-0.0054 0.0886,-0.01605 0.10472,-0.03219 0.0215,-0.01615 0.0326,-0.07264 0.0326,-0.1695 0.005,-0.09686 0.003,-0.212616 -0.008,-0.347149 -0.005,-0.134532 -0.016,-0.282682 -0.0322,-0.444121 -0.0161,-0.16144 -0.0351,-0.314717 -0.0566,-0.460013 -0.0215,-0.150676 -0.0429,-0.284986 -0.0644,-0.403376 -0.0215,-0.118388 -0.0405,-0.20215 -0.0566,-0.250582 -0.0753,-0.236778 -0.17766,-0.41415 -0.30681,-0.532539 -0.12915,-0.123771 -0.27453,-0.196461 -0.43597,-0.217986 -0.0404,-0.0054 -0.0813,-0.0076 -0.12305,-0.0069 z m -0.85157,2.849306 c 0.009,0.04875 0.0139,0.05268 0.0139,-0.0012 z m -12.38692,-2.66799 c -0.0575,0.002 -0.11561,0.0084 -0.1748,0.01915 -0.23678,0.03767 -0.47105,0.132093 -0.70245,0.282771 -0.23139,0.150676 -0.41984,0.328049 -0.56513,0.532538 -0.07,0.09686 -0.12922,0.209848 -0.17765,0.339 -0.0484,0.123771 -0.0832,0.252952 -0.10472,0.387486 -0.0161,0.129151 -0.0161,0.261103 0,0.395635 0.0161,0.129153 0.0564,0.244904 0.12102,0.347148 0.07,0.113007 0.16397,0.201896 0.28236,0.266473 0.11839,0.06457 0.24521,0.109996 0.37975,0.136904 0.13453,0.03229 0.26884,0.04336 0.40337,0.0326 0.13454,-0.0054 0.25029,-0.02435 0.34715,-0.05664 0.0753,-0.02691 0.1346,-0.05377 0.17765,-0.08067 0.043,-0.02691 0.0833,-0.05654 0.12101,-0.08882 0.0431,-0.03228 0.0861,-0.06745 0.12916,-0.105122 0.0484,-0.03767 0.11047,-0.08073 0.1858,-0.129162 0.005,0.01076 0.0133,0.03526 0.024,0.07293 0.0108,0.03767 0.0187,0.07796 0.024,0.121013 0.0108,0.04305 0.0218,0.08334 0.0326,0.121012 0.0108,0.03767 0.0187,0.0594 0.024,0.06479 0.0538,0.01076 0.13717,0.01865 0.25018,0.02404 0.113,0.0054 0.22876,0.0081 0.34714,0.0081 0.1184,0 0.22625,-0.0028 0.32311,-0.0081 0.10225,0 0.16941,-0.0055 0.20169,-0.0163 -0.0484,-0.145296 -0.10216,-0.303701 -0.16135,-0.475903 -0.0592,-0.177583 -0.12122,-0.355362 -0.1858,-0.532946 -0.0592,-0.177583 -0.11845,-0.352595 -0.17765,-0.524797 -0.0592,-0.172202 -0.11292,-0.328247 -0.16135,-0.468161 -0.10224,-0.285211 -0.25829,-0.473246 -0.46816,-0.564727 -0.1574,-0.07265 -0.32251,-0.106287 -0.49505,-0.100233 z m 3.45477,0 c -0.0575,0.002 -0.1156,0.0084 -0.17479,0.01915 -0.23678,0.03767 -0.47105,0.132093 -0.70245,0.282771 -0.2314,0.150676 -0.41984,0.328049 -0.56513,0.532538 -0.07,0.09686 -0.12922,0.209848 -0.17765,0.339 -0.0484,0.123771 -0.0832,0.252952 -0.10472,0.387486 -0.0161,0.129151 -0.0161,0.261103 0,0.395635 0.0161,0.129153 0.0564,0.244904 0.12102,0.347148 0.07,0.113007 0.16397,0.201896 0.28236,0.266473 0.11839,0.06457 0.24521,0.109996 0.37974,0.136904 0.13454,0.03229 0.26885,0.04336 0.40338,0.0326 0.13454,-0.0054 0.25029,-0.02435 0.34715,-0.05664 0.0753,-0.02691 0.1346,-0.05377 0.17765,-0.08067 0.043,-0.02691 0.0833,-0.05654 0.12101,-0.08882 0.0431,-0.03228 0.0861,-0.06745 0.12916,-0.105122 0.0484,-0.03767 0.11047,-0.08073 0.1858,-0.129162 0.005,0.01076 0.0133,0.03526 0.024,0.07293 0.0108,0.03767 0.0187,0.07796 0.024,0.121013 0.0108,0.04305 0.0218,0.08334 0.0326,0.121012 0.0108,0.03767 0.0187,0.0594 0.024,0.06479 0.0538,0.01076 0.13717,0.01865 0.25017,0.02404 0.11301,0.0054 0.22876,0.0081 0.34715,0.0081 0.11839,0 0.22625,-0.0028 0.32311,-0.0081 0.10225,0 0.16941,-0.0055 0.20169,-0.0163 -0.0484,-0.145296 -0.10216,-0.303701 -0.16135,-0.475903 -0.0592,-0.177583 -0.12122,-0.355362 -0.1858,-0.532946 -0.0592,-0.177583 -0.11845,-0.352595 -0.17765,-0.524797 -0.0592,-0.172202 -0.11292,-0.328247 -0.16135,-0.468161 -0.10224,-0.285211 -0.25829,-0.473246 -0.46816,-0.564727 -0.1574,-0.07265 -0.32251,-0.106287 -0.49505,-0.100233 z m 6.07021,0 c -0.0575,0.002 -0.11601,0.0084 -0.1752,0.01915 -0.23678,0.03767 -0.47065,0.132093 -0.70204,0.282771 -0.2314,0.150676 -0.41984,0.328049 -0.56514,0.532538 -0.07,0.09686 -0.12922,0.209848 -0.17765,0.339 -0.0484,0.123771 -0.0832,0.252952 -0.10471,0.387486 -0.0161,0.129151 -0.0161,0.261103 0,0.395635 0.0161,0.129153 0.0564,0.244904 0.12101,0.347148 0.07,0.113007 0.16398,0.201896 0.28237,0.266473 0.11838,0.06457 0.2448,0.109996 0.37933,0.136904 0.13454,0.03229 0.26925,0.04336 0.40379,0.0326 0.13453,-0.0054 0.25028,-0.02435 0.34714,-0.05664 0.0753,-0.02691 0.13461,-0.05377 0.17765,-0.08067 0.0431,-0.02691 0.0833,-0.05654 0.12102,-0.08882 0.0431,-0.03228 0.0861,-0.06745 0.12916,-0.105122 0.0484,-0.03767 0.11006,-0.08073 0.18539,-0.129162 0.005,0.01076 0.0137,0.03526 0.0245,0.07293 0.0108,0.03767 0.0187,0.07796 0.024,0.121013 0.0108,0.04305 0.0218,0.08334 0.0326,0.121012 0.0108,0.03767 0.0187,0.0594 0.024,0.06479 0.0538,0.01076 0.13717,0.01865 0.25017,0.02404 0.11301,0.0054 0.22876,0.0081 0.34715,0.0081 0.11839,0 0.22584,-0.0028 0.3227,-0.0081 0.10225,0 0.16981,-0.0055 0.2021,-0.0163 -0.0484,-0.145296 -0.10257,-0.303701 -0.16176,-0.475903 -0.0592,-0.177583 -0.12081,-0.355362 -0.18539,-0.532946 -0.0592,-0.177583 -0.11845,-0.352595 -0.17765,-0.524797 -0.0592,-0.172202 -0.11292,-0.328247 -0.16135,-0.468161 -0.10224,-0.285211 -0.25829,-0.473246 -0.46816,-0.564727 -0.1574,-0.07265 -0.32251,-0.106287 -0.49505,-0.100233 z m -9.79676,0.543947 c 0.0646,0.01076 0.11553,0.05659 0.15321,0.137311 0.043,0.08072 0.0727,0.185807 0.0888,0.31496 0.0215,0.129151 0.0322,0.260693 0.0322,0.395227 0.005,0.134532 2.5e-4,0.258587 -0.0159,0.371595 -0.0161,0.113007 -0.0351,0.193593 -0.0566,0.242026 -0.0377,0.0861 -0.0914,0.139826 -0.16136,0.161351 -0.0646,0.01614 -0.1345,0.01614 -0.20983,0 -0.07,-0.02153 -0.13711,-0.05628 -0.20169,-0.104715 -0.0592,-0.04843 -0.10226,-0.09703 -0.12916,-0.14546 -0.0593,-0.09148 -0.0917,-0.191035 -0.097,-0.298662 -0.005,-0.113007 0.005,-0.225991 0.0322,-0.338999 0.0323,-0.113008 0.0754,-0.220457 0.12916,-0.322701 0.0592,-0.107627 0.12359,-0.199284 0.19354,-0.274622 0.0969,-0.102237 0.17785,-0.148066 0.24243,-0.137311 z m 3.45478,0 c 0.0646,0.01076 0.11553,0.05659 0.1532,0.137311 0.0431,0.08072 0.0727,0.185807 0.0888,0.31496 0.0215,0.129151 0.0322,0.260693 0.0322,0.395227 0.005,0.134532 2.6e-4,0.258587 -0.0159,0.371595 -0.0161,0.113007 -0.0351,0.193593 -0.0566,0.242026 -0.0377,0.0861 -0.0914,0.139826 -0.16135,0.161351 -0.0646,0.01614 -0.1345,0.01614 -0.20983,0 -0.07,-0.02153 -0.13712,-0.05628 -0.20169,-0.104715 -0.0592,-0.04843 -0.10226,-0.09703 -0.12916,-0.14546 -0.0593,-0.09148 -0.0917,-0.191035 -0.097,-0.298662 -0.005,-0.113007 0.005,-0.225991 0.0322,-0.338999 0.0323,-0.113008 0.0754,-0.220457 0.12916,-0.322701 0.0592,-0.107627 0.12399,-0.199284 0.19394,-0.274622 0.0969,-0.102237 0.17745,-0.148066 0.24203,-0.137311 z m 6.07021,0 c 0.0646,0.01076 0.11554,0.05659 0.1532,0.137311 0.043,0.08072 0.0727,0.185807 0.0888,0.31496 0.0215,0.129151 0.0322,0.260693 0.0322,0.395227 0.005,0.134532 2.5e-4,0.258587 -0.0159,0.371595 -0.0161,0.113007 -0.0351,0.193593 -0.0566,0.242026 -0.0377,0.0861 -0.0914,0.139826 -0.16135,0.161351 -0.0646,0.01614 -0.1345,0.01614 -0.20984,0 -0.07,-0.02153 -0.13752,-0.05628 -0.20209,-0.104715 -0.0592,-0.04843 -0.10226,-0.09703 -0.12917,-0.14546 -0.0592,-0.09148 -0.0913,-0.191035 -0.0965,-0.298662 -0.005,-0.113007 0.005,-0.225991 0.0322,-0.338999 0.0323,-0.113008 0.0754,-0.220457 0.12916,-0.322701 0.0592,-0.107627 0.12359,-0.199284 0.19354,-0.274622 0.0969,-0.102237 0.17785,-0.148066 0.24243,-0.137311 z m -20.34974,0.409488 c -0.003,-0.0053 -0.0134,0.08067 -0.033,0.27177 -0.0141,0.137621 -0.0399,0.354167 -0.0575,0.4812 -0.0176,0.127034 -0.0437,0.326045 -0.0583,0.442492 -0.0775,0.621399 -0.12959,1.020731 -0.1475,1.133528 -0.011,0.06951 -0.037,0.260363 -0.0579,0.42375 -0.0208,0.163388 -0.0462,0.360379 -0.0562,0.43801 -0.009,0.06874 -0.0241,0.206044 -0.0363,0.320664 l 0.46328,-0.267288 c -0.009,-0.382547 -0.0242,-2.953695 -0.0175,-3.139411 0.002,-0.06567 0.003,-0.101546 8.1e-4,-0.104715 z" /></g></svg>
