<?xml version="1.0" encoding="UTF-8" standalone="no"?>
<!-- Created with Inkscape (http://www.inkscape.org/) -->

<svg
   width="43.154011"
   height="49.999962"
   viewBox="0 0 11.417832 13.229157"
   version="1.1"
   id="svg5"
   xml:space="preserve"
   sodipodi:docname="contact_pending.svg"
   inkscape:version="1.3.2 (091e20e, 2023-11-25, custom)"
   xmlns:inkscape="http://www.inkscape.org/namespaces/inkscape"
   xmlns:sodipodi="http://sodipodi.sourceforge.net/DTD/sodipodi-0.dtd"
   xmlns="http://www.w3.org/2000/svg"
   xmlns:svg="http://www.w3.org/2000/svg"><sodipodi:namedview
     id="namedview1"
     pagecolor="#505050"
     bordercolor="#ffffff"
     borderopacity="1"
     inkscape:showpageshadow="0"
     inkscape:pageopacity="0"
     inkscape:pagecheckerboard="1"
     inkscape:deskcolor="#505050"
     inkscape:zoom="10.46"
     inkscape:cx="21.606119"
     inkscape:cy="32.648184"
     inkscape:window-width="1366"
     inkscape:window-height="715"
     inkscape:window-x="-8"
     inkscape:window-y="-8"
     inkscape:window-maximized="1"
     inkscape:current-layer="svg5" /><defs
     id="defs2" /><path
     id="path2"
     style="fill:#1a8dc8;fill-opacity:1;stroke-width:0.14963;stroke-linecap:round;stroke-linejoin:round;paint-order:stroke markers fill"
     d="M 8.367448 7.1277304 C 6.6773534 7.1277304 5.3164714 8.4880956 5.3164714 10.17819 C 5.3164714 11.868286 6.6773534 13.229167 8.367448 13.229167 C 10.057542 13.229167 11.417908 11.868286 11.417908 10.17819 C 11.417908 8.4880956 10.057542 7.1277304 8.367448 7.1277304 z M 6.8864015 8.1953655 L 9.8484946 8.1953655 C 9.8484946 9.0942103 9.6681608 9.423182 8.9131512 10.17819 C 9.6681608 10.9332 9.8484946 11.262688 9.8484946 12.161532 L 6.8864015 12.161532 C 6.8864015 11.262688 7.0662195 10.9332 7.8212281 10.17819 C 7.0662195 9.423182 6.8864015 9.0942103 6.8864015 8.1953655 z M 7.5514772 8.8165162 C 7.6459368 9.1891204 8.0075016 9.4924399 8.367448 9.7957847 C 8.7273958 9.4924399 9.0889633 9.1891204 9.1834189 8.8165162 L 7.5514772 8.8165162 z M 8.367448 10.561113 C 8.0075016 10.864455 7.6459368 11.167262 7.5514772 11.539864 L 9.1834189 11.539864 C 9.0889633 11.167262 8.7273958 10.864455 8.367448 10.561113 z " /><path
     style="fill:#ffffff;fill-opacity:1;stroke-width:0.14963;stroke-linecap:round;stroke-linejoin:round;paint-order:stroke markers fill"
     d="M 2.3151042,5.5087078 C 1.0281455,6.4382068 0.15167985,7.8976041 0,9.5725425 c 2.6999973e-4,5.6e-4 7.6352893e-4,0.00107 0.00103353,0.00207 0.03169997,0.0642 0.06396849,0.1277161 0.09766846,0.1906861 0.03399996,0.0635 0.06928996,0.126469 0.10541992,0.1886189 0.0362,0.0622 0.0734211,0.1232185 0.1116211,0.1839685 0.0756999,0.12033 0.1553652,0.23834 0.23874512,0.35295 0.001,0.002 0.003168,0.0027 0.005168,0.0067 0.0829999,0.11367 0.16963255,0.224599 0.25993246,0.332279 0.002,0.002 0.003235,0.0052 0.007235,0.0072 0.0437,0.0518 0.0879852,0.102632 0.1333252,0.152962 l 0.004651,0.0052 c 0.0473,0.0525 0.0956941,0.104029 0.14469399,0.155029 0.0495,0.0513 0.099695,0.101742 0.1508952,0.151412 l 5.168e-4,5.17e-4 c 0.1001699,0.0972 0.2034887,0.19081 0.3100586,0.281119 0.005,0.003 0.00814,0.0082 0.013436,0.01189 0.0525,0.0442 0.1056803,0.08775 0.1596802,0.130225 0.0542,0.0427 0.1088311,0.08403 0.1643311,0.125057 0.005,0.003 0.011953,0.0082 0.017053,0.01188 0.0487,0.0355 0.097578,0.07023 0.1472778,0.104387 0.008,0.005 0.016988,0.01205 0.024288,0.01705 0.0553,0.0377 0.1113584,0.07479 0.1679484,0.110587 0.005,0.003 0.00999,0.0068 0.014986,0.0098 0.0525,0.0332 0.1056635,0.06545 0.1591634,0.09715 0.008,0.005 0.016671,0.0096 0.023771,0.01292 0.0588,0.0343 0.1183138,0.06843 0.1782837,0.100769 0.058,0.0313 0.1167199,0.06145 0.1756999,0.09095 0.0117,0.007 0.02324,0.01145 0.03514,0.01705 0.0553,0.0272 0.110685,0.05408 0.1669149,0.07958 0.005,0.002 0.00814,0.0027 0.013436,0.0067 0.0598,0.0272 0.1199976,0.05325 0.1808675,0.07855 0.0133,0.005 0.027858,0.01195 0.041858,0.01705 0.0522,0.0213 0.1047832,0.0415 0.1576131,0.0615 0.01,0.003 0.018605,0.0073 0.027905,0.01033 0.0632,0.0233 0.1269329,0.04568 0.1912028,0.06718 0.008,0.002 0.016988,0.0048 0.024288,0.0078 0.0557,0.0183 0.1115385,0.03581 0.1679484,0.05271 0.015,0.005 0.029025,0.0081 0.043925,0.01343 0.064,0.0185 0.1284899,0.03673 0.1932699,0.05323 0.0643,0.0167 0.1297202,0.03149 0.1948201,0.04599 0.0167,0.003 0.031226,0.0068 0.047026,0.0098 0.0563,0.0117 0.1130355,0.02341 0.1700154,0.03411 0.01,0.002 0.019772,0.0027 0.029972,0.0047 0.0643,0.0117 0.1292834,0.02182 0.1943034,0.03152 0.0183,0.003 0.036477,0.0053 0.054777,0.0083 0.0517,0.007 0.1035461,0.01324 0.1555461,0.01964 0.0173,0.002 0.034693,0.0032 0.052193,0.0072 0.0662,0.007 0.1326011,0.01287 0.1994711,0.01757 0.0117,8.5e-4 0.02449,0.0011 0.03669,0.0021 0.0552,0.003 0.1108982,0.0073 0.1663982,0.0083 0.021,8.5e-4 0.042045,0.0021 0.063045,0.0021 0.0675,0.002 0.1350385,0.0026 0.2030884,0.0026 0.068,0 0.1355684,-5.84e-4 0.2030884,-0.0026 0.021,-5.7e-4 0.041628,-0.0011 0.062528,-0.0021 0.0557,-0.002 0.1112281,-0.0053 0.1663981,-0.0083 0.0117,-8.5e-4 0.02449,-0.0011 0.03669,-0.0021 0.0668,-0.005 0.1332711,-0.01127 0.1994711,-0.01757 0.0173,-0.002 0.034793,-0.0032 0.052193,-0.0072 0.0292,-0.003 0.057816,-0.0072 0.086816,-0.01189 -0.9042291,-0.615989 -1.495516,-1.65365 -1.495516,-2.834969 0,-1.8992178 1.5289965,-3.4282143 3.4282146,-3.4282143 0.932199,0 1.7747964,0.3687169 2.3915854,0.9684163 C 10.351597,6.8334829 9.7216621,6.0731972 8.9400229,5.5087078 8.1728437,6.4910568 6.9772157,7.1204957 5.6285971,7.1204957 c -1.3486187,0 -2.5447434,-0.6294389 -3.3119426,-1.6117879 z"
     id="path1" /><path
     style="fill:#ffffff;fill-opacity:1;stroke-width:0.14963;stroke-linecap:round;stroke-linejoin:round;paint-order:stroke markers fill"
     d="M 5.6270468,0 A 2.9409105,2.9219637 0 0 0 3.5212322,0.88470053 c -0.0313,0.0117 -0.062434,0.0225065 -0.093534,0.0341065 C 2.9471483,1.4464665 2.6546184,2.1485763 2.6546184,2.9217855 c 0,1.6467384 1.32568,2.9724285 2.9724284,2.9724285 1.6467484,0 2.9729452,-1.3256901 2.9729452,-2.9724285 0,-0.7732092 -0.2925099,-1.475319 -0.7730794,-2.00297852 -0.0298,-0.0117 -0.059917,-0.0218562 -0.089917,-0.0325562 A 2.9409105,2.9219637 0 0 0 5.6275636,0 Z"
     id="path5" /></svg>
