<?xml version="1.0" encoding="UTF-8" standalone="no"?>
<!-- Created with Inkscape (http://www.inkscape.org/) -->

<svg
   width="43.154011"
   height="49.999962"
   viewBox="0 0 11.417832 13.229157"
   version="1.1"
   id="svg5"
   xml:space="preserve"
   sodipodi:docname="contact_add.svg"
   inkscape:version="1.3.2 (091e20e, 2023-11-25, custom)"
   xmlns:inkscape="http://www.inkscape.org/namespaces/inkscape"
   xmlns:sodipodi="http://sodipodi.sourceforge.net/DTD/sodipodi-0.dtd"
   xmlns="http://www.w3.org/2000/svg"
   xmlns:svg="http://www.w3.org/2000/svg"><sodipodi:namedview
     id="namedview1"
     pagecolor="#ffffff"
     bordercolor="#000000"
     borderopacity="0.25"
     inkscape:showpageshadow="2"
     inkscape:pageopacity="0.0"
     inkscape:pagecheckerboard="0"
     inkscape:deskcolor="#d1d1d1"
     inkscape:zoom="7.3963426"
     inkscape:cx="23.254737"
     inkscape:cy="26.567185"
     inkscape:window-width="1366"
     inkscape:window-height="715"
     inkscape:window-x="-8"
     inkscape:window-y="-8"
     inkscape:window-maximized="1"
     inkscape:current-layer="svg5" /><defs
     id="defs2" /><path
     id="path2"
     style="fill:#1aaf5a;fill-opacity:1;stroke-width:0.14963;stroke-linecap:round;stroke-linejoin:round;paint-order:stroke markers fill"
     d="M 8.3669313 7.1277304 C 6.676833 7.1277304 5.3164714 8.488092 5.3164714 10.17819 C 5.3164714 11.868289 6.676833 13.229167 8.3669313 13.229167 C 10.05703 13.229167 11.417908 11.868289 11.417908 10.17819 C 11.417908 8.488092 10.05703 7.1277304 8.3669313 7.1277304 z M 8.3669313 7.8713543 C 8.5925011 7.8713543 8.7741416 8.0529948 8.7741416 8.2785646 L 8.7741416 9.7714967 L 10.267074 9.7714967 C 10.492643 9.7714967 10.674284 9.9526405 10.674284 10.17819 C 10.674284 10.40376 10.492643 10.585401 10.267074 10.585401 L 8.7741416 10.585401 L 8.7741416 12.078333 C 8.7741416 12.303882 8.5925011 12.485543 8.3669313 12.485543 C 8.1413815 12.485543 7.959721 12.303882 7.959721 12.078333 L 7.959721 10.585401 L 6.4667888 10.585401 C 6.2412191 10.585401 6.0600953 10.40376 6.0600953 10.17819 C 6.0600953 9.9526405 6.2412191 9.7714967 6.4667888 9.7714967 L 7.959721 9.7714967 L 7.959721 8.2785646 C 7.959721 8.0529948 8.1413815 7.8713543 8.3669313 7.8713543 z " /><path
     id="path1"
     style="fill:#ffffff;fill-opacity:1;stroke-width:0.14963;stroke-linecap:round;stroke-linejoin:round;paint-order:stroke markers fill"
     d="M 5.6270468 0 A 2.9409105 2.9219637 0 0 0 3.5212322 0.88470053 C 3.4899322 0.89640052 3.4587978 0.90720699 3.4276978 0.91880698 C 2.9471483 1.4464665 2.6546184 2.1485763 2.6546184 2.9217855 C 2.6546184 4.5685239 3.9802984 5.894214 5.6270468 5.894214 C 7.2737952 5.894214 8.599992 4.5685239 8.599992 2.9217855 C 8.599992 2.1485763 8.3074821 1.4464665 7.8269126 0.91880698 C 7.7971126 0.90710699 7.7669955 0.89695082 7.7369956 0.88625083 A 2.9409105 2.9219637 0 0 0 5.6275636 0 L 5.6270468 0 z M 2.3151042 5.5087078 C 1.0281455 6.4382068 0.15167985 7.8976041 0 9.5725425 C 0.00026999973 9.5731025 0.00076352893 9.5736095 0.0010335287 9.5746095 C 0.032733497 9.6388095 0.065002021 9.7023256 0.098701987 9.7652956 C 0.13270195 9.8287955 0.16799195 9.8917646 0.20412191 9.9539145 C 0.24032187 10.016114 0.27754304 10.077133 0.31574301 10.137883 C 0.39144293 10.258213 0.47110821 10.376223 0.55448813 10.490833 C 0.55548813 10.492833 0.55765577 10.493551 0.55965577 10.497551 C 0.64265569 10.611221 0.72928832 10.72215 0.81958823 10.82983 C 0.82158823 10.83183 0.82282293 10.835065 0.82682293 10.837065 C 0.87052289 10.888865 0.91480817 10.939697 0.96014813 10.990027 L 0.96479901 10.995195 C 1.012099 11.047695 1.0604931 11.099224 1.109493 11.150224 C 1.158993 11.201524 1.2091883 11.251966 1.2603882 11.301636 L 1.260905 11.302153 C 1.3610749 11.399353 1.4643937 11.492963 1.5709636 11.583272 C 1.5759636 11.586272 1.5790994 11.591458 1.5843994 11.595158 C 1.6368994 11.639358 1.6900797 11.682913 1.7440796 11.725383 C 1.7982796 11.768083 1.8529107 11.80941 1.9084107 11.85044 C 1.9134107 11.85344 1.9203639 11.858625 1.9254639 11.862325 C 1.9741638 11.897825 2.0230418 11.932552 2.0727417 11.966712 C 2.0807417 11.971712 2.0897297 11.978765 2.0970297 11.983765 C 2.1523296 12.021465 2.2083881 12.058552 2.2649781 12.094352 C 2.2699781 12.097352 2.2749642 12.101171 2.2799642 12.104171 C 2.3324642 12.137371 2.3856277 12.169623 2.4391276 12.201323 C 2.4471276 12.206323 2.4557988 12.210942 2.4628988 12.214242 C 2.5216987 12.248542 2.5812126 12.282671 2.6411825 12.315011 C 2.6991824 12.346311 2.7579024 12.376461 2.8168824 12.405961 C 2.8285824 12.412961 2.8401224 12.417415 2.8520223 12.423015 C 2.9073223 12.450214 2.9627073 12.477096 3.0189372 12.502596 C 3.0239372 12.504596 3.0270731 12.505314 3.0323731 12.509314 C 3.092173 12.536514 3.1523707 12.562562 3.2132406 12.587862 C 3.2265406 12.592862 3.2410985 12.599816 3.2550985 12.604916 C 3.3072985 12.626216 3.3598817 12.646411 3.4127116 12.666411 C 3.4227116 12.669411 3.4313169 12.673746 3.4406169 12.676746 C 3.5038169 12.700046 3.5675498 12.722425 3.6318197 12.743925 C 3.6398197 12.745925 3.6488076 12.748677 3.6561076 12.751677 C 3.7118076 12.769977 3.7676461 12.787487 3.824056 12.804387 C 3.839056 12.809387 3.853081 12.812522 3.867981 12.817822 C 3.931981 12.836322 3.9964709 12.854549 4.0612509 12.871049 C 4.1255508 12.887749 4.1909711 12.902541 4.256071 12.917041 C 4.272771 12.920041 4.2872966 12.92386 4.3030966 12.92686 C 4.3593965 12.93856 4.4161321 12.950266 4.473112 12.960966 C 4.483112 12.962966 4.4928844 12.963617 4.5030844 12.965617 C 4.5673843 12.977317 4.6323678 12.98744 4.6973878 12.99714 C 4.7156877 13.00014 4.7338648 13.002408 4.7521648 13.005408 C 4.8038647 13.012408 4.8557109 13.018645 4.9077109 13.025045 C 4.9250108 13.027045 4.9424041 13.02828 4.959904 13.03228 C 5.026104 13.03928 5.0925051 13.04515 5.1593751 13.04985 C 5.1710751 13.0507 5.1838654 13.050917 5.1960653 13.051917 C 5.2512653 13.054917 5.3069635 13.059185 5.3624635 13.060185 C 5.3834634 13.061035 5.4045087 13.062252 5.4255087 13.062252 C 5.4930086 13.064252 5.5605472 13.064836 5.6285971 13.064836 C 5.696597 13.064836 5.7641655 13.064252 5.8316855 13.062252 C 5.8526855 13.061682 5.873314 13.061185 5.894214 13.060185 C 5.9499139 13.058185 6.0054421 13.054917 6.0606121 13.051917 C 6.0723121 13.051067 6.0851024 13.05085 6.0973023 13.04985 C 6.1641023 13.04485 6.2305734 13.03858 6.2967734 13.03228 C 6.3140734 13.03028 6.3315666 13.029045 6.3489666 13.025045 C 6.3781665 13.022045 6.406783 13.017859 6.435783 13.013159 C 5.5315539 12.39717 4.940267 11.359509 4.940267 10.17819 C 4.940267 8.2789722 6.4692635 6.7499757 8.3684816 6.7499757 C 9.3006806 6.7499757 10.143278 7.1186926 10.760067 7.718392 C 10.351597 6.8334829 9.7216621 6.0731972 8.9400229 5.5087078 C 8.1728437 6.4910568 6.9772157 7.1204957 5.6285971 7.1204957 C 4.2799784 7.1204957 3.0838537 6.4910568 2.3166545 5.5087078 L 2.3151042 5.5087078 z " /></svg>
