<?xml version="1.0" encoding="UTF-8" standalone="no"?>
<!-- Created with Inkscape (http://www.inkscape.org/) -->

<svg
   width="24.000084"
   height="24.00001"
   viewBox="0 0 6.3500221 6.3500025"
   version="1.1"
   id="svg5"
   xml:space="preserve"
   sodipodi:docname="icon-wall.svg"
   xmlns:inkscape="http://www.inkscape.org/namespaces/inkscape"
   xmlns:sodipodi="http://sodipodi.sourceforge.net/DTD/sodipodi-0.dtd"
   xmlns="http://www.w3.org/2000/svg"
   xmlns:svg="http://www.w3.org/2000/svg"><sodipodi:namedview
     id="namedview1"
     pagecolor="#505050"
     bordercolor="#ffffff"
     borderopacity="1"
     inkscape:showpageshadow="0"
     inkscape:pageopacity="0"
     inkscape:pagecheckerboard="1"
     inkscape:deskcolor="#505050" /><defs
     id="defs2" /><path
     id="path7"
     style="color:#000000;fill:#ffffff;stroke-width:1.30038;stroke-linecap:round;stroke-linejoin:round;-inkscape-stroke:none;paint-order:stroke fill markers"
     d="M 3.1010552,0.00589811 A 0.47738338,0.47737696 0 0 0 2.8387702,0.13952542 L 0.14132769,2.8369328 a 0.47738338,0.47737696 0 0 0 -0.0019,0.6762164 L 2.8368712,6.2105566 a 0.47738338,0.47737696 0 0 0 0.676225,-0.00186 l 2.697483,-2.6974074 a 0.47738338,0.47737696 0 0 0 0,-0.6743519 L 3.5131312,0.13952542 A 0.47738338,0.47737696 0 0 0 3.1010552,0.00589811 Z M 1.1140222,0.59696593 A 0.51614569,0.51613875 0 0 0 0.59566719,1.112208 V 2.1085084 L 2.1078502,0.59696593 Z m 3.130029,0 1.510319,1.50967807 V 1.112208 A 0.51614569,0.51613875 0 0 0 5.2385002,0.59696593 Z M 3.1743972,1.152607 5.1974792,3.1756625 3.1756392,5.197475 1.1525572,3.1744195 Z m 2.579973,3.0889665 -1.510941,1.5109211 h 0.995071 a 0.51614569,0.51613875 0 0 0 0.51587,-0.5158636 z m -5.15870301,0.00186 V 5.236631 A 0.51614569,0.51613875 0 0 0 1.1140222,5.7524946 h 0.99072 z" /></svg>
