<?xml version="1.0" encoding="UTF-8" standalone="no"?>
<!-- Created with Inkscape (http://www.inkscape.org/) -->

<svg
   width="24"
   height="24"
   viewBox="0 0 6.3499997 6.3500002"
   version="1.1"
   id="svg5"
   xml:space="preserve"
   xmlns="http://www.w3.org/2000/svg"
   xmlns:svg="http://www.w3.org/2000/svg"><defs
     id="defs2" /><g
     id="layer1"
     transform="translate(-190.49996,26.479877)"><path
       style="color:#000000;fill:#ffffff;stroke-width:1.59991;stroke-linecap:round;stroke-linejoin:round;-inkscape-stroke:none;paint-order:stroke fill markers"
       d="m 192.08164,-23.766392 c 0.36911,0.472626 0.94455,0.77565 1.5934,0.77565 0.64884,0 1.22426,-0.303024 1.59337,-0.77565 0.61921,0.447196 1.04113,1.149158 1.1141,1.955014 l -8.7e-4,8.59e-4 c -0.0308,0.06205 -0.0633,0.123419 -0.0979,0.182961 -0.0175,0.02989 -0.0347,0.05926 -0.0532,0.08848 -0.0367,0.05838 -0.0755,0.115357 -0.11602,0.170936 h -8.7e-4 c -0.0402,0.05508 -0.0816,0.109323 -0.1255,0.161483 -0.002,0.0013 -0.003,0.0022 -0.003,0.0035 -0.0214,0.02557 -0.0429,0.05078 -0.0653,0.0756 -0.0231,0.02553 -0.0467,0.05086 -0.0705,0.07558 -0.0238,0.0247 -0.0484,0.04829 -0.073,0.07216 v 8.6e-4 c -0.0482,0.04676 -0.0982,0.0914 -0.14944,0.134854 -0.003,0.0018 -0.005,0.0043 -0.007,0.006 -0.0253,0.02128 -0.0505,0.04225 -0.0765,0.0627 -0.0261,0.02054 -0.0522,0.04046 -0.0789,0.06012 -0.002,0.002 -0.005,0.0038 -0.008,0.006 -0.0234,0.01709 -0.0474,0.03336 -0.0713,0.04982 -0.003,0.0027 -0.008,0.006 -0.0116,0.0086 -0.0266,0.01813 -0.0535,0.03599 -0.0808,0.05326 -0.002,0.0015 -0.003,0.0027 -0.007,0.0043 -0.0253,0.01596 -0.0507,0.0311 -0.0765,0.04639 -0.003,0.0023 -0.008,0.0047 -0.0116,0.0068 -0.0284,0.01646 -0.0572,0.03248 -0.0859,0.0481 -0.0279,0.01513 -0.0558,0.02967 -0.0843,0.0438 -0.005,0.0028 -0.01,0.006 -0.0171,0.0086 -0.0264,0.01313 -0.0528,0.0255 -0.0799,0.0378 -0.003,8.31e-4 -0.005,0.0027 -0.007,0.0035 -0.0287,0.01297 -0.0575,0.02566 -0.0868,0.0378 -0.007,0.0028 -0.0133,0.0052 -0.0206,0.0078 -0.0251,0.01014 -0.0502,0.0206 -0.0756,0.03007 -0.005,0.0018 -0.008,0.0035 -0.0133,0.0052 -0.0306,0.0113 -0.0617,0.02234 -0.0928,0.03265 -0.002,8.31e-4 -0.005,0.0027 -0.008,0.0035 -0.0271,0.009 -0.0548,0.01662 -0.0824,0.02492 -0.007,0.0018 -0.015,0.0047 -0.0214,0.0068 -0.0308,0.009 -0.0615,0.01694 -0.0928,0.02492 -0.0311,0.0078 -0.0623,0.01529 -0.0936,0.02234 -0.008,0.0018 -0.0133,0.0035 -0.0223,0.0052 -0.0269,0.0058 -0.0542,0.01114 -0.0816,0.01629 -0.005,0.0013 -0.01,0.0017 -0.015,0.0027 -0.0309,0.0057 -0.0615,0.0108 -0.0927,0.01546 l -0.0266,0.0043 c -0.0249,0.0035 -0.0505,0.0057 -0.0756,0.0086 -0.008,0.0013 -0.0166,0.0027 -0.0249,0.0035 -0.0319,0.0033 -0.0633,0.0065 -0.0954,0.0086 -0.007,4.29e-4 -0.0116,4.74e-4 -0.0181,8.6e-4 -0.0266,0.0018 -0.0532,0.003 -0.08,0.0043 -0.01,3.92e-4 -0.0201,0.0014 -0.0301,0.0017 -0.0326,8.99e-4 -0.0652,0.0017 -0.0979,0.0017 -0.0327,0 -0.0655,-8.63e-4 -0.0979,-0.0017 -0.01,-3.94e-4 -0.0201,-0.0013 -0.0301,-0.0017 -0.0268,-9.98e-4 -0.0533,-0.0027 -0.0799,-0.0043 -0.007,-4.27e-4 -0.01,-4.31e-4 -0.0171,-8.6e-4 -0.0321,-0.0023 -0.0645,-0.0053 -0.0962,-0.0086 -0.008,-8.31e-4 -0.0166,-0.0027 -0.0249,-0.0035 -0.0249,-0.0028 -0.0499,-0.0053 -0.0748,-0.0086 l -0.0266,-0.0043 c -0.0312,-0.0047 -0.0627,-0.0098 -0.0936,-0.01546 -0.005,-8.31e-4 -0.01,-0.0017 -0.015,-0.0027 -0.0273,-0.005 -0.0545,-0.01047 -0.0816,-0.01629 -0.008,-0.0015 -0.015,-0.0035 -0.0233,-0.0052 -0.0314,-0.007 -0.0627,-0.0143 -0.0936,-0.02234 -0.0312,-0.008 -0.0618,-0.01596 -0.0927,-0.02492 -0.008,-0.0018 -0.015,-0.0047 -0.0214,-0.0068 -0.0273,-0.0081 -0.054,-0.01612 -0.0808,-0.02492 l -0.0116,-0.0043 c -0.0309,-0.01031 -0.0615,-0.02048 -0.0919,-0.03178 -0.005,-0.0018 -0.008,-0.0035 -0.0133,-0.0052 -0.0254,-0.0096 -0.0505,-0.01976 -0.0756,-0.03007 -0.007,-0.0027 -0.0133,-0.0052 -0.0206,-0.0078 -0.0293,-0.01213 -0.058,-0.02483 -0.0868,-0.0378 -0.003,-8.31e-4 -0.005,-0.0027 -0.007,-0.0035 -0.0271,-0.0123 -0.0542,-0.02467 -0.0808,-0.0378 -0.005,-0.0028 -0.01,-0.0057 -0.0166,-0.0086 -0.0284,-0.01413 -0.0572,-0.02867 -0.0851,-0.0438 -0.0289,-0.01562 -0.0577,-0.03165 -0.0859,-0.0481 -0.003,-0.0023 -0.008,-0.0047 -0.0116,-0.0068 -0.0258,-0.01529 -0.0512,-0.03042 -0.0765,-0.04639 -0.002,-0.0015 -0.003,-0.0035 -0.007,-0.0052 -0.0273,-0.01732 -0.0542,-0.03426 -0.0808,-0.05239 -0.003,-0.0027 -0.008,-0.006 -0.0116,-0.0086 -0.0238,-0.01646 -0.047,-0.03358 -0.0705,-0.05068 -0.002,-0.002 -0.005,-0.003 -0.008,-0.0052 -0.0268,-0.01968 -0.0529,-0.03959 -0.079,-0.06012 -0.0259,-0.02043 -0.0512,-0.04145 -0.0765,-0.0627 -0.002,-0.0018 -0.005,-0.0043 -0.007,-0.006 -0.0514,-0.04347 -0.10123,-0.08896 -0.14943,-0.13572 -0.0246,-0.02388 -0.049,-0.04827 -0.073,-0.07302 -0.0234,-0.02449 -0.0459,-0.04945 -0.0686,-0.07473 0,-7.37e-4 -9e-4,-8.61e-4 -0.002,-0.0017 -0.0218,-0.02423 -0.0436,-0.04894 -0.0643,-0.07387 -0.002,-0.0013 -0.003,-0.0022 -0.003,-0.0035 -0.0435,-0.0518 -0.0853,-0.105069 -0.12533,-0.159772 -6.6e-4,-8.31e-4 -8.5e-4,-0.0027 -0.002,-0.0035 -0.0401,-0.05514 -0.0778,-0.111319 -0.11419,-0.169218 -0.0185,-0.02922 -0.0367,-0.05861 -0.0542,-0.08848 -0.0175,-0.0299 -0.0341,-0.06049 -0.0507,-0.09106 -0.0166,-0.03029 -0.0323,-0.061 -0.0472,-0.0919 v -8.59e-4 c 0.073,-0.805728 0.49418,-1.507813 1.11323,-1.955014 z"
       id="path429" /><path
       style="color:#000000;fill:#ffffff;stroke-width:1.59991;stroke-linecap:round;stroke-linejoin:round;-inkscape-stroke:none;paint-order:stroke fill markers"
       d="m 193.67504,-26.479877 c 0.80317,0 1.44992,0.645909 1.44992,1.449081 0,0.803175 -0.64676,1.449942 -1.44992,1.449942 -0.80318,0 -1.44908,-0.646767 -1.44908,-1.449942 0,-0.803172 0.6459,-1.449081 1.44908,-1.449081 z"
       id="path427" /></g></svg>
