<?xml version="1.0" encoding="UTF-8" standalone="no"?>
<!-- Created with Inkscape (http://www.inkscape.org/) -->

<svg
   width="7.9375mm"
   height="7.9375mm"
   viewBox="0 0 7.9375 7.9375"
   version="1.1"
   id="svg5"
   xml:space="preserve"
   inkscape:version="1.2.1 (9c6d41e410, 2022-07-14)"
   sodipodi:docname="desenho.svg"
   xmlns:inkscape="http://www.inkscape.org/namespaces/inkscape"
   xmlns:sodipodi="http://sodipodi.sourceforge.net/DTD/sodipodi-0.dtd"
   xmlns="http://www.w3.org/2000/svg"
   xmlns:svg="http://www.w3.org/2000/svg"><sodipodi:namedview
     id="namedview7"
     pagecolor="#83838e"
     bordercolor="#000000"
     borderopacity="0.25"
     inkscape:showpageshadow="2"
     inkscape:pageopacity="0"
     inkscape:pagecheckerboard="0"
     inkscape:deskcolor="#d1d1d1"
     inkscape:document-units="mm"
     showgrid="false"
     inkscape:zoom="1.2771877"
     inkscape:cx="1025.2996"
     inkscape:cy="583.31285"
     inkscape:current-layer="layer1" /><defs
     id="defs2" /><g
     inkscape:label="Camada 1"
     inkscape:groupmode="layer"
     id="layer1"
     transform="translate(-102.60565,-89.884824)"><path
       id="path761"
       style="fill:#ffffff;fill-opacity:1;stroke:none;stroke-width:0.128792;stroke-linecap:round;stroke-linejoin:round;paint-order:markers stroke fill"
       d="m 103.53947,89.884822 c -0.51734,0 -0.93382,0.416484 -0.93382,0.933822 V 96.8885 c 0,0.517338 0.41648,0.933822 0.93382,0.933822 h 6.06986 c 0.51734,0 0.93382,-0.416484 0.93382,-0.933822 v -6.069856 c 0,-0.517338 -0.41648,-0.933822 -0.93382,-0.933822 z m 0.57354,0.749982 h 4.9229 c 0.41957,0 0.75732,0.337746 0.75732,0.75732 v 4.84993 c -0.8216,-0.865662 -1.71708,-1.808886 -1.86074,-1.961154 -0.22855,-0.242244 -0.4407,-0.048 -0.49521,0 -0.0545,0.048 -0.0577,0.0468 -0.1886,0.155682 -0.13095,0.108894 -0.39246,0.174444 -0.55661,0 0,0 -0.58746,-0.667644 -0.816,-0.896184 -0.11427,-0.11427 -0.22696,-0.176112 -0.3422,-0.178254 -0.11525,-0.0024 -0.23298,0.05544 -0.35738,0.179844 -0.18668,0.186678 -1.28426,1.509864 -1.82086,2.159172 v -4.309036 c 0,-0.419574 0.3378,-0.75732 0.75738,-0.75732 z m 4.11194,1.306702 a 0.8301034,0.8301034 0 0 0 -0.83012,0.830124 0.8301034,0.8301034 0 0 0 0.83012,0.830064 0.8301034,0.8301034 0 0 0 0.83007,-0.830064 0.8301034,0.8301034 0 0 0 -0.83007,-0.830124 z m 1.56439,4.45119 c -0.005,0.05106 -0.0153,0.100524 -0.03,0.148014 0.0147,-0.04746 0.0248,-0.09697 0.03,-0.148014 z m -0.0706,0.251214 c -0.0212,0.04416 -0.0466,0.08593 -0.0756,0.124788 0.029,-0.03888 0.0544,-0.08062 0.0756,-0.124788 z m -0.14686,0.20712 c -0.0171,0.0171 -0.035,0.03342 -0.0538,0.04884 0.0187,-0.01542 0.0366,-0.03168 0.0538,-0.04884 z" /></g></svg>
