<?xml version="1.0" encoding="UTF-8" standalone="no"?>
<!-- Created with Inkscape (http://www.inkscape.org/) -->

<svg
   width="50"
   height="50"
   viewBox="0 0 13.229167 13.229167"
   version="1.1"
   id="svg5"
   xml:space="preserve"
   sodipodi:docname="00_Kaatan.svg"
   inkscape:version="1.3.2 (091e20e, 2023-11-25, custom)"
   xmlns:inkscape="http://www.inkscape.org/namespaces/inkscape"
   xmlns:sodipodi="http://sodipodi.sourceforge.net/DTD/sodipodi-0.dtd"
   xmlns="http://www.w3.org/2000/svg"
   xmlns:svg="http://www.w3.org/2000/svg"><sodipodi:namedview
     id="namedview1"
     pagecolor="#505050"
     bordercolor="#eeeeee"
     borderopacity="1"
     inkscape:showpageshadow="0"
     inkscape:pageopacity="0"
     inkscape:pagecheckerboard="0"
     inkscape:deskcolor="#505050"
     inkscape:zoom="5.23"
     inkscape:cx="17.686424"
     inkscape:cy="18.451243"
     inkscape:window-width="1366"
     inkscape:window-height="715"
     inkscape:window-x="-8"
     inkscape:window-y="-8"
     inkscape:window-maximized="1"
     inkscape:current-layer="svg5" /><defs
     id="defs2" /><rect
     style="fill:#150000;stroke-width:3;stroke-linecap:round;stroke-linejoin:round;paint-order:stroke markers fill;fill-opacity:1"
     id="rect1"
     width="13.229167"
     height="13.229167"
     x="0"
     y="0" /><circle
     style="fill:#d6b99a;fill-opacity:1;stroke-width:6.83763;stroke-linecap:round;stroke-linejoin:round"
     id="circle10"
     cx="6.6145835"
     cy="6.6145835"
     r="6.6145835" /><g
     id="g1"><circle
       style="fill:#ffffff;fill-opacity:1;stroke:none;stroke-width:0.242047"
       id="path11"
       cx="9.4862833"
       cy="7.2722478"
       r="2.1271455" /><circle
       style="fill:#1c493e;fill-opacity:1;stroke:none;stroke-width:0.202948"
       id="circle11"
       cx="9.2081175"
       cy="7.2722478"
       r="1.7835296" /><circle
       style="fill:#000000;fill-opacity:1;stroke:none;stroke-width:0.161985"
       id="circle12"
       cx="9.2081175"
       cy="7.2722478"
       r="1.4235511" /><circle
       style="fill:#ffffff;fill-opacity:1;stroke:none;stroke-width:0.0316523"
       id="circle13"
       cx="8.4334002"
       cy="7.8623252"
       r="0.27816501" /><circle
       style="fill:#ffffff;fill-opacity:1;stroke:none;stroke-width:0.0211198"
       id="circle14"
       cx="10.492886"
       cy="7.8854656"
       r="0.18560384" /><circle
       style="fill:#ffffff;fill-opacity:1;stroke:none;stroke-width:0.077732"
       id="circle15"
       cx="9.6598349"
       cy="6.3813467"
       r="0.68312013" /><circle
       style="fill:#ffffff;fill-opacity:1;stroke:none;stroke-width:0.242047"
       id="circle21"
       cx="-3.7428839"
       cy="7.2722478"
       r="2.1271455"
       transform="scale(-1,1)" /><circle
       style="fill:#1c493e;fill-opacity:1;stroke:none;stroke-width:0.202948"
       id="circle22"
       cx="-4.021049"
       cy="7.2722478"
       r="1.7835296"
       transform="scale(-1,1)" /><circle
       style="fill:#000000;fill-opacity:1;stroke:none;stroke-width:0.161985"
       id="circle23"
       cx="-4.021049"
       cy="7.2722478"
       r="1.4235511"
       transform="scale(-1,1)" /><circle
       style="fill:#ffffff;fill-opacity:1;stroke:none;stroke-width:0.0316523"
       id="circle24"
       cx="2.8288424"
       cy="7.8623252"
       r="0.27816501" /><circle
       style="fill:#ffffff;fill-opacity:1;stroke:none;stroke-width:0.0211198"
       id="circle25"
       cx="4.8883276"
       cy="7.8854656"
       r="0.18560384" /><circle
       style="fill:#ffffff;fill-opacity:1;stroke:none;stroke-width:0.077732"
       id="circle26"
       cx="4.0552769"
       cy="6.3813467"
       r="0.68312013" /></g><path
     id="path27"
     style="fill:#800000;fill-opacity:1;stroke:none;stroke-width:0.264583"
     d="m 6.614325,8.5751344 c -0.554227,0 -1.188558,0.5263504 -1.188558,0.8154541 0,0.2908618 0.940978,1.0526495 1.188558,1.0526495 0.247581,0 1.189075,-0.7617877 1.189075,-1.0526495 0,-0.2891037 -0.634847,-0.8154541 -1.189075,-0.8154541 z" /><path
     id="path28"
     style="fill:#000000;fill-opacity:1;stroke:none;stroke-width:0.227852"
     d="m 5.848289,9.4833537 c 0,0.1141854 0.497617,0.4542359 0.766103,0.4542359 0.268487,0 0.766486,-0.3400505 0.766486,-0.4542359 0,-0.1267178 -1.532589,-0.1121488 -1.532589,0 z"
     sodipodi:nodetypes="ssss" /><path
     id="path32"
     style="color:#000000;fill:#000000;fill-opacity:1;stroke-width:0.651536;stroke-linecap:round;-inkscape-stroke:none"
     d="m 4.151925,3.2549751 a 0.30167478,0.30167478 0 0 0 -0.06666,0.00982 l -1.384412,0.37052 a 0.30167478,0.30167478 0 0 0 -0.21394,0.3689698 0.30167478,0.30167478 0 0 0 0.37052,0.2139404 l 1.383378,-0.37052 A 0.30167478,0.30167478 0 0 0 4.454234,3.477702 0.30167478,0.30167478 0 0 0 4.151927,3.2549766 Z m 4.9252814,0 A 0.30167478,0.30167478 0 0 0 8.7748992,3.4777005 0.30167478,0.30167478 0 0 0 8.9888397,3.8477038 l 1.3833783,0.37052 A 0.30167478,0.30167478 0 0 0 10.742221,4.0042834 0.30167478,0.30167478 0 0 0 10.528797,3.6353136 l -1.384928,-0.37052 a 0.30167478,0.30167478 0 0 0 -0.066663,-0.00982 z" /></svg>
