<?xml version="1.0" encoding="UTF-8" standalone="no"?>
<!-- Created with Inkscape (http://www.inkscape.org/) -->

<svg
   width="50"
   height="50"
   viewBox="0 0 13.229167 13.229167"
   version="1.1"
   id="svg5"
   xml:space="preserve"
   sodipodi:docname="kaatan.svg"
   inkscape:version="1.3.2 (091e20e, 2023-11-25, custom)"
   xmlns:inkscape="http://www.inkscape.org/namespaces/inkscape"
   xmlns:sodipodi="http://sodipodi.sourceforge.net/DTD/sodipodi-0.dtd"
   xmlns="http://www.w3.org/2000/svg"
   xmlns:svg="http://www.w3.org/2000/svg"><sodipodi:namedview
     id="namedview1"
     pagecolor="#505050"
     bordercolor="#eeeeee"
     borderopacity="1"
     inkscape:showpageshadow="0"
     inkscape:pageopacity="0"
     inkscape:pagecheckerboard="0"
     inkscape:deskcolor="#505050"
     inkscape:zoom="8"
     inkscape:cx="25.9375"
     inkscape:cy="27.0625"
     inkscape:window-width="1366"
     inkscape:window-height="715"
     inkscape:window-x="-8"
     inkscape:window-y="-8"
     inkscape:window-maximized="1"
     inkscape:current-layer="svg5" /><defs
     id="defs2" /><path
     id="rect1"
     style="fill:#ffffff;fill-opacity:1;stroke-width:3;stroke-linecap:round;stroke-linejoin:round;paint-order:stroke markers fill;stroke:none"
     d="M 0 0 L 0 13.229167 L 13.229167 13.229167 L 13.229167 0 L 0 0 z M 9.1431114 1.6453776 C 9.4366009 1.6440346 9.729408 1.6829759 9.9585655 1.7626831 C 10.373457 1.9069733 10.767931 2.1621404 11.073743 2.4840862 C 11.476305 2.9078779 11.812481 3.5937811 11.943974 4.2596884 C 11.988404 4.484507 12.001271 5.2254137 11.965161 5.4652996 C 11.950471 5.5621937 11.937523 5.6221488 11.936223 5.5986248 L 11.935706 5.5986248 C 11.931077 5.5100271 11.80318 5.036272 11.729 4.8327801 C 11.627334 4.5538488 11.414721 4.1457135 11.272697 3.9568645 C 11.073642 3.6922128 10.673281 3.3090288 10.385413 3.1078207 C 10.183692 2.9668234 9.8934066 2.8034338 9.7084516 2.7259319 C 9.5430524 2.656618 9.0770589 2.5168278 9.010303 2.5166423 C 8.997214 2.5166045 8.9862409 2.5658965 8.9818809 2.6458334 C 8.9729418 2.8015893 8.9376042 2.8595261 8.8113487 2.9228191 C 8.6645557 2.9964 8.5253556 2.9950198 8.1690106 2.9166179 C 8.0007364 2.8796095 7.8069879 2.8325765 7.7385459 2.8122315 C 7.6195279 2.7768597 7.334953 2.6514876 7.334953 2.6344646 C 7.334953 2.6131436 7.403934 2.4958501 7.4780967 2.3915853 C 7.6632769 2.1312207 7.9973916 1.8862063 8.3245567 1.7704346 C 8.5557312 1.6886304 8.8496221 1.646721 9.1431114 1.6453776 z M 7.3396039 2.9248861 C 7.4197367 2.924126 7.5523344 2.9960613 7.6227907 3.0783651 C 7.7059565 3.175513 7.7663081 3.3364083 7.758183 3.4390667 C 7.752753 3.5074605 7.7567029 3.5183941 7.7891888 3.5191651 C 7.8095728 3.5195447 7.9184176 3.5467666 8.0310345 3.5796266 C 8.3894196 3.6841629 8.6919464 3.8962729 8.8165163 4.1299806 C 8.8499103 4.1926756 8.8743366 4.2469267 8.8707766 4.2503867 C 8.8604011 4.2605708 8.6210948 4.1764537 8.4010378 4.0855388 C 8.095336 3.9592374 7.9109691 3.9195972 7.622274 3.9181072 C 7.3988152 3.9169672 7.3732548 3.9205273 7.2760419 3.9661663 C 7.0225076 4.0850261 6.8895364 4.3352185 6.9525474 4.5749147 C 6.9672384 4.6309968 6.9773882 4.6792749 6.9747682 4.6818849 C 6.9722182 4.6845449 6.9182189 4.6326084 6.8548789 4.5666464 C 6.6706133 4.3747593 6.5554228 4.0887902 6.5561891 3.8250896 C 6.5565421 3.7136651 6.5991281 3.5213918 6.641972 3.4385499 C 6.7551154 3.2197311 7.1533494 2.9264861 7.3396039 2.9248861 z M 8.4031049 4.3552898 C 8.6168067 4.3519898 8.8973482 4.399607 9.1849693 4.4932659 C 9.375034 4.5551567 9.7612694 4.7606903 9.9415123 4.8958253 C 10.135447 5.0412441 10.410436 5.3125095 10.58385 5.5298952 C 10.916063 5.9463391 11.172803 6.5266767 11.248409 7.0321291 C 11.260381 7.1137209 11.281936 7.2290807 11.295952 7.2884442 C 11.313722 7.3647876 11.315793 7.4069477 11.302153 7.4321047 C 11.291783 7.4516767 11.263041 7.5364657 11.238591 7.6207237 C 11.170533 7.8551915 10.959837 8.4077368 10.826213 8.7012779 C 10.751475 8.8654104 10.519395 9.3068465 10.416935 9.4800417 C 10.094767 10.024635 9.8781764 10.34718 9.5332685 10.796241 C 9.2261956 11.196063 8.5184124 11.959007 8.4852704 11.925887 C 8.4732984 11.91374 8.4464244 7.4785533 8.4568484 7.1897422 C 8.4657903 6.9366468 8.4554285 6.9886911 8.4103396 7.4305544 C 8.3899556 7.6294364 8.3525045 7.9425362 8.3271405 8.1261192 C 8.3015355 8.3096998 8.2638979 8.5975909 8.2429079 8.7658734 C 8.1308656 9.6638833 8.055895 10.241008 8.030001 10.404016 C 8.014038 10.504468 7.9764242 10.780264 7.9462852 11.016382 C 7.9162912 11.252502 7.8796152 11.537226 7.8651532 11.649418 C 7.8507872 11.761607 7.8237793 11.997133 7.8057253 12.172901 L 7.7731691 12.492778 L 7.5674969 12.620935 C 7.3360152 12.765228 6.7448068 13.105231 6.7256878 13.105144 C 6.7188277 13.105114 6.6735887 12.977974 6.6249188 12.822473 C 6.4055351 12.121934 6.3186599 11.330205 6.3396649 10.2309 C 6.3545103 9.4539059 6.4033752 8.983229 6.5634238 8.0889122 C 6.7692454 6.938714 7.1737971 5.7647648 7.6088381 5.054472 C 7.8565459 4.6500529 7.9821512 4.4878299 8.1033816 4.4167848 C 8.1704722 4.3774709 8.2748838 4.3572671 8.4031049 4.3552898 z " /></svg>
