<?xml version="1.0" encoding="UTF-8" standalone="no"?>
<!-- Created with Inkscape (http://www.inkscape.org/) -->

<svg
   width="7.9375mm"
   height="7.9375mm"
   viewBox="0 0 7.9375 7.9375"
   version="1.1"
   id="svg5"
   xml:space="preserve"
   inkscape:version="1.2.1 (9c6d41e410, 2022-07-14)"
   sodipodi:docname="desenho.svg"
   xmlns:inkscape="http://www.inkscape.org/namespaces/inkscape"
   xmlns:sodipodi="http://sodipodi.sourceforge.net/DTD/sodipodi-0.dtd"
   xmlns="http://www.w3.org/2000/svg"
   xmlns:svg="http://www.w3.org/2000/svg"><sodipodi:namedview
     id="namedview7"
     pagecolor="#83838e"
     bordercolor="#000000"
     borderopacity="0.25"
     inkscape:showpageshadow="2"
     inkscape:pageopacity="0"
     inkscape:pagecheckerboard="0"
     inkscape:deskcolor="#d1d1d1"
     inkscape:document-units="mm"
     showgrid="false"
     inkscape:zoom="1.2771877"
     inkscape:cx="1025.2996"
     inkscape:cy="583.31285"
     inkscape:current-layer="layer1" /><defs
     id="defs2" /><g
     inkscape:label="Camada 1"
     inkscape:groupmode="layer"
     id="layer1"
     transform="translate(-102.60565,-119.5822)"><path
       id="path766"
       style="fill:#ffffff;stroke:none;stroke-width:0.106004;stroke-linecap:round;stroke-linejoin:round;paint-order:markers stroke fill"
       d="m 103.53954,119.58221 c -0.51733,0 -0.93389,0.41625 -0.93389,0.93358 v 6.07002 c 0,0.51734 0.41656,0.9339 0.93389,0.9339 h 6.06971 c 0.51734,0 0.9339,-0.41656 0.9339,-0.9339 v -6.07002 c 0,-0.51733 -0.41656,-0.93358 -0.9339,-0.93358 z m 0.57362,0.74972 h 4.92279 c 0.41958,0 0.75748,0.3379 0.75748,0.75747 v 4.92281 c 0,0.41956 -0.3379,0.75747 -0.75748,0.75747 h -4.92279 c -0.41958,0 -0.75748,-0.33791 -0.75748,-0.75747 v -4.92281 c 0,-0.41957 0.3379,-0.75747 0.75748,-0.75747 z m 3.61156,0.4961 c -0.0155,-4.5e-4 -0.031,-3e-4 -0.0465,6e-4 -0.0645,0.004 -0.1072,0.0133 -0.16991,0.0375 -0.0966,0.0373 -0.0943,0.035 -0.71159,0.6536 -0.60866,0.60993 -0.60524,0.60629 -0.6443,0.70011 -0.0497,0.11921 -0.0516,0.26581 -0.005,0.38572 0.0343,0.0888 0.0587,0.12142 0.19069,0.25455 l 0.12279,0.12372 0.56554,-0.56555 0.56586,-0.56586 0.34076,0.34044 0.34044,0.34045 -0.56586,0.56585 -0.56586,0.56586 0.11845,0.11721 c 0.065,0.0644 0.13404,0.12774 0.15348,0.14076 0.0579,0.0388 0.12779,0.0674 0.19812,0.0812 0.0568,0.0111 0.17709,0.007 0.23007,-0.008 0.0611,-0.0175 0.10371,-0.037 0.15627,-0.071 0.0408,-0.0264 0.12435,-0.10784 0.60895,-0.595 0.30882,-0.31044 0.57238,-0.57846 0.5857,-0.59562 0.0338,-0.0436 0.0758,-0.13327 0.0905,-0.19255 0.0175,-0.0703 0.0175,-0.17449 0,-0.24433 -0.0149,-0.0597 -0.0512,-0.13789 -0.0853,-0.18355 -0.0352,-0.0472 -1.12824,-1.14888 -1.17264,-1.18194 -0.0869,-0.0647 -0.19224,-0.10075 -0.30044,-0.10387 z m -0.39656,1.63245 c -0.0613,-1.2e-4 -0.10832,0.0111 -0.16124,0.0385 -0.0356,0.0184 -0.0929,0.0738 -0.67282,0.64957 -0.9285,0.92167 -0.89175,0.88359 -0.92181,0.95561 -0.022,0.053 -0.0278,0.0896 -0.0248,0.15627 0.003,0.072 0.0182,0.11743 0.058,0.17611 0.0452,0.0666 0.12251,0.11734 0.20526,0.13456 0.0466,0.009 0.12548,0.007 0.16898,-0.006 0.0168,-0.005 0.048,-0.0182 0.0695,-0.0292 0.0362,-0.0184 0.0924,-0.0728 0.8012,-0.78166 0.71234,-0.71244 0.7631,-0.76463 0.77918,-0.79871 0.009,-0.02 0.0216,-0.0512 0.027,-0.0695 0.0134,-0.0448 0.0134,-0.13255 0,-0.17767 -0.0281,-0.0942 -0.0938,-0.17364 -0.17612,-0.2127 -0.0596,-0.0283 -0.0893,-0.0352 -0.15223,-0.0353 z m -1.90129,0.63004 c -0.095,0.002 -0.18253,0.0297 -0.2651,0.0828 -0.0475,0.0305 -0.10555,0.0871 -0.61825,0.59903 -0.31132,0.31085 -0.57748,0.57992 -0.59128,0.5981 -0.13536,0.17892 -0.13282,0.44642 0.006,0.62477 0.0422,0.0541 1.15905,1.16491 1.19589,1.18939 0.0642,0.0427 0.1257,0.0681 0.19968,0.0825 h 3.1e-4 c 0.0845,0.0164 0.20554,0.002 0.29208,-0.0341 0.0933,-0.0391 0.0925,-0.0384 0.68523,-0.63003 0.30526,-0.30469 0.57059,-0.57342 0.58973,-0.59718 0.0686,-0.0851 0.10746,-0.18781 0.11286,-0.29859 0.005,-0.11023 -0.0199,-0.21221 -0.0738,-0.29796 -0.0404,-0.0643 -0.0611,-0.0876 -0.17549,-0.1972 l -0.0998,-0.0955 -0.56277,0.56523 -0.56244,0.56555 -0.33921,-0.33952 -0.3392,-0.33951 0.56431,-0.56431 0.5643,-0.5643 -0.10852,-0.10883 c -0.12436,-0.125 -0.16103,-0.15511 -0.23068,-0.18883 -0.0673,-0.0326 -0.12493,-0.0467 -0.20278,-0.0509 -0.0139,-6e-4 -0.0277,-0.001 -0.0412,-6e-4 z" /></g></svg>
