<?xml version="1.0" encoding="UTF-8" standalone="no"?>
<!-- Created with Inkscape (http://www.inkscape.org/) -->

<svg
   width="7.9375mm"
   height="7.9375mm"
   viewBox="0 0 7.9375 7.9375"
   version="1.1"
   id="svg5"
   xml:space="preserve"
   inkscape:version="1.2.1 (9c6d41e410, 2022-07-14)"
   sodipodi:docname="desenho.svg"
   xmlns:inkscape="http://www.inkscape.org/namespaces/inkscape"
   xmlns:sodipodi="http://sodipodi.sourceforge.net/DTD/sodipodi-0.dtd"
   xmlns="http://www.w3.org/2000/svg"
   xmlns:svg="http://www.w3.org/2000/svg"><sodipodi:namedview
     id="namedview7"
     pagecolor="#83838e"
     bordercolor="#000000"
     borderopacity="0.25"
     inkscape:showpageshadow="2"
     inkscape:pageopacity="0"
     inkscape:pagecheckerboard="0"
     inkscape:deskcolor="#d1d1d1"
     inkscape:document-units="mm"
     showgrid="false"
     inkscape:zoom="1.2771877"
     inkscape:cx="1025.2996"
     inkscape:cy="583.31285"
     inkscape:current-layer="layer1" /><defs
     id="defs2" /><g
     inkscape:label="Camada 1"
     inkscape:groupmode="layer"
     id="layer1"
     transform="translate(-113.99366,-119.4786)"><path
       id="path1459"
       style="fill:#ffffff;stroke:none;stroke-width:0.0510235;stroke-linecap:round;stroke-linejoin:round;paint-order:markers stroke fill"
       d="m 116.22422,119.47861 c -0.20774,0 -0.37486,0.16743 -0.37486,0.37518 0,0.20774 0.16712,0.37485 0.37486,0.37485 h 3.47607 c 0.20774,0 0.37517,-0.16711 0.37517,-0.37485 0,-0.20775 -0.16743,-0.37518 -0.37517,-0.37518 z m -0.2651,1.34938 c -0.34144,0 -0.61608,0.27465 -0.61608,0.61609 v 4.00626 c 0,0.34144 0.27464,0.6164 0.61608,0.6164 h 4.00627 c 0.34144,0 0.61639,-0.27496 0.61639,-0.6164 v -4.00626 c 0,-0.34144 -0.27495,-0.61609 -0.61639,-0.61609 z m 0.37858,0.49454 h 3.2491 c 0.27692,0 0.50013,0.22321 0.50013,0.50013 v 3.2491 c 0,0.27691 -0.22321,0.49982 -0.50013,0.49982 h -3.2491 c -0.27692,0 -0.49981,-0.22291 -0.49981,-0.49982 v -3.2491 c 0,-0.27692 0.22289,-0.50013 0.49981,-0.50013 z m -1.89693,0.22418 c -0.24773,0 -0.44711,0.19937 -0.44711,0.4471 v 2.9068 c 0,0.24773 0.19938,0.4471 0.44711,0.4471 h 0.64026 v -0.35905 h -0.36555 c -0.20092,0 -0.36277,-0.16186 -0.36277,-0.36277 v -2.35737 c 0,-0.20092 0.16185,-0.36277 0.36277,-0.36277 h 0.36555 v -0.35904 z m 6.4027,0 v 0.35904 h 0.36587 c 0.20092,0 0.36277,0.16185 0.36277,0.36277 v 2.35737 c 0,0.20091 -0.16185,0.36277 -0.36277,0.36277 h -0.36587 v 0.35905 h 0.64028 c 0.24773,0 0.44741,-0.19937 0.44741,-0.4471 v -2.9068 c 0,-0.24773 -0.19968,-0.4471 -0.44741,-0.4471 z m -2.12204,0.10324 c -0.0102,-3e-4 -0.0205,3e-5 -0.0307,6e-4 -0.0426,0.002 -0.0708,0.009 -0.11224,0.0248 -0.0638,0.0246 -0.062,0.023 -0.46943,0.43129 -0.40172,0.40256 -0.39962,0.40007 -0.4254,0.46199 -0.0328,0.0787 -0.0339,0.17542 -0.004,0.25456 0.0227,0.0586 0.0388,0.0802 0.12589,0.16805 l 0.0809,0.0815 0.37331,-0.373 0.37331,-0.37362 0.2251,0.2248 0.22449,0.22448 -0.37332,0.37362 -0.37362,0.37331 0.0781,0.0775 c 0.043,0.0425 0.0886,0.0844 0.10139,0.093 0.0382,0.0256 0.0844,0.0445 0.13084,0.0536 0.0375,0.007 0.11697,0.005 0.15193,-0.005 0.0403,-0.0116 0.0683,-0.0244 0.10294,-0.0468 0.0269,-0.0174 0.082,-0.0713 0.40184,-0.39284 0.20382,-0.20489 0.37785,-0.38152 0.38664,-0.39285 0.0223,-0.0287 0.0501,-0.088 0.0598,-0.12712 0.0115,-0.0464 0.0115,-0.11513 0,-0.16123 -0.01,-0.0394 -0.034,-0.0911 -0.0564,-0.12124 -0.0232,-0.0312 -0.7446,-0.75828 -0.7739,-0.7801 -0.0574,-0.0427 -0.12672,-0.0665 -0.19813,-0.0685 z m 2.12204,0.65919 v 0.6505 l 3.2e-4,3.1e-4 -3.2e-4,3.1e-4 v 0.54167 c 0.04,-0.0398 0.0891,-0.0887 0.16031,-0.16029 0.14788,-0.14865 0.27391,-0.27704 0.28029,-0.28526 0.0162,-0.0208 0.0363,-0.064 0.0434,-0.0924 0.008,-0.0337 0.008,-0.0834 0,-0.11689 -0.007,-0.0286 -0.0243,-0.0659 -0.0406,-0.0877 -0.0121,-0.0163 -0.21602,-0.4502 -0.44339,-0.4502 z m -2.38373,0.41796 v 3.1e-4 c -0.0404,-8e-5 -0.0714,0.007 -0.10635,0.0254 -0.0235,0.0122 -0.0613,0.0488 -0.444,0.42881 -0.6128,0.6083 -0.58881,0.58314 -0.60864,0.63066 -0.0145,0.035 -0.0181,0.0592 -0.0161,0.10325 0.002,0.0475 0.0119,0.0775 0.0382,0.11627 0.0298,0.044 0.0809,0.0773 0.13549,0.0887 0.0308,0.006 0.0829,0.005 0.11162,-0.004 0.0111,-0.003 0.0314,-0.012 0.0456,-0.0192 0.0239,-0.0122 0.0612,-0.0481 0.52896,-0.51593 0.47014,-0.47021 0.50346,-0.50461 0.51407,-0.5271 0.006,-0.0132 0.0145,-0.0339 0.018,-0.0459 0.009,-0.0295 0.009,-0.0874 0,-0.11721 -0.0185,-0.0622 -0.0619,-0.11468 -0.11626,-0.14045 -0.0393,-0.0187 -0.059,-0.0232 -0.10047,-0.0233 z m -1.2548,0.4161 c -0.0627,0.002 -0.12038,0.0199 -0.17488,0.0549 -0.0313,0.0201 -0.0697,0.0574 -0.40803,0.39532 -0.20548,0.20516 -0.38126,0.3827 -0.39036,0.3947 -0.0893,0.11809 -0.0878,0.29467 0.004,0.41238 0.0278,0.0357 0.7651,0.76891 0.78941,0.78507 0.0424,0.0282 0.0829,0.0448 0.13177,0.0542 h 3.1e-4 c 0.0558,0.0108 0.13575,0.002 0.19286,-0.0223 0.0616,-0.0258 0.0609,-0.0256 0.45207,-0.4161 0.20146,-0.20111 0.37648,-0.3784 0.38912,-0.39408 0.0452,-0.0562 0.0712,-0.12378 0.0747,-0.19689 0.004,-0.0728 -0.0131,-0.14029 -0.0487,-0.19689 -0.0266,-0.0425 -0.0404,-0.0575 -0.11596,-0.12991 l -0.066,-0.0633 -0.37114,0.37332 -0.37145,0.37299 -0.22386,-0.22386 -0.22386,-0.22417 0.37238,-0.37238 0.37269,-0.37238 -0.0716,-0.0719 c -0.0821,-0.0825 -0.10627,-0.10239 -0.15224,-0.12465 -0.0444,-0.0215 -0.0826,-0.0307 -0.13395,-0.0335 -0.009,-3.9e-4 -0.0184,-6e-4 -0.0273,-6e-4 z m -2.12391,0.25145 c -0.0397,0.0394 -0.089,0.0879 -0.15967,0.15844 -0.14909,0.14886 -0.2765,0.27811 -0.28309,0.28681 -0.0648,0.0857 -0.0634,0.21379 0.003,0.2992 0.0142,0.0181 0.27475,0.2785 0.43936,0.4406 z m 1.14319,3.27143 c -0.20774,0 -0.37486,0.16712 -0.37486,0.37486 0,0.20775 0.16712,0.37517 0.37486,0.37517 h 3.47607 c 0.20774,0 0.37517,-0.16742 0.37517,-0.37517 0,-0.20774 -0.16743,-0.37486 -0.37517,-0.37486 z" /></g></svg>
