<?xml version="1.0" encoding="UTF-8" standalone="no"?>
<!-- Created with Inkscape (http://www.inkscape.org/) -->

<svg
   width="6.3499999mm"
   height="6.3499322mm"
   viewBox="0 0 6.3499998 6.3499322"
   version="1.1"
   id="svg1"
   xml:space="preserve"
   inkscape:version="1.3.2 (091e20e, 2023-11-25, custom)"
   sodipodi:docname="top bar.svg"
   xmlns:inkscape="http://www.inkscape.org/namespaces/inkscape"
   xmlns:sodipodi="http://sodipodi.sourceforge.net/DTD/sodipodi-0.dtd"
   xmlns="http://www.w3.org/2000/svg"
   xmlns:svg="http://www.w3.org/2000/svg"><sodipodi:namedview
     id="namedview1"
     pagecolor="#ffffff"
     bordercolor="#000000"
     borderopacity="0.25"
     inkscape:showpageshadow="2"
     inkscape:pageopacity="0.0"
     inkscape:pagecheckerboard="0"
     inkscape:deskcolor="#d1d1d1"
     inkscape:document-units="mm"
     inkscape:export-bgcolor="#ffffff00"
     inkscape:zoom="1.9339989"
     inkscape:cx="430.97233"
     inkscape:cy="64.891455"
     inkscape:window-width="1366"
     inkscape:window-height="715"
     inkscape:window-x="-8"
     inkscape:window-y="-8"
     inkscape:window-maximized="1"
     inkscape:current-layer="layer1" /><defs
     id="defs1" /><g
     inkscape:label="Camada 1"
     inkscape:groupmode="layer"
     id="layer1"
     transform="translate(-77.522921,-0.79378384)"><g
       style="fill:#ffffff"
       id="g23"
       transform="matrix(0.3175,0,0,0.3175,76.887926,0.1587839)"><path
         d="M 20.25,6 H 19 v 2 h 1 v 8 h -3 a 1,1 0 0 0 -1,1 v 1.586 L 13.707,16.293 A 1,1 0 0 0 13,16 h -2.172 l -2,2 h 3.758 l 3.707,3.707 A 1,1 0 0 0 18,21 v -3 h 2.25 A 1.752,1.752 0 0 0 22,16.25 V 7.75 A 1.752,1.752 0 0 0 20.25,6 Z"
         id="path1-7"
         style="fill:#ffffff" /><path
         d="M 7,18 A 1,1 0 0 1 6,17 V 14 H 3.75 A 1.752,1.752 0 0 1 2,12.25 V 3.75 A 1.752,1.752 0 0 1 3.75,2 h 12.5 A 1.752,1.752 0 0 1 18,3.75 v 8.5 A 1.762,1.762 0 0 1 17.486,13.488 1.736,1.736 0 0 1 16.25,14 H 11.414 L 7.707,17.707 A 1,1 0 0 1 7,18 Z M 4,12 h 3 a 1,1 0 0 1 1,1 v 1.586 l 2.293,-2.293 A 1,1 0 0 1 11,12 h 5 V 4 H 4 Z"
         id="path2-0"
         style="fill:#ffffff" /></g></g></svg>
