<?xml version="1.0" encoding="UTF-8" standalone="no"?>
<!-- Created with Inkscape (http://www.inkscape.org/) -->

<svg
   width="7.9375mm"
   height="7.9375mm"
   viewBox="0 0 7.9375 7.9375"
   version="1.1"
   id="svg5"
   xml:space="preserve"
   inkscape:version="1.2.1 (9c6d41e410, 2022-07-14)"
   sodipodi:docname="desenho.svg"
   xmlns:inkscape="http://www.inkscape.org/namespaces/inkscape"
   xmlns:sodipodi="http://sodipodi.sourceforge.net/DTD/sodipodi-0.dtd"
   xmlns="http://www.w3.org/2000/svg"
   xmlns:svg="http://www.w3.org/2000/svg"><sodipodi:namedview
     id="namedview7"
     pagecolor="#83838e"
     bordercolor="#000000"
     borderopacity="0.25"
     inkscape:showpageshadow="2"
     inkscape:pageopacity="0"
     inkscape:pagecheckerboard="0"
     inkscape:deskcolor="#d1d1d1"
     inkscape:document-units="mm"
     showgrid="false"
     inkscape:zoom="1.2771877"
     inkscape:cx="1025.2996"
     inkscape:cy="583.31285"
     inkscape:current-layer="layer1" /><defs
     id="defs2" /><g
     inkscape:label="Camada 1"
     inkscape:groupmode="layer"
     id="layer1"
     transform="translate(-102.60565,-79.336912)"><path
       id="rect234"
       style="fill:#ffffff;stroke:none;stroke-width:0.106004;stroke-linecap:round;stroke-linejoin:round;paint-order:markers stroke fill"
       d="m 103.53947,79.336911 c -0.51734,0 -0.93382,0.416484 -0.93382,0.933822 v 6.069858 c 0,0.517338 0.41648,0.933822 0.93382,0.933822 h 6.06986 c 0.51734,0 0.93382,-0.416484 0.93382,-0.933822 v -6.069858 c 0,-0.517338 -0.41648,-0.933822 -0.93382,-0.933822 z m 0.57354,0.749982 h 4.9229 c 0.41957,0 0.75732,0.33774 0.75732,0.75732 v 4.922898 c 0,0.419574 -0.33775,0.757374 -0.75732,0.757374 h -4.9229 c -0.41958,0 -0.75738,-0.3378 -0.75738,-0.757374 v -4.922898 c 0,-0.41958 0.3378,-0.75732 0.75738,-0.75732 z m 0.21873,0.65724 v 1.68939 c 0,0.208356 0.0394,0.357552 0.11827,0.447654 0.0816,0.08729 0.18581,0.13098 0.31251,0.13098 0.12952,0 0.23373,-0.04368 0.31257,-0.13098 0.0816,-0.0901 0.12249,-0.239298 0.12249,-0.447654 v -0.81939 h 0.9376 v 3.387276 h -0.57864 c -0.20835,0 -0.35755,0.0408 -0.44765,0.122484 -0.0873,0.07883 -0.13097,0.18159 -0.13097,0.308298 0,0.129516 0.0437,0.235134 0.13097,0.316782 0.0901,0.07884 0.2393,0.118218 0.44765,0.118218 h 2.02728 c 0.20836,0 0.3562,-0.03936 0.44349,-0.118218 0.0901,-0.08165 0.13514,-0.185862 0.13514,-0.312564 0,-0.129522 -0.0451,-0.233682 -0.13514,-0.312516 -0.0873,-0.08165 -0.23513,-0.122484 -0.44349,-0.122484 h -0.5828 v -3.387276 h 0.95025 v 0.81939 c 0,0.208356 0.0394,0.357552 0.11828,0.447654 0.0816,0.08729 0.1858,0.13098 0.31251,0.13098 0.12952,0 0.23373,-0.04368 0.31257,-0.13098 0.0817,-0.0901 0.12249,-0.239298 0.12249,-0.447654 v -1.685172 z" /></g></svg>
