<?xml version="1.0" encoding="UTF-8" standalone="no"?>
<!-- Created with Inkscape (http://www.inkscape.org/) -->

<svg
   width="24.000051"
   height="24.000038"
   viewBox="0 0 6.3500135 6.3500101"
   version="1.1"
   id="svg1"
   xml:space="preserve"
   inkscape:export-filename="close-icon.svg"
   inkscape:export-xdpi="96"
   inkscape:export-ydpi="96"
   xmlns:inkscape="http://www.inkscape.org/namespaces/inkscape"
   xmlns:sodipodi="http://sodipodi.sourceforge.net/DTD/sodipodi-0.dtd"
   xmlns="http://www.w3.org/2000/svg"
   xmlns:svg="http://www.w3.org/2000/svg"><sodipodi:namedview
     id="namedview1"
     pagecolor="#505050"
     bordercolor="#ffffff"
     borderopacity="1"
     inkscape:showpageshadow="0"
     inkscape:pageopacity="0"
     inkscape:pagecheckerboard="1"
     inkscape:deskcolor="#505050"
     inkscape:document-units="mm"
     inkscape:zoom="21.791632"
     inkscape:cx="11.977074"
     inkscape:cy="12.000019"
     inkscape:window-width="1366"
     inkscape:window-height="715"
     inkscape:window-x="-8"
     inkscape:window-y="-8"
     inkscape:window-maximized="1"
     inkscape:current-layer="layer1" /><defs
     id="defs1" /><g
     inkscape:label="Camada 1"
     inkscape:groupmode="layer"
     id="layer1"><path
       style="fill:#ffffff;stroke-width:0.0506337"
       d="m 2.5854349,6.336612 c 0,-0.0074 -0.0081,-0.0134 -0.01796,-0.0134 -0.04521,0 -0.184966,-0.08657 -0.248924,-0.154193 -0.105543,-0.111592 -0.126428,-0.169066 -0.132608,-0.364926 -0.0028,-0.09026 -0.0084,-0.164109 -0.01236,-0.164109 -0.0039,0 -0.0551,0.04578 -0.113661,0.101726 -0.135215,0.12918 -0.214968,0.166878 -0.372832,0.176231 -0.133512,0.0079 -0.238466,-0.01641 -0.334187,-0.07743 -0.03316,-0.02114 -0.22424,-0.20314 -0.42462798,-0.404448 -0.324489,-0.32598 -0.368956,-0.375876 -0.406528,-0.456164 -0.07681,-0.164143 -0.06778,-0.359573 0.02399,-0.518819 0.01911,-0.03316 0.07418,-0.101282 0.122373,-0.15139 0.119394,-0.124127 0.112606,-0.133918 -0.100335,-0.144727 -0.166497,-0.0085 -0.231,-0.0252 -0.32454,-0.08424 -0.08239,-0.05201 -0.139534,-0.115284 -0.183539,-0.203231 -0.02189,-0.04375 -0.04432,-0.08155 -0.04985,-0.08401 -0.01327,-0.0059 -0.01307,-1.167739 2.02e-4,-1.167739 0.0056,0 0.02078,-0.02963 0.03364,-0.06586 0.05261,-0.14812 0.214846,-0.304532 0.367893,-0.354685 0.03518,-0.01153 0.119759,-0.02219 0.188514,-0.02378 0.06859,-0.0016 0.127047,-0.0067 0.129907,-0.01128 0.0029,-0.0046 -0.03056,-0.04349 -0.07427,-0.08637 -0.09485,-0.09304 -0.13951,-0.165365 -0.1668,-0.270133 -0.03834,-0.147201 -0.02098,-0.281278 0.05434,-0.419661 0.02307,-0.04238 0.165096,-0.193529 0.412359,-0.438837 C 1.2957829,0.617673 1.3413489,0.577189 1.4198829,0.542668 c 0.160598,-0.07059 0.354472,-0.05914 0.509088,0.03009 0.03316,0.01914 0.09759,0.07049 0.143173,0.11413 0.04559,0.04364 0.0893,0.07538 0.09713,0.07054 0.0084,-0.0052 0.01424,-0.06033 0.01424,-0.134997 0,-0.160447 0.03303,-0.266321 0.11844,-0.379685 0.06592,-0.08749 0.205121,-0.194992 0.271319,-0.209531 0.02142,-0.0047 0.03895,-0.0141 0.03895,-0.02089 0,-0.0073 0.231486,-0.01233 0.569374,-0.01233 0.370652,0 0.569374,0.0047 0.569374,0.0134 0,0.0074 0.0081,0.0134 0.0181,0.0134 0.03622,0 0.150915,0.07054 0.214043,0.131646 0.127719,0.12362 0.170617,0.229826 0.181773,0.450037 0.0053,0.104662 0.01355,0.161494 0.02394,0.164925 0.0087,0.0029 0.05996,-0.03623 0.113875,-0.0869 0.166325,-0.156332 0.264588,-0.197346 0.451412,-0.188414 0.09564,0.0046 0.132382,0.0132 0.209524,0.04918 0.08531,0.03979 0.126706,0.07689 0.47024,0.421366 0.407131,0.408254 0.426904,0.434335 0.460933,0.607987 0.03373,0.172141 -0.0321,0.355985 -0.178997,0.49986 -0.0489,0.04789 -0.08899,0.09096 -0.08908,0.09571 -1.01e-4,0.0048 0.07066,0.01104 0.157242,0.01398 0.144282,0.0049 0.164122,0.0088 0.237798,0.04683 0.04421,0.02281 0.111237,0.07235 0.14895,0.110082 0.06536,0.06539 0.152483,0.214437 0.152483,0.260855 0,0.01199 0.006,0.0218 0.0134,0.0218 0.0087,0 0.0134,0.203183 0.0134,0.582754 0,0.320514 -0.0046,0.582753 -0.01025,0.582753 -0.0056,0 -0.02148,0.03161 -0.0352,0.07024 -0.03433,0.09664 -0.160538,0.220154 -0.269802,0.264025 -0.06614,0.02655 -0.110057,0.03306 -0.254118,0.03765 -0.09579,0.003 -0.179189,0.01034 -0.185334,0.01621 -0.0061,0.0059 0.038,0.06287 0.09811,0.126677 0.164985,0.175148 0.22693,0.334773 0.200531,0.516738 -0.01418,0.09771 -0.03502,0.153722 -0.08726,0.234441 -0.05266,0.08137 -0.714546,0.740965 -0.789674,0.786937 -0.08818,0.05396 -0.186537,0.08001 -0.299051,0.0792 -0.168196,-0.0012 -0.277632,-0.05134 -0.430153,-0.197054 -0.05741,-0.05485 -0.107762,-0.09973 -0.111883,-0.09973 -0.0041,0 -0.0095,0.07686 -0.01191,0.170807 -0.0039,0.151658 -0.0084,0.179331 -0.04006,0.246835 -0.0196,0.04181 -0.06028,0.102761 -0.0904,0.135434 -0.05417,0.05876 -0.192499,0.143549 -0.234203,0.143549 -0.01186,0 -0.02157,0.006 -0.02157,0.0134 0,0.0087 -0.207654,0.0134 -0.596169,0.0134 -0.388514,0 -0.596168,-0.0047 -0.596168,-0.0134 z m 1.089153,-0.472231 c 0.01963,-0.0146 0.02296,-0.05275 0.026,-0.298075 l 0.0035,-0.281329 0.130039,-0.04207 c 0.07152,-0.02314 0.200671,-0.07603 0.287,-0.11754 l 0.15696,-0.07547 0.201993,0.201209 c 0.170383,0.169722 0.208281,0.201211 0.242183,0.201219 0.03462,9e-6 0.08559,-0.04532 0.367701,-0.327018 0.180131,-0.179866 0.331571,-0.338091 0.336533,-0.351612 0.005,-0.01352 0.0044,-0.03664 -0.0012,-0.05138 -0.0056,-0.01474 -0.09501,-0.11722 -0.198663,-0.227742 -0.103655,-0.110523 -0.188711,-0.207596 -0.189013,-0.21572 -3.04e-4,-0.0081 0.02911,-0.07765 0.06536,-0.154496 0.03625,-0.07685 0.08569,-0.204337 0.109858,-0.283305 l 0.04395,-0.143579 h 0.296072 c 0.212416,0 0.300615,-0.0045 0.312149,-0.01608 0.01187,-0.01187 0.01607,-0.135282 0.01606,-0.472231 -1.9e-5,-0.407443 -0.0025,-0.461162 -0.02345,-0.503043 l -0.02342,-0.04689 -0.281338,-0.0067 -0.281338,-0.0067 -0.04791,-0.140664 c -0.02635,-0.07737 -0.07989,-0.203928 -0.118987,-0.281249 l -0.07108,-0.140585 0.196336,-0.187633 c 0.168089,-0.160638 0.196291,-0.1934 0.19602,-0.227724 -2.53e-4,-0.03435 -0.0478,-0.0876 -0.331792,-0.371756 -0.282246,-0.282406 -0.337307,-0.331665 -0.37073,-0.331665 -0.03255,0 -0.07194,0.03241 -0.230725,0.189834 L 4.3011849,1.34422 4.1298979,1.26323 C 4.0356879,1.21868 3.8998309,1.162905 3.8279899,1.139274 L 3.6973689,1.096314 V 0.821507 c 0,-0.25635 -0.0019,-0.277421 -0.02771,-0.313716 l -0.02771,-0.03891 h -0.45591 -0.455911 l -0.03887,0.04161 -0.03887,0.04161 v 0.26469 0.264689 l -0.144019,0.05038 c -0.07921,0.02771 -0.215077,0.0838 -0.301928,0.124638 L 2.0485319,1.330758 1.8637439,1.147662 C 1.7121489,0.997456 1.6720109,0.964566 1.6402959,0.964566 c -0.03258,0 -0.08858,0.04987 -0.356395,0.317364 -0.174754,0.17455 -0.32493998,0.330826 -0.33374698,0.34728 -0.0088,0.01645 -0.01248,0.044 -0.0082,0.06122 0.0043,0.01722 0.08903,0.105446 0.18823298,0.196065 l 0.180376,0.16476 -0.08273,0.170026 c -0.0455,0.09351 -0.102936,0.228678 -0.127632,0.300364 l -0.0449,0.130339 -0.26267398,0.0036 -0.262674,0.0036 -0.03066,0.04552 c -0.03047,0.04524 -0.03066,0.04837 -0.03066,0.505252 0,0.440811 0.0011,0.460301 0.02591,0.473599 0.01544,0.0083 0.136638,0.01387 0.299849,0.01387 H 1.0683279 l 0.05608,0.164108 c 0.03084,0.09026 0.08664,0.228676 0.124,0.307591 l 0.06792,0.143482 -0.182882,0.189814 c -0.100585,0.104398 -0.18630598,0.203458 -0.19049098,0.220133 -0.0042,0.01668 0.0015,0.04755 0.01258,0.0686 0.0111,0.02106 0.16109798,0.178446 0.33332098,0.349755 0.283934,0.282428 0.317329,0.311471 0.358143,0.311471 0.04036,0 0.06454,-0.02013 0.233795,-0.194626 l 0.188783,-0.194626 0.127272,0.06292 c 0.07,0.03461 0.199616,0.08767 0.288036,0.117905 l 0.160765,0.05498 0.0067,0.279687 c 0.0063,0.264027 0.0082,0.280271 0.03349,0.290126 0.01474,0.0057 0.238153,0.01086 0.496479,0.01138 0.356042,7.14e-4 0.475132,-0.0031 0.492196,-0.0158 z M 2.9466819,4.274309 c -0.233525,-0.04928 -0.427078,-0.158659 -0.591215,-0.3341 -0.05404,-0.05776 -0.118352,-0.138635 -0.142909,-0.17971 -0.217155,-0.36322 -0.21717,-0.799274 -4.1e-5,-1.167522 0.07205,-0.122193 0.256924,-0.306232 0.383193,-0.381459 0.458414,-0.273107 1.034784,-0.19067 1.400536,0.200316 0.152857,0.163401 0.243342,0.339152 0.283441,0.550533 0.149325,0.787154 -0.551465,1.476871 -1.333005,1.311942 z m 0.335399,-0.429853 c 0.04792,-0.0075 0.13049,-0.03473 0.183602,-0.06062 0.42472,-0.206973 0.517961,-0.759245 0.183544,-1.087133 -0.272229,-0.266914 -0.683395,-0.266273 -0.951158,0.0015 -0.422685,0.422672 -0.138224,1.12352 0.470137,1.158314 0.01474,8.43e-4 0.06598,-0.0046 0.113875,-0.01205 z"
       id="path2"
       inkscape:export-filename="settings.svg"
       inkscape:export-xdpi="96"
       inkscape:export-ydpi="96" /></g></svg>
