<?xml version="1.0" encoding="UTF-8" standalone="no"?>
<!-- Created with Inkscape (http://www.inkscape.org/) -->

<svg
   width="7.9375mm"
   height="7.9375mm"
   viewBox="0 0 7.9375 7.9375"
   version="1.1"
   id="svg5"
   xml:space="preserve"
   inkscape:version="1.2.1 (9c6d41e410, 2022-07-14)"
   sodipodi:docname="desenho.svg"
   xmlns:inkscape="http://www.inkscape.org/namespaces/inkscape"
   xmlns:sodipodi="http://sodipodi.sourceforge.net/DTD/sodipodi-0.dtd"
   xmlns="http://www.w3.org/2000/svg"
   xmlns:svg="http://www.w3.org/2000/svg"><sodipodi:namedview
     id="namedview7"
     pagecolor="#83838e"
     bordercolor="#000000"
     borderopacity="0.25"
     inkscape:showpageshadow="2"
     inkscape:pageopacity="0"
     inkscape:pagecheckerboard="0"
     inkscape:deskcolor="#d1d1d1"
     inkscape:document-units="mm"
     showgrid="false"
     inkscape:zoom="5.1087508"
     inkscape:cx="427.69751"
     inkscape:cy="492.09681"
     inkscape:current-layer="layer1" /><defs
     id="defs2" /><g
     inkscape:label="Camada 1"
     inkscape:groupmode="layer"
     id="layer1"
     transform="translate(-102.60562,-130.6654)"><path
       id="path2522"
       style="color:#000000;fill:#ffffff;stroke-width:0.0607596;stroke-linecap:round;stroke-linejoin:round;paint-order:markers stroke fill"
       d="m 103.53942,130.66541 c -0.51733,0 -0.9338,0.41647 -0.9338,0.9338 v 6.06991 c 0,0.51734 0.41647,0.93379 0.9338,0.93379 h 6.06991 c 0.51734,0 0.93379,-0.41645 0.93379,-0.93379 v -6.06991 c 0,-0.51733 -0.41645,-0.9338 -0.93379,-0.9338 z m 0.5736,0.74983 h 4.9227 c 0.41958,0 0.75758,0.338 0.75758,0.75757 v 4.9227 c 0,0.41956 -0.338,0.75758 -0.75758,0.75758 h -4.9227 c -0.41957,0 -0.75757,-0.33802 -0.75757,-0.75758 v -4.9227 c 0,-0.41957 0.338,-0.75757 0.75757,-0.75757 z m 4.89996,0.94309 c -0.016,-1.8e-4 -0.032,2.9e-4 -0.0481,0.001 -0.41449,0.0144 -0.82902,0.16554 -1.12655,0.46043 -0.25478,0.26144 -0.40485,0.60164 -0.5488,0.93173 -0.17926,0.42544 -0.33317,0.86166 -0.48215,1.29759 -0.0293,0.0795 -0.13116,0.0773 -0.19843,0.0796 -0.50543,0.0436 -1.01521,0.0645 -1.52136,0.0202 -0.0802,-0.0121 -0.16899,-0.014 -0.23771,-0.0605 -0.0759,-0.0921 -0.0987,-0.21365 -0.13487,-0.32453 -0.0599,-0.2152 -0.10616,-0.43511 -0.1292,-0.65732 0.004,-0.0769 0.0904,-0.11632 0.15865,-0.10387 0.63078,-1.9e-4 1.2617,0.004 1.89239,-0.003 0.19187,-0.0209 0.34367,-0.21699 0.31058,-0.40825 -0.0224,-0.16465 -0.17042,-0.30226 -0.33797,-0.30541 -0.12764,-0.006 -0.25568,0.002 -0.38344,-0.001 -0.7069,8.8e-4 -1.41401,-0.004 -2.1208,0.004 -0.18634,0.0223 -0.33558,0.21018 -0.30695,0.3974 0.023,0.24624 0.0628,0.49165 0.10438,0.73639 0.0597,0.32559 0.13447,0.65157 0.26562,0.95653 0.0948,0.19462 0.26255,0.36602 0.47904,0.41547 0.30109,0.0858 0.61445,0.0907 0.92604,0.0966 0.49166,0.002 0.98096,-0.0268 1.4702,-0.0708 0.10586,-0.006 0.21308,-0.0471 0.27905,-0.13332 0.0798,-0.10083 0.0965,-0.23269 0.14314,-0.34933 0.21454,-0.63071 0.44337,-1.26004 0.75758,-1.84899 0.0969,-0.16836 0.26201,-0.28928 0.44545,-0.3483 0.14204,-0.0506 0.29367,-0.0603 0.44235,-0.0723 0.19286,-0.0409 0.32575,-0.26033 0.26407,-0.44959 -0.04,-0.1401 -0.17456,-0.25211 -0.31471,-0.25735 -0.0159,-0.002 -0.0315,-0.002 -0.0476,-0.003 z m -4.03954,3.66128 c -0.009,4e-5 -0.0174,5.1e-4 -0.0264,0.001 -0.16611,0.006 -0.33079,0.12358 -0.38964,0.28319 -0.0819,0.19807 0.007,0.44614 0.19431,0.5488 0.17694,0.1034 0.42273,0.0653 0.55552,-0.0925 0.14008,-0.15516 0.14836,-0.41035 0.0139,-0.57154 -0.0833,-0.10453 -0.21344,-0.1697 -0.34727,-0.16898 z m 1.64279,0 c -0.009,5e-5 -0.0179,5.1e-4 -0.0269,0.001 -0.16657,0.006 -0.33178,0.12438 -0.39016,0.28474 -0.0839,0.20393 0.014,0.45932 0.21188,0.55604 0.17918,0.0945 0.41967,0.0488 0.54673,-0.11059 0.13382,-0.15697 0.13729,-0.40724 0.004,-0.56534 -0.0839,-0.10284 -0.21238,-0.16662 -0.3452,-0.16588 z" /></g></svg>
