<?xml version="1.0" encoding="UTF-8" standalone="no"?>
<!-- Uploaded to: SVG Repo, www.svgrepo.com, Transformed by: SVG Repo Mixer Tools -->

<svg
   width="64px"
   height="64px"
   viewBox="-2.4 -2.4 28.80 28.80"
   fill="none"
   stroke="#00000000"
   stroke-width="0.00024000000000000003"
   transform="rotate(0)matrix(1, 0, 0, 1, 0, 0)"
   version="1.1"
   id="svg4"
   sodipodi:docname="smile-circle.svg"
   inkscape:version="1.3.2 (091e20e, 2023-11-25, custom)"
   xmlns:inkscape="http://www.inkscape.org/namespaces/inkscape"
   xmlns:sodipodi="http://sodipodi.sourceforge.net/DTD/sodipodi-0.dtd"
   xmlns="http://www.w3.org/2000/svg"
   xmlns:svg="http://www.w3.org/2000/svg">
  <defs
     id="defs4" />
  <sodipodi:namedview
     id="namedview4"
     pagecolor="#ffffff"
     bordercolor="#000000"
     borderopacity="0.25"
     inkscape:showpageshadow="2"
     inkscape:pageopacity="0.0"
     inkscape:pagecheckerboard="0"
     inkscape:deskcolor="#d1d1d1"
     inkscape:zoom="4.6072426"
     inkscape:cx="5.3177143"
     inkscape:cy="35.921703"
     inkscape:window-width="1366"
     inkscape:window-height="715"
     inkscape:window-x="-8"
     inkscape:window-y="-8"
     inkscape:window-maximized="1"
     inkscape:current-layer="svg4" />
  <path
     id="path4"
     style="fill:#ffffff"
     d="M 12 1.9998047 C 6.4771555 1.9998047 1.9998047 6.4771555 1.9998047 12 C 1.9998047 17.522794 6.4771555 22.000195 12 22.000195 C 17.522794 22.000195 22.000195 17.522794 22.000195 12 C 22.000195 6.4771555 17.522794 1.9998047 12 1.9998047 z M 8.6337891 7.5114258 C 9.2534952 7.5114258 9.7552734 8.0140829 9.7552734 8.6337891 L 9.7552734 9.7552734 C 9.7552734 10.375002 9.2534952 10.877637 8.6337891 10.877637 C 8.0140831 10.877637 7.5114258 10.375002 7.5114258 9.7552734 L 7.5114258 8.6337891 C 7.5114258 8.0140829 8.0140831 7.5114258 8.6337891 7.5114258 z M 15.366211 7.5114258 C 15.985939 7.5114258 16.488574 8.0140829 16.488574 8.6337891 L 16.488574 9.7552734 C 16.488574 10.375002 15.985939 10.877637 15.366211 10.877637 C 14.746484 10.877637 14.244727 10.375002 14.244727 9.7552734 L 14.244727 8.6337891 C 14.244727 8.0140829 14.746484 7.5114258 15.366211 7.5114258 z M 8.9255859 13.105664 C 9.3291226 13.095206 9.7275253 13.339629 9.9978516 13.664648 C 10.133624 13.827912 10.289542 13.974781 10.462793 14.101465 C 10.891655 14.415089 11.405635 14.59053 11.936719 14.60332 C 12.467915 14.616111 12.990926 14.466176 13.434375 14.173535 C 13.613573 14.055267 13.777009 13.916101 13.92041 13.75957 C 14.271961 13.375936 14.81009 13.122724 15.293262 13.315723 C 15.776422 13.508833 16.019577 14.064632 15.730078 14.496973 C 15.399848 14.990129 14.972927 15.416435 14.472363 15.746777 C 13.707998 16.251155 12.807406 16.508916 11.891895 16.486816 C 10.976384 16.464823 10.089328 16.16336 9.3500977 15.622852 C 8.8659846 15.268721 8.4608905 14.82269 8.1547852 14.31416 C 7.8864269 13.868355 8.1559287 13.32531 8.6478516 13.155762 C 8.7400871 13.123972 8.832462 13.108164 8.9255859 13.105664 z " />
  <g
     id="SVGRepo_bgCarrier"
     stroke-width="0" />
  <g
     id="SVGRepo_tracerCarrier"
     stroke-linecap="round"
     stroke-linejoin="round"
     stroke="#CCCCCC"
     stroke-width="0.24000000000000005" />
</svg>
