<?xml version="1.0" encoding="UTF-8" standalone="no"?>
<!-- Created with Inkscape (http://www.inkscape.org/) -->

<svg
   width="5.7769084mm"
   height="6.3499999mm"
   viewBox="0 0 5.7769083 6.3499999"
   version="1.1"
   id="svg1"
   xml:space="preserve"
   xmlns:inkscape="http://www.inkscape.org/namespaces/inkscape"
   xmlns:sodipodi="http://sodipodi.sourceforge.net/DTD/sodipodi-0.dtd"
   xmlns="http://www.w3.org/2000/svg"
   xmlns:svg="http://www.w3.org/2000/svg"><sodipodi:namedview
     id="namedview1"
     pagecolor="#ffffff"
     bordercolor="#000000"
     borderopacity="0.25"
     inkscape:showpageshadow="2"
     inkscape:pageopacity="0.0"
     inkscape:pagecheckerboard="0"
     inkscape:deskcolor="#d1d1d1"
     inkscape:document-units="mm"
     inkscape:export-bgcolor="#ffffff00" /><defs
     id="defs1" /><g
     inkscape:label="Camada 1"
     inkscape:groupmode="layer"
     id="layer1"
     transform="translate(-201.93961,-40.091091)"><path
       id="path1"
       style="fill:#00DD88;stroke-width:0.220486"
       d="m 203.68162,40.091093 c -0.11025,0 -0.1986,0.06598 -0.22065,0.176217 -0.17639,0.926041 -0.41859,1.168748 -1.34462,1.345137 -0.0882,0.02205 -0.17674,0.110416 -0.17674,0.220658 0,0.110244 0.0665,0.198093 0.17674,0.220142 0.92603,0.176388 1.16823,0.419097 1.34462,1.345138 0.0221,0.110242 0.1104,0.176216 0.22065,0.176216 0.11024,0 0.19861,-0.08802 0.22066,-0.176216 0.17639,-0.926041 0.41858,-1.16875 1.34462,-1.345138 0.11024,-0.02205 0.17674,-0.109898 0.17674,-0.220142 0,-0.110242 -0.0666,-0.198609 -0.17674,-0.220658 -0.92604,-0.176389 -1.16823,-0.419096 -1.34462,-1.345137 -0.0221,-0.110243 -0.11042,-0.176217 -0.22066,-0.176217 z m 3.10886,1.94045 c -0.0945,0 -0.17025,0.0564 -0.18914,0.150895 -0.0756,0.415774 -0.17023,0.510415 -0.58601,0.586011 -0.0945,0.0189 -0.15089,0.09464 -0.15089,0.189136 0,0.09449 0.0564,0.16972 0.15089,0.188619 0.41578,0.07559 0.51041,0.170237 0.58601,0.58601 0.0189,0.09449 0.0947,0.151412 0.18914,0.151412 0.0945,0 0.17023,-0.05692 0.18913,-0.151412 0.0756,-0.415773 0.16972,-0.510415 0.5855,-0.58601 0.0945,-0.0189 0.15141,-0.09412 0.15141,-0.188619 0,-0.09449 -0.0569,-0.170238 -0.15141,-0.189136 -0.41578,-0.07559 -0.50991,-0.170237 -0.5855,-0.586011 -0.0189,-0.09449 -0.0946,-0.150895 -0.18913,-0.150895 z m -1.78594,1.852083 c -0.11024,0 -0.19861,0.06598 -0.22066,0.176217 -0.13229,0.61736 -0.26424,0.749825 -0.8816,0.882117 -0.11024,0.02205 -0.17673,0.109898 -0.17673,0.220141 0,0.110243 0.0664,0.19861 0.17673,0.220659 0.61736,0.132291 0.74931,0.264756 0.8816,0.882116 0.022,0.110243 0.11042,0.176217 0.22066,0.176217 0.11025,0 0.19861,-0.06598 0.22066,-0.176217 0.13229,-0.61736 0.26424,-0.749825 0.8816,-0.882116 0.11025,-0.02205 0.17673,-0.110416 0.17673,-0.220659 0,-0.110243 -0.0885,-0.198093 -0.17673,-0.220141 -0.61736,-0.132292 -0.74931,-0.264757 -0.8816,-0.882117 -0.0221,-0.110243 -0.11041,-0.176217 -0.22066,-0.176217 z"
       inkscape:export-filename="stars.svg"
       inkscape:export-xdpi="96"
       inkscape:export-ydpi="96" /></g></svg>
