<svg xmlns="http://www.w3.org/2000/svg" xmlns:svg="http://www.w3.org/2000/svg" width="16.933331mm" height="16.933331mm" viewBox="0 0 16.933331 16.933331" version="1.1" id="svg1" xml:space="preserve">
  <defs id="defs1"/>
  <g id="layer1" transform="translate(-239.26447,-236.14373)">
    <path id="path1" style="fill:#ffdd99;fill-opacity:1;stroke-width:0.406942;stroke-linecap:round;stroke-linejoin:round;paint-order:stroke markers fill" d="m 247.73113,236.14373 a 8.4666662,8.4666662 0 0 0 -8.46666,8.46666 8.4666662,8.4666662 0 0 0 8.46666,8.46667 8.4666662,8.4666662 0 0 0 8.46667,-8.46667 8.4666662,8.4666662 0 0 0 -8.46667,-8.46666 z m 2.0221,3.66127 c 0.59231,-0.006 1.16005,0.31854 1.43195,0.8816 0.23253,0.48158 0.22472,0.96863 -0.0222,1.43971 -0.20068,0.38285 -0.60334,0.6942 -1.02784,0.79426 -0.65493,0.15438 -1.32208,-0.11918 -1.69395,-0.69453 -0.29689,-0.45931 -0.32764,-1.04866 -0.0811,-1.55391 0.12167,-0.24937 0.45342,-0.58113 0.7028,-0.7028 0.22326,-0.10892 0.45863,-0.16133 0.6904,-0.16433 z m -4.27829,3.22358 c 0.10381,-0.005 0.21034,0.0369 0.30954,0.1266 0.0626,0.0565 0.65015,0.80349 1.30535,1.66037 1.72131,2.2512 1.61445,2.11897 1.78025,2.20917 0.18372,0.1 0.41031,0.1047 0.59376,0.0124 0.0696,-0.035 0.31154,-0.24858 0.56121,-0.49558 0.46602,-0.46109 0.55679,-0.52141 0.78548,-0.52141 0.21519,0 0.39212,0.10436 0.56327,0.33227 0.31335,0.41728 1.74387,2.48251 1.78077,2.57091 0.08,0.19146 0.0244,0.36766 -0.14056,0.44596 -0.0891,0.0421 -0.54035,0.046 -5.25756,0.046 -4.96778,0 -5.16369,-0.002 -5.25859,-0.0522 -0.0542,-0.0288 -0.12835,-0.0954 -0.16485,-0.14831 -0.1388,-0.20111 -0.17232,-0.12372 1.35858,-3.15846 0.8515,-1.68797 1.43201,-2.80734 1.48931,-2.87114 0.0889,-0.0991 0.19023,-0.15158 0.29404,-0.15658 z"/>
  </g>
</svg>