<?xml version="1.0" encoding="UTF-8" standalone="no"?>
<!-- Created with Inkscape (http://www.inkscape.org/) -->

<svg
   width="7.9366302mm"
   height="7.9374466mm"
   viewBox="0 0 7.9366302 7.9374466"
   version="1.1"
   id="svg5"
   xml:space="preserve"
   inkscape:version="1.2.1 (9c6d41e410, 2022-07-14)"
   sodipodi:docname="desenho.svg"
   xmlns:inkscape="http://www.inkscape.org/namespaces/inkscape"
   xmlns:sodipodi="http://sodipodi.sourceforge.net/DTD/sodipodi-0.dtd"
   xmlns="http://www.w3.org/2000/svg"
   xmlns:svg="http://www.w3.org/2000/svg"><sodipodi:namedview
     id="namedview7"
     pagecolor="#83838e"
     bordercolor="#000000"
     borderopacity="0.25"
     inkscape:showpageshadow="2"
     inkscape:pageopacity="0"
     inkscape:pagecheckerboard="0"
     inkscape:deskcolor="#d1d1d1"
     inkscape:document-units="mm"
     showgrid="false"
     inkscape:zoom="1.2771877"
     inkscape:cx="1025.2996"
     inkscape:cy="583.31285"
     inkscape:current-layer="layer1" /><defs
     id="defs2" /><g
     inkscape:label="Camada 1"
     inkscape:groupmode="layer"
     id="layer1"
     transform="translate(-113.99366,-109.33708)"><path
       id="path1404"
       style="fill:#ffffff;stroke:none;stroke-width:0.0510235;stroke-linecap:round;stroke-linejoin:round;paint-order:markers stroke fill"
       d="m 116.22422,109.33708 c -0.20774,0 -0.37486,0.16743 -0.37486,0.37517 0,0.20775 0.16712,0.37486 0.37486,0.37486 h 3.47607 c 0.20774,0 0.37517,-0.16711 0.37517,-0.37486 0,-0.20774 -0.16743,-0.37517 -0.37517,-0.37517 z m -0.26479,1.34938 c -0.34144,0 -0.61639,0.27463 -0.61639,0.61608 v 4.00627 c 0,0.34143 0.27495,0.6164 0.61639,0.6164 h 4.00596 c 0.34144,0 0.61639,-0.27497 0.61639,-0.6164 v -4.00627 c 0,-0.34145 -0.27495,-0.61608 -0.61639,-0.61608 z m 0.37827,0.49392 v 0.001 h 3.24942 c 0.27382,0 0.49461,0.2182 0.4995,0.49082 -0.0302,-0.001 -0.0768,-0.001 -0.16247,-0.001 -0.0229,0 -0.0428,-4e-5 -0.0608,0 -0.12546,2.9e-4 -0.13879,0.002 -0.16279,0.0109 -0.0367,0.0137 -0.0697,0.0452 -0.0881,0.0843 l -0.014,0.0301 v 0.20061 c 0,0.19551 2.6e-4,0.20071 0.0118,0.22572 0.0208,0.045 0.0531,0.0761 0.0958,0.0918 0.0254,0.009 0.26884,0.0109 0.38044,0.005 v 0.66136 c -0.0301,-0.001 -0.0767,-0.002 -0.16248,-0.002 -0.0229,0 -0.0428,-4e-5 -0.0608,0 -0.12546,2.9e-4 -0.1388,0.002 -0.16279,0.0109 -0.0368,0.0137 -0.0697,0.0452 -0.0881,0.0843 l -0.0143,0.0304 v 0.19999 c 0,0.19552 5.7e-4,0.20133 0.0121,0.22634 0.0208,0.045 0.0532,0.0758 0.0958,0.0915 0.0254,0.009 0.26884,0.0109 0.38044,0.005 v 0.66136 c -0.0301,-0.001 -0.0767,-0.002 -0.16247,-0.002 -0.18288,0 -0.19613,6e-4 -0.22355,0.0112 -0.0367,0.0137 -0.0697,0.0452 -0.0881,0.0843 l -0.0143,0.0304 v 0.20029 c 0,0.19552 5.6e-4,0.20071 0.0121,0.22572 0.0208,0.045 0.0532,0.0761 0.0958,0.0918 0.0254,0.009 0.26874,0.0112 0.38044,0.005 -0.004,0.27376 -0.22517,0.49299 -0.49982,0.49299 h -3.2491 c -0.27452,0 -0.49568,-0.21911 -0.4995,-0.49268 0.11295,0.005 0.34957,0.004 0.37672,-0.005 h 3.1e-4 c 0.0524,-0.0185 0.087,-0.0559 0.10294,-0.11069 0.008,-0.026 0.009,-0.0565 0.007,-0.22138 -0.002,-0.18309 -0.002,-0.1921 -0.013,-0.21612 -0.0168,-0.0364 -0.0528,-0.0703 -0.0896,-0.084 -0.0225,-0.008 -0.0322,-0.0106 -0.11782,-0.0106 v -3.1e-4 c -0.0285,0 -0.0654,2.8e-4 -0.1141,6e-4 -0.0788,6e-4 -0.12209,10e-4 -0.15286,0.002 v -0.66384 c 0.11305,0.005 0.35096,0.004 0.37734,-0.005 l -3.1e-4,-3.1e-4 c 0.0526,-0.0185 0.0873,-0.0559 0.10325,-0.11069 0.008,-0.026 0.009,-0.0563 0.007,-0.22107 -0.002,-0.18309 -0.002,-0.19239 -0.0133,-0.21642 -0.0168,-0.0364 -0.0528,-0.0703 -0.0896,-0.084 -0.0225,-0.008 -0.0323,-0.0109 -0.11782,-0.0109 -0.0285,1e-5 -0.0654,4.2e-4 -0.1141,6e-4 -0.0788,6e-4 -0.12208,0.001 -0.15286,0.002 v -0.66321 c 0.11286,0.005 0.34987,0.004 0.37703,-0.005 h 3.1e-4 c 0.0524,-0.0185 0.087,-0.0559 0.10294,-0.1107 0.008,-0.026 0.009,-0.0569 0.007,-0.22169 -0.002,-0.18308 -0.002,-0.19209 -0.013,-0.21611 -0.0168,-0.0364 -0.0528,-0.0702 -0.0896,-0.084 -0.0225,-0.008 -0.0323,-0.0106 -0.11783,-0.0106 v -3.2e-4 c -0.0285,0 -0.0654,3e-4 -0.1141,6e-4 -0.0787,6e-4 -0.12176,0.001 -0.15255,0.002 0.004,-0.27367 0.22492,-0.49299 0.49951,-0.49299 z m 5.14387,0.1972 v 3e-4 3.2e-4 l -0.64769,3.1e-4 v 0.3609 h 0.37205 c 0.1997,0 0.36044,0.1593 0.36401,0.35812 -0.022,-6e-4 -0.0557,-6e-4 -0.11813,-6e-4 -0.0167,0 -0.0313,-3e-5 -0.0443,0 -0.0915,2.2e-4 -0.10157,0.001 -0.11907,0.008 -0.0268,0.01 -0.0505,0.0331 -0.0639,0.0617 l -0.0103,0.022 v 0.14604 c 0,0.14258 -7e-5,0.1464 0.008,0.16464 0.0152,0.0328 0.0389,0.0556 0.0701,0.067 0.0185,0.007 0.19611,0.008 0.2775,0.004 v 0.48244 c -0.022,-6e-4 -0.0559,-0.001 -0.11844,-0.001 -0.0167,0 -0.0313,-2e-5 -0.0443,0 -0.0915,2.2e-4 -0.10157,0.001 -0.11907,0.008 -0.0268,0.01 -0.0505,0.0331 -0.0639,0.0617 l -0.0106,0.022 v 0.14634 c 0,0.14259 5.6e-4,0.14641 0.009,0.16464 0.0152,0.0328 0.0386,0.0553 0.0698,0.0667 0.0185,0.007 0.19609,0.008 0.2775,0.004 v 0.48214 c -0.022,-6e-4 -0.0559,-0.001 -0.11844,-0.001 -0.13337,0 -0.14342,1.5e-4 -0.16341,0.008 -0.0268,0.01 -0.0505,0.0331 -0.0639,0.0617 l -0.0106,0.022 v 0.14634 c 0,0.14259 3e-5,0.14641 0.008,0.16465 0.0152,0.0328 0.0392,0.0553 0.0704,0.0667 0.0185,0.007 0.19574,0.009 0.27719,0.004 -0.002,0.19965 -0.16371,0.35936 -0.36401,0.35936 h -0.36812 v 0.36121 h 0.64376 c 0.24903,0 0.44959,-0.20026 0.44959,-0.44927 v -2.92199 c 0,-0.24902 -0.20056,-0.44897 -0.44959,-0.44897 z m -7.03864,0.0359 c -0.24901,0 -0.44927,0.20025 -0.44927,0.44927 v 2.92168 c 0,0.24901 0.20026,0.44959 0.44927,0.44959 h 0.55673 v -0.36122 h -0.28077 c -0.20021,0 -0.36154,-0.15984 -0.36432,-0.35936 0.0824,0.004 0.25492,0.003 0.27471,-0.004 h 3.1e-4 c 0.0382,-0.0135 0.0637,-0.041 0.0754,-0.0809 0.005,-0.019 0.006,-0.0413 0.005,-0.16154 -0.001,-0.13353 -0.001,-0.13999 -0.009,-0.15751 -0.0122,-0.0265 -0.0389,-0.0514 -0.0657,-0.0614 -0.0164,-0.006 -0.0235,-0.008 -0.0859,-0.008 -0.0208,0 -0.0475,9e-5 -0.0831,3.1e-4 -0.0575,4.3e-4 -0.0889,6e-4 -0.11131,0.002 v -0.48431 c 0.0825,0.004 0.25579,0.003 0.27502,-0.004 l -3.1e-4,-3.1e-4 c 0.0383,-0.0135 0.064,-0.0406 0.0756,-0.0806 0.005,-0.019 0.006,-0.041 0.005,-0.16124 -0.001,-0.13353 -0.001,-0.1403 -0.009,-0.15781 -0.0122,-0.0265 -0.0389,-0.051 -0.0657,-0.0611 -0.0164,-0.006 -0.0235,-0.008 -0.0859,-0.008 -0.0208,0 -0.0475,1.6e-4 -0.0831,3.1e-4 -0.0575,4.4e-4 -0.0889,3.5e-4 -0.11131,0.002 v -0.48369 c 0.0823,0.004 0.2549,0.003 0.27471,-0.004 0.0383,-0.0135 0.0637,-0.0407 0.0754,-0.0806 0.005,-0.019 0.006,-0.0413 0.005,-0.16154 -0.001,-0.13351 -0.001,-0.14029 -0.01,-0.15781 -0.0122,-0.0265 -0.0385,-0.0514 -0.0654,-0.0614 -0.0164,-0.006 -0.0235,-0.007 -0.0859,-0.007 v -3.1e-4 c -0.0208,0 -0.0478,9e-5 -0.0834,3.1e-4 -0.0574,4.4e-4 -0.0889,6e-4 -0.11131,0.002 0.002,-0.19958 0.16406,-0.35967 0.36432,-0.35967 l 3.1e-4,6e-4 h 0.28046 v -0.3609 z m 2.58093,0.72678 c -0.0891,0.002 -0.17061,0.0542 -0.20773,0.13456 l -0.0167,0.0356 -0.002,0.97204 c -0.002,0.6907 -8e-5,0.98318 0.006,1.0111 0.0161,0.0748 0.0726,0.13747 0.14851,0.16464 0.0275,0.0101 0.0533,0.013 0.0918,0.0106 0.0532,-0.003 0.0565,-0.005 1.01575,-0.48432 0.73558,-0.3677 0.9703,-0.48826 0.9956,-0.51159 0.0472,-0.0435 0.0688,-0.096 0.0688,-0.16743 0,-0.0715 -0.0217,-0.12393 -0.0688,-0.16743 -0.0253,-0.0233 -0.26008,-0.14424 -0.99684,-0.51253 -0.95465,-0.47722 -0.9647,-0.48185 -1.01606,-0.48462 -0.006,-3.3e-4 -0.0121,-6e-4 -0.018,-6e-4 z m -0.79964,4.38453 c -0.20774,0 -0.37486,0.16712 -0.37486,0.37486 0,0.20775 0.16712,0.37487 0.37486,0.37487 h 3.47607 c 0.20774,0 0.37517,-0.16712 0.37517,-0.37487 0,-0.20774 -0.16743,-0.37486 -0.37517,-0.37486 z"
       sodipodi:nodetypes="ssssssssssssssssccscsscccsssccsscscsssccscscssscsscccsccscccccccsccsscccccsccsccccccccccscsssccsscccscsccsssccscccscscsccsssccsssccscccccssscccccccscscccccccsccccccccccccccccsssssscsssssss" /></g></svg>
