<?xml version="1.0" encoding="UTF-8" standalone="no"?>
<!-- Created with Inkscape (http://www.inkscape.org/) -->

<svg
   width="7.9375mm"
   height="7.9375mm"
   viewBox="0 0 7.9375 7.9375"
   version="1.1"
   id="svg5"
   xml:space="preserve"
   inkscape:version="1.2.1 (9c6d41e410, 2022-07-14)"
   sodipodi:docname="desenho.svg"
   xmlns:inkscape="http://www.inkscape.org/namespaces/inkscape"
   xmlns:sodipodi="http://sodipodi.sourceforge.net/DTD/sodipodi-0.dtd"
   xmlns="http://www.w3.org/2000/svg"
   xmlns:svg="http://www.w3.org/2000/svg"><sodipodi:namedview
     id="namedview7"
     pagecolor="#83838e"
     bordercolor="#000000"
     borderopacity="0.25"
     inkscape:showpageshadow="2"
     inkscape:pageopacity="0"
     inkscape:pagecheckerboard="0"
     inkscape:deskcolor="#d1d1d1"
     inkscape:document-units="mm"
     showgrid="false"
     inkscape:zoom="1.2771877"
     inkscape:cx="1025.2996"
     inkscape:cy="583.31285"
     inkscape:current-layer="layer1" /><defs
     id="defs2" /><g
     inkscape:label="Camada 1"
     inkscape:groupmode="layer"
     id="layer1"
     transform="translate(-102.60565,-109.36276)"><path
       id="path1365"
       style="fill:#ffffff;stroke:none;stroke-width:0.106004;stroke-linecap:round;stroke-linejoin:round;paint-order:markers stroke fill"
       d="m 103.53955,109.36275 c -0.51734,0 -0.9339,0.41625 -0.9339,0.93358 v 6.07002 c 0,0.51734 0.41656,0.9339 0.9339,0.9339 h 6.06971 c 0.51734,0 0.93389,-0.41656 0.93389,-0.9339 v -6.07002 c 0,-0.51733 -0.41655,-0.93358 -0.93389,-0.93358 z m 0.5733,0.74972 h 4.92311 c 0.41489,0 0.74943,0.33047 0.75685,0.74352 -0.0457,-0.002 -0.1161,-0.002 -0.24587,-0.002 -0.0346,0 -0.0653,-6e-5 -0.0924,0 -0.19009,4.4e-4 -0.21015,0.003 -0.2465,0.0164 -0.0557,0.0208 -0.10552,0.0684 -0.13333,0.12774 l -0.0214,0.0459 v 0.30355 c 0,0.29624 5.3e-4,0.30441 0.018,0.3423 0.0314,0.0681 0.0805,0.1152 0.14511,0.13891 0.0385,0.0141 0.40761,0.0167 0.57671,0.008 v 1.00211 c -0.0457,-0.002 -0.11618,-0.002 -0.24618,-0.002 -0.0346,0 -0.0653,-6e-5 -0.0924,0 -0.1901,4.3e-4 -0.21015,0.003 -0.2465,0.0164 -0.0557,0.0208 -0.10552,0.0687 -0.13333,0.12805 l -0.0214,0.0459 v 0.30324 c 0,0.29624 5.3e-4,0.30471 0.018,0.34261 0.0314,0.0681 0.0805,0.11489 0.14511,0.13859 0.0385,0.0141 0.40761,0.0167 0.57671,0.008 v 1.00211 c -0.0457,-0.002 -0.11618,-0.002 -0.24619,-0.002 -0.27708,0 -0.29735,0.001 -0.33889,0.0167 -0.0557,0.0208 -0.10553,0.0684 -0.13333,0.12775 l -0.0214,0.0459 v 0.30354 c 0,0.29624 5.3e-4,0.30441 0.018,0.34231 0.0314,0.0681 0.0805,0.1152 0.14511,0.13891 0.0385,0.0141 0.40715,0.0167 0.5764,0.008 -0.005,0.41479 -0.34072,0.74724 -0.75686,0.74724 h -4.92311 c -0.41593,0 -0.75106,-0.33212 -0.75685,-0.74662 0.17113,0.008 0.52969,0.006 0.57082,-0.008 h 3e-4 c 0.0795,-0.0281 0.13214,-0.0847 0.15627,-0.16774 0.0115,-0.0394 0.013,-0.0858 0.0109,-0.33549 -0.002,-0.27741 -0.003,-0.29133 -0.0199,-0.32773 -0.0254,-0.0551 -0.0803,-0.10625 -0.13611,-0.12712 -0.0341,-0.0127 -0.0486,-0.0161 -0.17829,-0.0161 v -3.1e-4 c -0.0432,0 -0.0992,4.1e-4 -0.17301,0.001 -0.11944,0.001 -0.18467,0.002 -0.2313,0.004 v -1.00552 c 0.1713,0.008 0.53146,0.006 0.57143,-0.008 l -3e-4,-3.1e-4 c 0.0796,-0.028 0.13241,-0.0846 0.15657,-0.16774 0.0115,-0.0394 0.013,-0.0855 0.0109,-0.33517 -0.002,-0.27742 -0.003,-0.29134 -0.0199,-0.32774 -0.0254,-0.0551 -0.0803,-0.10624 -0.13611,-0.12712 -0.0341,-0.0127 -0.0486,-0.0164 -0.17829,-0.0164 -0.0432,10e-6 -0.0992,6e-4 -0.17301,10e-4 -0.11944,0.001 -0.18467,0.002 -0.2313,0.004 v -1.0049 c 0.171,0.008 0.52997,0.006 0.57112,-0.008 h 3.1e-4 c 0.0795,-0.0281 0.13214,-0.0847 0.15627,-0.16774 0.0115,-0.0394 0.013,-0.0858 0.0109,-0.33548 -0.002,-0.27741 -0.003,-0.29133 -0.0199,-0.32773 -0.0254,-0.0551 -0.0803,-0.10626 -0.13612,-0.12713 -0.0341,-0.0127 -0.0486,-0.0161 -0.17828,-0.0161 v -3.1e-4 c -0.0432,0 -0.0992,4.2e-4 -0.17302,0.001 -0.11919,0.001 -0.18434,0.002 -0.23099,0.004 0.005,-0.41465 0.34081,-0.74693 0.75686,-0.74693 z m 1.03962,1.45324 c -0.13495,0.003 -0.25876,0.082 -0.31502,0.20371 l -0.0251,0.0542 -0.004,1.47248 c -0.002,1.04652 2.4e-4,1.48969 0.009,1.53199 0.0244,0.11327 0.1101,0.20844 0.2251,0.2496 0.0418,0.0153 0.0805,0.0194 0.13891,0.0158 0.0806,-0.005 0.0856,-0.007 1.53913,-0.73391 1.11452,-0.55713 1.4701,-0.73981 1.50844,-0.77515 0.0714,-0.0659 0.10418,-0.14532 0.10418,-0.25363 0,-0.1083 -0.0327,-0.1877 -0.10418,-0.25362 -0.0384,-0.0354 -0.3943,-0.21837 -1.5106,-0.77639 -1.44646,-0.72306 -1.46163,-0.73033 -1.53945,-0.73453 -0.009,-5e-4 -0.018,-6e-4 -0.027,-6e-4 z" /></g></svg>
